SplineFontDB: 3.0
FontName: StardosStencil-Bold
FullName: Stardos Stencil Bold
FamilyName: Stardos Stencil
Weight: Bold
Copyright: Copyright (c) 2011 by vernon adams. All rights reserved.
Version: 1.000
ItalicAngle: 0
UnderlinePosition: -103
UnderlineWidth: 102
Ascent: 1638
Descent: 410
sfntRevision: 0x00010000
LayerCount: 2
Layer: 0 1 "Back"  1
Layer: 1 1 "Fore"  0
XUID: [1021 288 713564382 11523129]
FSType: 0
OS2Version: 2
OS2_WeightWidthSlopeOnly: 0
OS2_UseTypoMetrics: 1
CreationTime: 1309507920
ModificationTime: 1309525796
PfmFamily: 17
TTFWeight: 700
TTFWidth: 5
LineGap: 0
VLineGap: 0
Panose: 2 0 5 3 8 0 0 2 0 3
OS2TypoAscent: 1994
OS2TypoAOffset: 0
OS2TypoDescent: -831
OS2TypoDOffset: 0
OS2TypoLinegap: 0
OS2WinAscent: 1994
OS2WinAOffset: 0
OS2WinDescent: 831
OS2WinDOffset: 0
HheadAscent: 1994
HheadAOffset: 0
HheadDescent: -831
HheadDOffset: 0
OS2SubXSize: 1331
OS2SubYSize: 1229
OS2SubXOff: 0
OS2SubYOff: 154
OS2SupXSize: 1331
OS2SupYSize: 1229
OS2SupXOff: 0
OS2SupYOff: 717
OS2StrikeYSize: 102
OS2StrikeYPos: 512
OS2Vendor: 'newt'
OS2CodePages: 20000001.00000000
OS2UnicodeRanges: 800000ef.4000204a.00000000.00000000
Lookup: 258 0 0 "'kern' Horizontal Kerning in Latin lookup 0"  {"'kern' Horizontal Kerning in Latin lookup 0 per glyph data 0"  "'kern' Horizontal Kerning in Latin lookup 0 per glyph data 1"  "'kern' Horizontal Kerning in Latin lookup 0 kerning class 2"  } ['kern' ('latn' <'dflt' > ) ]
MarkAttachClasses: 1
DEI: 91125
KernClass2: 3+ 8 "'kern' Horizontal Kerning in Latin lookup 0 kerning class 2" 
 50 A Agrave Aacute Acircumflex Atilde Adieresis Aring
 8 L Lslash
 18 Y Yacute Ydieresis
 18 Y Yacute Ydieresis
 18 y yacute ydieresis
 53 A Agrave Aacute Acircumflex Atilde Adieresis Aring AE
 53 a agrave aacute acircumflex atilde adieresis aring ae
 37 e egrave eacute ecircumflex edieresis
 54 o ograve oacute ocircumflex otilde odieresis oslash oe
 37 u ugrave uacute ucircumflex udieresis

StartChar: exclam
Encoding: 33 33 4
Width: 682
GlyphClass: 2
Flags: MW
LayerCount: 2
Fore
SplineSet
290 428 m 1,0,1
 269.522222222 591.822222222 269.522222222 591.822222222 230.261111111 810.411111111 c 128,-1,2
 191 1029 191 1029 178 1107 c 128,-1,3
 165 1185 165 1185 165 1234 c 128,-1,4
 165 1283 165 1283 175.5 1323 c 128,-1,5
 186 1363 186 1363 207.5 1391.5 c 0,6,7
 253.140350877 1452 253.140350877 1452 341 1452 c 0,8,9
 514 1452 514 1452 514 1235 c 0,10,11
 514 1173.75675676 514 1173.75675676 482.5 998.378378378 c 0,12,13
 411.993975904 605.831325301 411.993975904 605.831325301 391 428 c 1,14,-1
 290 428 l 1,0,1
187.5 82 m 0,15,16
 175 114 175 114 175 151.5 c 128,-1,17
 175 189 175 189 187.5 221 c 128,-1,18
 200 253 200 253 222 277 c 0,19,20
 268.75 328 268.75 328 343 328 c 256,21,22
 416.6875 328 416.6875 328 464.5 277 c 0,23,24
 512 226.333333333 512 226.333333333 512 152 c 0,25,26
 512 76.6666666667 512 76.6666666667 464.5 26 c 0,27,28
 416.6875 -25 416.6875 -25 343 -25 c 256,29,30
 229.296875 -25 229.296875 -25 187.5 82 c 0,15,16
EndSplineSet
EndChar

StartChar: quotedbl
Encoding: 34 34 5
Width: 768
GlyphClass: 2
Flags: MW
LayerCount: 2
Fore
SplineSet
524 868 m 0,0,1
 480 1163.05882353 480 1163.05882353 480 1333.5 c 0,2,3
 480 1452 480 1452 584.5 1452 c 128,-1,4
 689 1452 689 1452 689 1333.5 c 128,-1,5
 689 1215 689 1215 675.5 1099 c 128,-1,6
 662 983 662 983 654.5 922.5 c 128,-1,7
 647 862 647 862 643 851.5 c 128,-1,8
 639 841 639 841 631.5 830.5 c 0,9,10
 613.285714286 805 613.285714286 805 590.642857143 805 c 128,-1,11
 568 805 568 805 557 812.5 c 128,-1,12
 546 820 546 820 539 830.5 c 0,13,14
 527.333333333 848 527.333333333 848 524 868 c 0,0,1
121 868 m 0,15,16
 77 1163.05882353 77 1163.05882353 77 1333.5 c 0,17,18
 77 1452 77 1452 181.5 1452 c 128,-1,19
 286 1452 286 1452 286 1333.5 c 128,-1,20
 286 1215 286 1215 272.5 1099 c 128,-1,21
 259 983 259 983 251.5 922.5 c 128,-1,22
 244 862 244 862 240 851.5 c 128,-1,23
 236 841 236 841 228.5 830.5 c 0,24,25
 210.285714286 805 210.285714286 805 187.642857143 805 c 128,-1,26
 165 805 165 805 154 812.5 c 128,-1,27
 143 820 143 820 136 830.5 c 0,28,29
 124.333333333 848 124.333333333 848 121 868 c 0,15,16
EndSplineSet
EndChar

StartChar: numbersign
Encoding: 35 35 6
Width: 1153
GlyphClass: 2
Flags: MW
LayerCount: 2
Fore
SplineSet
1074 410 m 1,0,-1
 860 410 l 1,1,-1
 796 0 l 1,2,-1
 587 0 l 1,3,-1
 647 410 l 1,4,-1
 424 410 l 1,5,-1
 359 0 l 1,6,-1
 152 0 l 1,7,-1
 214 410 l 1,8,-1
 11 410 l 1,9,-1
 11 584 l 1,10,-1
 244 584 l 1,11,-1
 283 836 l 1,12,-1
 79 836 l 1,13,-1
 79 1010 l 1,14,-1
 311 1010 l 1,15,-1
 373 1421 l 1,16,-1
 583 1421 l 1,17,-1
 521 1010 l 1,18,-1
 745 1010 l 1,19,-1
 809 1421 l 1,20,-1
 1017 1421 l 1,21,-1
 955 1010 l 1,22,-1
 1141 1010 l 1,23,-1
 1141 836 l 1,24,-1
 926 836 l 1,25,-1
 887 584 l 1,26,-1
 1074 584 l 1,27,-1
 1074 410 l 1,0,-1
493 836 m 1,28,-1
 454 584 l 1,29,-1
 677 584 l 1,30,-1
 717 836 l 1,31,-1
 493 836 l 1,28,-1
EndSplineSet
EndChar

StartChar: dollar
Encoding: 36 36 7
Width: 1153
GlyphClass: 2
Flags: MW
LayerCount: 2
Fore
SplineSet
425 1277 m 1,0,1
 371 1230.2 371 1230.2 371 1149.1 c 128,-1,2
 371 1068 371 1068 408 1023.5 c 128,-1,3
 445 979 445 979 514 950 c 1,4,-1
 514 1563 l 1,5,-1
 633 1563 l 1,6,-1
 633 907 l 1,7,8
 715 873 715 873 790.5 836.5 c 128,-1,9
 866 800 866 800 924.5 750 c 0,10,11
 1053 640.170940171 1053 640.170940171 1053 461 c 0,12,13
 1053 313.976744186 1053 313.976744186 964 196 c 0,14,15
 873.999700867 76.6972778941 873.999700867 76.6972778941 723 31 c 1,16,-1
 722 160 l 1,17,18
 805 221.717948718 805 221.717948718 805 340 c 0,19,20
 805 464.328125 805 464.328125 708 529.5 c 0,21,22
 676 551 676 551 633 569 c 1,23,-1
 633 -164 l 1,24,-1
 514 -164 l 1,25,-1
 514 608 l 1,26,27
 343.682539683 676.126984127 343.682539683 676.126984127 275.341269841 735.063492063 c 128,-1,28
 207 794 207 794 172.5 860 c 128,-1,29
 138 926 138 926 138 1003.5 c 128,-1,30
 138 1081 138 1081 156 1138.5 c 128,-1,31
 174 1196 174 1196 210 1244.5 c 0,32,33
 285.716216216 1346.50656907 285.716216216 1346.50656907 425 1391 c 1,34,-1
 425 1277 l 1,0,1
277 221 m 1,35,36
 289.704724409 139.326771654 289.704724409 139.326771654 425 116 c 1,37,-1
 425 15 l 1,38,39
 285.508768223 41.6674413691 285.508768223 41.6674413691 190.5 132.5 c 0,40,41
 92 226.67032967 92 226.67032967 92 342 c 0,42,43
 92 423.8 92 423.8 136 470 c 0,44,45
 175.047619048 511 175.047619048 511 233 511 c 256,46,47
 291.475 511 291.475 511 333.5 470 c 0,48,49
 379 425.609756098 379 425.609756098 379 370.804878049 c 128,-1,50
 379 316 379 316 366 294.5 c 128,-1,51
 353 273 353 273 336 260 c 128,-1,52
 319 247 319 247 302 239 c 128,-1,53
 285 231 285 231 277 221 c 1,35,36
779 1260 m 1,54,55
 766.709302326 1295.11627907 766.709302326 1295.11627907 722 1313 c 1,56,-1
 722 1406 l 1,57,58
 906.102888087 1371.08393502 906.102888087 1371.08393502 969 1239 c 0,59,60
 989 1197 989 1197 989 1158.5 c 128,-1,61
 989 1120 989 1120 980 1094 c 128,-1,62
 971 1068 971 1068 953 1048.5 c 0,63,64
 913.769230769 1006 913.769230769 1006 842 1006 c 0,65,66
 737.844444444 1006 737.844444444 1006 711 1081.5 c 0,67,68
 703 1104 703 1104 703 1128 c 0,69,70
 703 1190.33333333 703 1190.33333333 779 1260 c 1,54,55
EndSplineSet
EndChar

StartChar: percent
Encoding: 37 37 8
Width: 1579
GlyphClass: 2
Flags: MW
LayerCount: 2
Fore
SplineSet
365 -31 m 1,0,-1
 237 -31 l 1,1,-1
 1211 1452 l 1,2,-1
 1339 1452 l 1,3,-1
 365 -31 l 1,0,-1
1148 698 m 1,4,5
 1089 646.375 1089 646.375 1089 381.284274194 c 128,-1,6
 1089 116.193548387 1089 116.193548387 1148 61 c 1,7,-1
 1148 -11 l 1,8,9
 1013.76102623 4.34159700202 1013.76102623 4.34159700202 939.5 119.5 c 0,10,11
 871 225.724637681 871 225.724637681 871 379 c 256,12,13
 871 532.768115942 871 532.768115942 939.5 638 c 0,14,15
 1014.16627839 752.704717531 1014.16627839 752.704717531 1148 768 c 1,16,-1
 1148 698 l 1,4,5
1237 61 m 1,17,18
 1296 116.193548387 1296 116.193548387 1296 381.284274194 c 128,-1,19
 1296 646.375 1296 646.375 1237 698 c 1,20,-1
 1237 768 l 1,21,22
 1370.83372161 752.704717531 1370.83372161 752.704717531 1445.5 638 c 0,23,24
 1514 532.768115942 1514 532.768115942 1514 379 c 256,25,26
 1514 225.724637681 1514 225.724637681 1445.5 119.5 c 0,27,28
 1371.23897377 4.34159700202 1371.23897377 4.34159700202 1237 -11 c 1,29,-1
 1237 61 l 1,17,18
342 1383 m 1,30,31
 283 1331.375 283 1331.375 283 1066.28427419 c 128,-1,32
 283 801.193548387 283 801.193548387 342 746 c 1,33,-1
 342 674 l 1,34,35
 207.761026232 689.341597002 207.761026232 689.341597002 133.5 804.5 c 0,36,37
 65 910.724637681 65 910.724637681 65 1064 c 256,38,39
 65 1217.76811594 65 1217.76811594 133.5 1323 c 0,40,41
 208.166278393 1437.70471753 208.166278393 1437.70471753 342 1453 c 1,42,-1
 342 1383 l 1,30,31
431 746 m 1,43,44
 490 801.193548387 490 801.193548387 490 1066.28427419 c 128,-1,45
 490 1331.375 490 1331.375 431 1383 c 1,46,-1
 431 1453 l 1,47,48
 564.833721607 1437.70471753 564.833721607 1437.70471753 639.5 1323 c 0,49,50
 708 1217.76811594 708 1217.76811594 708 1064 c 256,51,52
 708 910.724637681 708 910.724637681 639.5 804.5 c 0,53,54
 565.238973768 689.341597002 565.238973768 689.341597002 431 674 c 1,55,-1
 431 746 l 1,43,44
EndSplineSet
EndChar

StartChar: ampersand
Encoding: 38 38 9
Width: 1599
GlyphClass: 2
Flags: MW
LayerCount: 2
Fore
SplineSet
701 -30 m 1,0,-1
 675 -31 l 1,1,2
 412 -31 412 -31 251 72.5 c 0,3,4
 89 176.642857143 89 176.642857143 89 343 c 0,5,6
 89 526.040816327 89 526.040816327 246 651 c 0,7,8
 295 690 295 690 355 718 c 1,9,-1
 432 598 l 1,10,11
 415 539.272727273 415 539.272727273 415 402 c 0,12,13
 415 291.820512821 415 291.820512821 498 203.5 c 0,14,15
 583.341597796 112.687786961 583.341597796 112.687786961 701 97 c 1,16,-1
 701 -30 l 1,0,-1
752 920 m 1,17,18
 899 1009.47826087 899 1009.47826087 899 1178 c 0,19,20
 899 1233 899 1233 868 1274 c 128,-1,21
 837 1315 837 1315 770 1324 c 1,22,-1
 770 1452 l 1,23,24
 912.444561774 1441.67793031 912.444561774 1441.67793031 1003 1364.5 c 0,25,26
 1097 1284.38636364 1097 1284.38636364 1097 1163 c 0,27,28
 1097 989.048076923 1097 989.048076923 918 887.5 c 0,29,30
 866 858 866 858 811 831 c 1,31,-1
 752 920 l 1,17,18
1451.5 58.5 m 128,-1,33
 1384 -12 1384 -12 1254.70652174 -12 c 128,-1,34
 1125.41304348 -12 1125.41304348 -12 1012 99 c 1,35,36
 908.369282261 3.82893268873 908.369282261 3.82893268873 770 -22 c 1,37,-1
 770 97 l 1,38,39
 861.405447471 106.521400778 861.405447471 106.521400778 927 170 c 1,40,41
 900 200 900 200 859 241 c 128,-1,42
 818 282 818 282 770 332 c 128,-1,43
 722 382 722 382 669.5 439.5 c 128,-1,44
 617 497 617 497 566.5 559.5 c 128,-1,45
 516 622 516 622 470.5 688.5 c 128,-1,46
 425 755 425 755 391 822.5 c 0,47,48
 316 971.397058824 316 971.397058824 316 1071.19852941 c 128,-1,49
 316 1171 316 1171 343 1236 c 128,-1,50
 370 1301 370 1301 420.5 1347.5 c 0,51,52
 523.005990363 1441.886704 523.005990363 1441.886704 701 1452 c 1,53,-1
 701 1324 l 1,54,55
 638 1314 638 1314 607 1277 c 128,-1,56
 576 1240 576 1240 576 1181.5 c 0,57,58
 576 1067.72727273 576 1067.72727273 691.5 897.863636364 c 0,59,60
 895.605620424 597.68941223 895.605620424 597.68941223 1118 387 c 1,61,62
 1156 487.588235294 1156 487.588235294 1156 555.294117647 c 128,-1,63
 1156 623 1156 623 1138 645.5 c 128,-1,64
 1120 668 1120 668 1094.5 678 c 128,-1,65
 1069 688 1069 688 1041 692.5 c 128,-1,66
 1013 697 1013 697 994 709 c 1,67,-1
 994 782 l 1,68,-1
 1481 782 l 1,69,-1
 1481 711 l 1,70,71
 1458 701 1458 701 1435 695 c 128,-1,72
 1412 689 1412 689 1392 678.5 c 0,73,74
 1345.74464439 654.215938303 1345.74464439 654.215938303 1324 594 c 0,75,76
 1254.20171674 400.115879828 1254.20171674 400.115879828 1193 299 c 1,77,78
 1287.23076923 198.487179487 1287.23076923 198.487179487 1316.61538462 186.243589744 c 128,-1,79
 1346 174 1346 174 1366.5 174 c 128,-1,80
 1387 174 1387 174 1403.5 180.5 c 128,-1,81
 1420 187 1420 187 1433 203 c 0,82,83
 1456.11976048 231.45508982 1456.11976048 231.45508982 1476 307 c 1,84,-1
 1551 274 l 1,85,32
 1519 129 1519 129 1451.5 58.5 c 128,-1,33
EndSplineSet
EndChar

StartChar: quotesingle
Encoding: 39 39 10
Width: 512
GlyphClass: 2
Flags: MW
LayerCount: 2
Fore
SplineSet
201.5 1440 m 0,0,1
 222 1452 222 1452 255 1452 c 128,-1,2
 288 1452 288 1452 308 1441 c 128,-1,3
 328 1430 328 1430 339.5 1412.5 c 0,4,5
 359 1382.82608696 359 1382.82608696 359 1300.41304348 c 0,6,7
 359 1140.94117647 359 1140.94117647 319 868 c 0,8,9
 312.951219512 831.707317073 312.951219512 831.707317073 292.475609756 818.353658537 c 128,-1,10
 272 805 272 805 255.5 805 c 128,-1,11
 239 805 239 805 228 812.5 c 128,-1,12
 217 820 217 820 209.5 830.5 c 0,13,14
 197.434782609 847.391304348 197.434782609 847.391304348 194 868 c 0,15,16
 150 1163.05882353 150 1163.05882353 150 1332 c 0,17,18
 150 1409.85365854 150 1409.85365854 201.5 1440 c 0,0,1
EndSplineSet
EndChar

StartChar: parenleft
Encoding: 40 40 11
Width: 1023
GlyphClass: 2
Flags: MW
LayerCount: 2
Fore
SplineSet
901 1378 m 1,0,1
 670.701301775 1333.06366864 670.701301775 1333.06366864 561 1090 c 0,2,3
 466 879.509803922 466 879.509803922 466 530 c 0,4,5
 466 -16.5089820359 466 -16.5089820359 690.5 -219.5 c 0,6,7
 774 -295 774 -295 901 -319 c 1,8,-1
 901 -401 l 1,9,10
 682.245416079 -393.324400564 682.245416079 -393.324400564 512 -255 c 0,11,12
 273.05680317 -60.858652576 273.05680317 -60.858652576 202 302.5 c 0,13,14
 180 415 180 415 180 533.5 c 128,-1,15
 180 652 180 652 203 766 c 128,-1,16
 226 880 226 880 269.5 980 c 128,-1,17
 313 1080 313 1080 376 1163.5 c 128,-1,18
 439 1247 439 1247 519.5 1309.5 c 0,19,20
 688.557392103 1440.75573921 688.557392103 1440.75573921 901 1462 c 1,21,-1
 901 1378 l 1,0,1
EndSplineSet
EndChar

StartChar: parenright
Encoding: 41 41 12
Width: 1023
GlyphClass: 2
Flags: MW
LayerCount: 2
Fore
SplineSet
123 1462 m 1,0,1
 339.644348452 1452.41396688 339.644348452 1452.41396688 510 1314 c 0,2,3
 749.408190225 1119.48084544 749.408190225 1119.48084544 820 758.5 c 0,4,5
 842 646 842 646 842 496 c 128,-1,6
 842 346 842 346 791 184 c 128,-1,7
 740 22 740 22 646 -102.5 c 128,-1,8
 552 -227 552 -227 419 -305.5 c 128,-1,9
 286 -384 286 -384 123 -401 c 1,10,-1
 123 -319 l 1,11,12
 556 -233.819672131 556 -233.819672131 556 530 c 0,13,14
 556 1077.31736527 556 1077.31736527 333.5 1278.5 c 0,15,16
 250 1354 250 1354 123 1378 c 1,17,-1
 123 1462 l 1,0,1
EndSplineSet
EndChar

StartChar: asterisk
Encoding: 42 42 13
Width: 963
GlyphClass: 2
Flags: MW
LayerCount: 2
Fore
SplineSet
923 1212 m 1,0,-1
 599 1044 l 1,1,-1
 923 874 l 1,2,-1
 835 719 l 1,3,-1
 540 958 l 1,4,-1
 564 569 l 1,5,-1
 400 569 l 1,6,-1
 424 958 l 1,7,-1
 129 719 l 1,8,-1
 40 874 l 1,9,-1
 365 1044 l 1,10,-1
 40 1212 l 1,11,-1
 129 1370 l 1,12,-1
 424 1128 l 1,13,-1
 400 1520 l 1,14,-1
 564 1520 l 1,15,-1
 540 1128 l 1,16,-1
 835 1370 l 1,17,-1
 923 1212 l 1,0,-1
EndSplineSet
EndChar

StartChar: plus
Encoding: 43 43 14
Width: 1383
GlyphClass: 2
Flags: MW
LayerCount: 2
Fore
SplineSet
570 981 m 1,0,-1
 812 981 l 1,1,-1
 812 598 l 1,2,-1
 1243 598 l 1,3,-1
 1243 383 l 1,4,-1
 812 383 l 1,5,-1
 812 0 l 1,6,-1
 570 0 l 1,7,-1
 570 383 l 1,8,-1
 139 383 l 1,9,-1
 139 598 l 1,10,-1
 570 598 l 1,11,-1
 570 981 l 1,0,-1
EndSplineSet
EndChar

StartChar: comma
Encoding: 44 44 15
Width: 577
GlyphClass: 2
Flags: MW
LayerCount: 2
Fore
SplineSet
129 -319 m 1,0,1
 156 -286 156 -286 187.5 -250.5 c 128,-1,2
 219 -215 219 -215 246.5 -178 c 0,3,4
 310.784565916 -91.5080385852 310.784565916 -91.5080385852 321 -20 c 1,5,6
 215 -14 215 -14 163 33.5 c 128,-1,7
 111 81 111 81 111 160 c 0,8,9
 111 230.777777778 111 230.777777778 158.5 282.5 c 0,10,11
 207.632653061 336 207.632653061 336 269.816326531 336 c 128,-1,12
 332 336 332 336 367.5 317 c 128,-1,13
 403 298 403 298 427 265.5 c 0,14,15
 475 200.5 475 200.5 475 123.25 c 128,-1,16
 475 46 475 46 456 -13 c 128,-1,17
 437 -72 437 -72 402 -133 c 0,18,19
 329.291803279 -259.72 329.291803279 -259.72 210 -381 c 1,20,-1
 129 -319 l 1,0,1
EndSplineSet
EndChar

StartChar: hyphen
Encoding: 45 45 16
Width: 638
GlyphClass: 2
Flags: MW
LayerCount: 2
Fore
SplineSet
51 389 m 1,0,-1
 51 590 l 1,1,-1
 587 590 l 1,2,-1
 587 389 l 1,3,-1
 51 389 l 1,0,-1
EndSplineSet
EndChar

StartChar: period
Encoding: 46 46 17
Width: 576
GlyphClass: 2
Flags: MW
LayerCount: 2
Fore
SplineSet
119 158 m 256,0,1
 119 232.333333333 119 232.333333333 166.5 283 c 0,2,3
 214.3125 334 214.3125 334 288 334 c 256,4,5
 361.6875 334 361.6875 334 409.5 283 c 0,6,7
 457 232.333333333 457 232.333333333 457 158 c 256,8,9
 457 83.6666666667 457 83.6666666667 409.5 33 c 0,10,11
 361.6875 -18 361.6875 -18 288 -18 c 256,12,13
 214.3125 -18 214.3125 -18 166.5 33 c 0,14,15
 119 83.6666666667 119 83.6666666667 119 158 c 256,0,1
EndSplineSet
EndChar

StartChar: slash
Encoding: 47 47 18
Width: 640
GlyphClass: 2
Flags: MW
LayerCount: 2
Fore
SplineSet
127 -31 m 1,0,-1
 -111 -31 l 1,1,-1
 514 1452 l 1,2,-1
 751 1452 l 1,3,-1
 127 -31 l 1,0,-1
EndSplineSet
EndChar

StartChar: zero
Encoding: 48 48 19
Width: 1153
GlyphClass: 2
Flags: MW
LayerCount: 2
Fore
SplineSet
533 -30 m 1,0,1
 311.457492931 -14.4531573987 311.457492931 -14.4531573987 194 189 c 0,2,3
 83 381.267857143 83 381.267857143 83 711 c 0,4,5
 83 1035.5 83 1035.5 195 1230.5 c 0,6,7
 312.116088838 1434.4074761 312.116088838 1434.4074761 533 1452 c 1,8,-1
 533 1350 l 1,9,10
 467 1311 467 1311 440 1150.5 c 128,-1,11
 413 990 413 990 413 712.5 c 128,-1,12
 413 435 413 435 440.5 273.5 c 128,-1,13
 468 112 468 112 533 72 c 1,14,-1
 533 -30 l 1,0,1
622 72 m 1,15,16
 686 112 686 112 713 271.5 c 128,-1,17
 740 431 740 431 740 711 c 256,18,19
 740 991 740 991 713 1149 c 128,-1,20
 686 1307 686 1307 622 1349 c 1,21,-1
 622 1452 l 1,22,23
 838.851546894 1432.4638246 838.851546894 1432.4638246 956 1228.5 c 0,24,25
 1069 1031.75892857 1069 1031.75892857 1069 711 c 0,26,27
 1069 387.85840708 1069 387.85840708 955.5 193 c 0,28,29
 837.60761999 -9.39930727363 837.60761999 -9.39930727363 622 -29 c 1,30,-1
 622 72 l 1,15,16
EndSplineSet
EndChar

StartChar: one
Encoding: 49 49 20
Width: 1152
GlyphClass: 2
Flags: MW
LayerCount: 2
Fore
SplineSet
356 1169 m 1,0,1
 302.666666667 1161 302.666666667 1161 212 1161 c 1,2,-1
 212 1245 l 1,3,4
 292.506329114 1281.89873418 292.506329114 1281.89873418 356 1322 c 1,5,-1
 356 1169 l 1,0,1
445 1347 m 1,6,7
 581.759493671 1413.53164557 581.759493671 1413.53164557 611 1434 c 1,8,-1
 759 1434 l 1,9,-1
 759 219 l 2,10,11
 759 137.333333333 759 137.333333333 832.5 110.5 c 0,12,13
 864 99 864 99 900 93 c 128,-1,14
 936 87 936 87 965 74 c 1,15,-1
 965 0 l 1,16,-1
 237 0 l 1,17,-1
 237 74 l 1,18,19
 269 86 269 86 305.5 92 c 128,-1,20
 342 98 342 98 373 110 c 0,21,22
 445 137.870967742 445 137.870967742 445 219 c 2,23,-1
 445 1347 l 1,6,7
EndSplineSet
EndChar

StartChar: two
Encoding: 50 50 21
Width: 1153
GlyphClass: 2
Flags: MW
LayerCount: 2
Fore
SplineSet
92 0 m 1,0,-1
 92 250 l 1,1,2
 172 343 172 343 246.5 421.5 c 128,-1,3
 321 500 321 500 385.5 569 c 128,-1,4
 450 638 450 638 503 700.5 c 128,-1,5
 556 763 556 763 594 824.5 c 0,6,7
 673 952.355263158 673 952.355263158 673 1085 c 0,8,9
 673 1234 673 1234 602.5 1307.5 c 0,10,11
 579 1332 579 1332 549 1344 c 1,12,-1
 549 1452 l 1,13,14
 759.88845419 1447.98307706 759.88845419 1447.98307706 887 1336.5 c 128,-1,15
 1014 1225.1147541 1014 1225.1147541 1014 1047 c 0,16,17
 1014 883.203389831 1014 883.203389831 831 694 c 0,18,19
 750.674698795 610.951807229 750.674698795 610.951807229 596.337349398 469.475903614 c 128,-1,20
 442 328 442 328 340 228 c 1,21,-1
 448 228 l 1,22,-1
 448 0 l 1,23,-1
 92 0 l 1,0,-1
540 228 m 1,24,-1
 640 228 l 2,25,26
 816.172413793 228 816.172413793 228 871 334 c 0,27,28
 886 363 886 363 897.5 392 c 0,29,30
 927.519480519 467.701298701 927.519480519 467.701298701 959 490 c 1,31,-1
 998 490 l 1,32,-1
 998 0 l 1,33,-1
 540 0 l 1,34,-1
 540 228 l 1,24,-1
460 1355 m 1,35,36
 341.813842482 1346.13603819 341.813842482 1346.13603819 294 1271 c 0,37,38
 280 1249 280 1249 277 1225 c 1,39,40
 359.808394161 1219.59945255 359.808394161 1219.59945255 402 1161 c 0,41,42
 435 1115.16666667 435 1115.16666667 435 1067.58333333 c 128,-1,43
 435 1020 435 1020 424 992 c 128,-1,44
 413 964 413 964 392.5 943 c 0,45,46
 349.547619048 899 349.547619048 899 292.273809524 899 c 128,-1,47
 235 899 235 899 202 914 c 128,-1,48
 169 929 169 929 146 955.5 c 0,49,50
 99 1009.65217391 99 1009.65217391 99 1086.82608696 c 128,-1,51
 99 1164 99 1164 124.5 1223.5 c 128,-1,52
 150 1283 150 1283 197 1330 c 0,53,54
 297.458333333 1430.45833333 297.458333333 1430.45833333 460 1452 c 1,55,-1
 460 1355 l 1,35,36
EndSplineSet
EndChar

StartChar: three
Encoding: 51 51 22
Width: 1153
GlyphClass: 2
Flags: MW
LayerCount: 2
Fore
SplineSet
593 1361 m 1,0,1
 458.193548387 1361 458.193548387 1361 424 1255 c 1,2,3
 442 1245 442 1245 465.5 1235.5 c 128,-1,4
 489 1226 489 1226 510.5 1209.5 c 0,5,6
 562 1169.97674419 562 1169.97674419 562 1095 c 0,7,8
 562 981 562 981 463 948 c 0,9,10
 433 938 433 938 398 938 c 128,-1,11
 363 938 363 938 333 950 c 128,-1,12
 303 962 303 962 280.5 986 c 0,13,14
 233 1036.66666667 233 1036.66666667 233 1111.83333333 c 128,-1,15
 233 1187 233 1187 258.5 1241.5 c 128,-1,16
 284 1296 284 1296 331 1339 c 0,17,18
 430.716849452 1430.23030907 430.716849452 1430.23030907 593 1452 c 1,19,-1
 593 1361 l 1,0,1
593 -31 m 1,20,21
 415.654276132 -25.1534376747 415.654276132 -25.1534376747 306 63 c 0,22,23
 201 147.411764706 201 147.411764706 201 279 c 0,24,25
 201 373 201 373 264 427 c 0,26,27
 318.833333333 474 318.833333333 474 397.416666667 474 c 128,-1,28
 476 474 476 474 509.5 435.5 c 128,-1,29
 543 397 543 397 543 335 c 128,-1,30
 543 273 543 273 526 245.5 c 128,-1,31
 509 218 509 218 485.5 203 c 128,-1,32
 462 188 462 188 437 181.5 c 128,-1,33
 412 175 412 175 397 168 c 1,34,35
 407 117 407 117 455 91.5 c 128,-1,36
 503 66 503 66 572 66 c 2,37,-1
 582.5 66 l 2,38,39
 588 66 588 66 593 67 c 1,40,-1
 593 -31 l 1,20,21
798 1079 m 0,41,42
 798 1276 798 1276 682 1334 c 1,43,-1
 682 1452 l 1,44,45
 876.494736842 1452 876.494736842 1452 1004.5 1351.5 c 0,46,47
 1134 1249.82644628 1134 1249.82644628 1134 1094 c 0,48,49
 1134 944.4 1134 944.4 1019 857 c 0,50,51
 937.266832918 794.882793017 937.266832918 794.882793017 788 764 c 1,52,-1
 786 760 l 1,53,54
 961.8812074 736.549172347 961.8812074 736.549172347 1056.5 664.5 c 0,55,56
 1176 573.504587156 1176 573.504587156 1176 399 c 0,57,58
 1176 222.106870229 1176 222.106870229 1038.5 103.5 c 0,59,60
 901.214298246 -14.9220175439 901.214298246 -14.9220175439 682 -29 c 1,61,-1
 682 89 l 1,62,63
 821 152.864864865 821 152.864864865 821 381 c 0,64,65
 821 638.194174757 821 638.194174757 660.5 686.5 c 0,66,67
 609 702 609 702 544 702 c 2,68,-1
 482 702 l 2,69,70
 456 702 456 702 442.5 718 c 128,-1,71
 429 734 429 734 429 753 c 256,72,73
 429 772 429 772 442.5 789.5 c 128,-1,74
 456 807 456 807 482 807 c 2,75,-1
 548 807 l 2,76,77
 798 807 798 807 798 1079 c 0,41,42
EndSplineSet
EndChar

StartChar: four
Encoding: 52 52 23
Width: 1152
GlyphClass: 2
Flags: MW
LayerCount: 2
Fore
SplineSet
472 938 m 1,0,-1
 175 500 l 1,1,-1
 472 500 l 1,2,-1
 472 383 l 1,3,-1
 39 383 l 1,4,-1
 39 510 l 1,5,-1
 472 1136 l 1,6,-1
 472 938 l 1,0,-1
973 500 m 1,7,-1
 1152 500 l 1,8,-1
 1152 383 l 1,9,-1
 973 383 l 1,10,-1
 973 500 l 1,7,-1
885 172 m 2,11,12
 885 118.069767442 885 118.069767442 934.5 98.5 c 0,13,14
 956 90 956 90 981.5 82.5 c 128,-1,15
 1007 75 1007 75 1030 57 c 1,16,-1
 1030 0 l 1,17,-1
 389 0 l 1,18,-1
 389 74 l 1,19,20
 418 86 418 86 448.5 92.5 c 128,-1,21
 479 99 479 99 504 110 c 0,22,23
 561 135.08 561 135.08 561 207 c 2,24,-1
 561 1264 l 1,25,-1
 675 1430 l 1,26,-1
 885 1430 l 1,27,-1
 885 172 l 2,11,12
EndSplineSet
EndChar

StartChar: five
Encoding: 53 53 24
Width: 1153
GlyphClass: 2
Flags: MW
LayerCount: 2
Fore
SplineSet
443 -20 m 1,0,1
 287.367739794 -8.32758048457 287.367739794 -8.32758048457 191.5 80 c 0,2,3
 99 165.224719101 99 165.224719101 99 290 c 0,4,5
 99 421.846153846 99 421.846153846 206.5 466.5 c 0,6,7
 239 480 239 480 278 480 c 128,-1,8
 317 480 317 480 346.5 468 c 128,-1,9
 376 456 376 456 396 436 c 0,10,11
 436 396 436 396 436 331 c 0,12,13
 436 270 436 270 368 236 c 0,14,15
 325.454545455 214.727272727 325.454545455 214.727272727 312.727272727 201.363636364 c 128,-1,16
 300 188 300 188 300 169 c 128,-1,17
 300 150 300 150 311 131.5 c 128,-1,18
 322 113 322 113 341 100.5 c 0,19,20
 381.188202247 74.0603932584 381.188202247 74.0603932584 443 72 c 1,21,-1
 443 -20 l 1,0,1
758 1137 m 1,22,23
 529 1137 529 1137 279 1147 c 1,24,-1
 279 682 l 2,25,26
 279 613 279 613 220 613 c 128,-1,27
 161 613 161 613 161 692 c 1,28,-1
 166 770 l 1,29,-1
 167 1425 l 1,30,31
 392.6 1401 392.6 1401 612.3 1401 c 128,-1,32
 832 1401 832 1401 887 1456 c 1,33,34
 917 1456 917 1456 938 1446 c 1,35,36
 938 1207.58823529 938 1207.58823529 758 1137 c 1,22,23
567.5 781 m 128,-1,38
 525 803 525 803 469.833333333 803 c 128,-1,39
 414.666666667 803 414.666666667 803 368 775 c 1,40,-1
 368 884 l 1,41,42
 451.6 928 451.6 928 550.8 928 c 128,-1,43
 650 928 650 928 741 894 c 128,-1,44
 832 860 832 860 899.5 799 c 0,45,46
 1045 667.511111111 1045 667.511111111 1045 463 c 0,47,48
 1045 255.444444444 1045 255.444444444 902.5 123.5 c 0,49,50
 762.827508455 -5.82638105975 762.827508455 -5.82638105975 532 -20 c 1,51,-1
 532 87 l 1,52,53
 616 117 616 117 659.5 205.5 c 128,-1,54
 703 294 703 294 703 408 c 128,-1,55
 703 522 703 522 686.5 594 c 128,-1,56
 670 666 670 666 640 712.5 c 128,-1,37
 610 759 610 759 567.5 781 c 128,-1,38
EndSplineSet
EndChar

StartChar: six
Encoding: 54 54 25
Width: 1153
GlyphClass: 2
Flags: MW
LayerCount: 2
Fore
SplineSet
694 1169 m 0,0,1
 694 1267.33333333 694 1267.33333333 787 1319 c 1,2,3
 787 1336 787 1336 746 1351 c 128,-1,4
 705 1366 705 1366 636 1366 c 1,5,-1
 636 1452 l 1,6,7
 811.309859155 1448.18891611 811.309859155 1448.18891611 913 1367.5 c 0,8,9
 1005 1294.5 1005 1294.5 1005 1196 c 0,10,11
 1005 1084.46666667 1005 1084.46666667 914 1042 c 0,12,13
 884 1028 884 1028 845.5 1028 c 128,-1,14
 807 1028 807 1028 779 1040 c 128,-1,15
 751 1052 751 1052 732 1072 c 0,16,17
 694 1112 694 1112 694 1169 c 0,0,1
525 875 m 1,18,19
 590.875 909 590.875 909 680.9375 909 c 128,-1,20
 771 909 771 909 846.5 868 c 128,-1,21
 922 827 922 827 972.5 760 c 0,22,23
 1072 627.99009901 1072 627.99009901 1072 434 c 0,24,25
 1072 255.787610619 1072 255.787610619 956.5 127 c 0,26,27
 831.543870968 -12.3316129032 831.543870968 -12.3316129032 636 -20 c 1,28,-1
 636 72 l 1,29,30
 689 91 689 91 712 182 c 128,-1,31
 735 273 735 273 735 404.5 c 128,-1,32
 735 536 735 536 727 602.5 c 128,-1,33
 719 669 719 669 702 712.5 c 0,34,35
 668.977011494 797 668.977011494 797 588 797 c 0,36,37
 550 797 550 797 525 784 c 1,38,-1
 525 875 l 1,18,19
547 1341 m 1,39,40
 436 1239.25 436 1239.25 436 817 c 2,41,-1
 436 468 l 2,42,43
 436 273.923076923 436 273.923076923 454 207.461538462 c 128,-1,44
 472 141 472 141 493.5 112 c 128,-1,45
 515 83 515 83 547 71 c 1,46,-1
 547 -20 l 1,47,48
 321.393832963 6.9956097309 321.393832963 6.9956097309 200.5 198.5 c 0,49,50
 88 376.707964602 88 376.707964602 88 651 c 0,51,52
 88 954.102564103 88 954.102564103 206 1178 c 0,53,54
 285.151898734 1328.18565401 285.151898734 1328.18565401 410 1402.5 c 0,55,56
 473 1440 473 1440 547 1452 c 1,57,-1
 547 1341 l 1,39,40
EndSplineSet
EndChar

StartChar: seven
Encoding: 55 55 26
Width: 1153
GlyphClass: 2
Flags: MW
LayerCount: 2
Fore
SplineSet
157 1436 m 1,0,1
 294.5 1421 294.5 1421 330.25 1421 c 2,2,-1
 979 1421 l 1,3,-1
 775 1163 l 1,4,-1
 567 1163 l 2,5,6
 378.344827586 1163 378.344827586 1163 308 1061 c 0,7,8
 283.257731959 1025.12371134 283.257731959 1025.12371134 256.628865979 968.06185567 c 128,-1,9
 230 911 230 911 209 887 c 1,10,-1
 157 887 l 1,11,-1
 157 1436 l 1,0,1
556 -21 m 0,12,13
 369 -21 369 -21 369 195 c 0,14,15
 369 440.481283422 369 440.481283422 691.5 897.5 c 0,16,17
 785 1030 785 1030 887 1163 c 2,18,-1
 1084 1421 l 1,19,-1
 1084 1264 l 1,20,21
 912.095399762 1038.66559158 912.095399762 1038.66559158 844.047699881 895.83279579 c 128,-1,22
 776 753 776 753 746 641.5 c 128,-1,23
 716 530 716 530 716 413 c 1,24,-1
 727 179 l 1,25,26
 727 -21 727 -21 556 -21 c 0,12,13
EndSplineSet
EndChar

StartChar: eight
Encoding: 56 56 27
Width: 1152
GlyphClass: 2
Flags: MW
LayerCount: 2
Fore
SplineSet
717 905 m 1,0,1
 782 973.611111111 782 973.611111111 782 1109 c 0,2,3
 782 1260.72307692 782 1260.72307692 685.5 1330.5 c 0,4,5
 653 1354 653 1354 610 1360 c 1,6,-1
 610 1452 l 1,7,8
 785.540559943 1441.67408471 785.540559943 1441.67408471 890.5 1352 c 0,9,10
 1000 1258.44660194 1000 1258.44660194 1000 1102 c 0,11,12
 1000 968.741935484 1000 968.741935484 901 890.5 c 0,13,14
 870 866 870 866 832 844 c 1,15,-1
 717 905 l 1,0,1
393 560 m 1,16,17
 316 475 316 475 316 350 c 0,18,19
 316 190 316 190 425.5 109 c 0,20,21
 462 82 462 82 511 72 c 1,22,-1
 511 -20 l 1,23,24
 330.621200312 -11.6102883866 330.621200312 -11.6102883866 210 85.5 c 0,25,26
 81 189.355932203 81 189.355932203 81 352 c 0,27,28
 81 507.666666667 81 507.666666667 277 629 c 1,29,-1
 393 560 l 1,16,17
467.5 609.5 m 128,-1,31
 426 629 426 629 367.5 663.5 c 128,-1,32
 309 698 309 698 255.5 745.5 c 128,-1,33
 202 793 202 793 170.5 841.5 c 0,34,35
 115 926.952380952 115 926.952380952 115 1025.97619048 c 128,-1,36
 115 1125 115 1125 143.5 1195.5 c 128,-1,37
 172 1266 172 1266 224.5 1320 c 0,38,39
 337.663659794 1436.39690722 337.663659794 1436.39690722 521 1452 c 1,40,-1
 521 1361 l 1,41,42
 454 1350 454 1350 412.5 1298 c 128,-1,43
 371 1246 371 1246 371 1167.5 c 128,-1,44
 371 1089 371 1089 404.5 1039.5 c 128,-1,45
 438 990 438 990 487 952 c 128,-1,46
 536 914 536 914 592.5 885.5 c 128,-1,47
 649 857 649 857 718.5 822.5 c 128,-1,48
 788 788 788 788 856 744.5 c 128,-1,49
 924 701 924 701 968 652 c 0,50,51
 1055 555.113636364 1055 555.113636364 1055 410 c 0,52,53
 1055 233.15 1055 233.15 929 114.5 c 0,54,55
 803.265761026 -3.89974170095 803.265761026 -3.89974170095 600 -20 c 1,56,-1
 600 72 l 1,57,58
 683.057692308 85.2137237762 683.057692308 85.2137237762 731 149.5 c 0,59,60
 774 207.159090909 774 207.159090909 774 277.579545455 c 128,-1,61
 774 348 774 348 755 388 c 128,-1,62
 736 428 736 428 705 460.5 c 128,-1,63
 674 493 674 493 633.5 519.5 c 128,-1,64
 593 546 593 546 551 568 c 128,-1,30
 509 590 509 590 467.5 609.5 c 128,-1,31
EndSplineSet
EndChar

StartChar: nine
Encoding: 57 57 28
Width: 1153
GlyphClass: 2
Flags: MW
LayerCount: 2
Fore
SplineSet
422 263 m 0,0,1
 422 158 422 158 332 113 c 1,2,3
 332 79.5517241379 332 79.5517241379 434 69 c 0,4,5
 463 66 463 66 493 66 c 1,6,-1
 493 -20 l 1,7,8
 307.622377622 -16.2167832168 307.622377622 -16.2167832168 202 63 c 0,9,10
 106 135 106 135 106 234 c 0,11,12
 106 347.555555556 106 347.555555556 201.5 390 c 0,13,14
 233 404 233 404 272 404 c 128,-1,15
 311 404 311 404 338.5 392 c 128,-1,16
 366 380 366 380 384.5 360.5 c 0,17,18
 422 320.972972973 422 320.972972973 422 263 c 0,0,1
488 648.5 m 0,19,20
 516 629 516 629 550.5 629 c 128,-1,21
 585 629 585 629 618 638 c 1,22,-1
 618 548 l 1,23,24
 547.142857143 516 547.142857143 516 462.571428571 516 c 128,-1,25
 378 516 378 516 303 554.5 c 128,-1,26
 228 593 228 593 176.5 656.5 c 0,27,28
 71 786.582524272 71 786.582524272 71 977 c 0,29,30
 71 1157.85344828 71 1157.85344828 192 1294.5 c 0,31,32
 319.521331125 1438.51115843 319.521331125 1438.51115843 518 1452 c 1,33,-1
 518 1357 l 1,34,35
 408 1307.68965517 408 1307.68965517 408 971 c 0,36,37
 408 704.214285714 408 704.214285714 488 648.5 c 0,19,20
707 1006 m 2,38,39
 707 1313.06122449 707 1313.06122449 607 1360 c 1,40,-1
 607 1452 l 1,41,42
 825.764634639 1429.17238595 825.764634639 1429.17238595 947 1230 c 0,43,44
 1058 1047.64285714 1058 1047.64285714 1058 768 c 0,45,46
 1058 464.8125 1058 464.8125 937 245.5 c 0,47,48
 808.110258869 11.8873441994 808.110258869 11.8873441994 582 -20 c 1,49,-1
 582 76 l 1,50,51
 707 147.428571429 707 147.428571429 707 567 c 2,52,-1
 707 1006 l 2,38,39
EndSplineSet
EndChar

StartChar: colon
Encoding: 58 58 29
Width: 576
GlyphClass: 2
Flags: MW
LayerCount: 2
Fore
SplineSet
119 158 m 256,0,1
 119 232.333333333 119 232.333333333 166.5 283 c 0,2,3
 214.3125 334 214.3125 334 288 334 c 256,4,5
 361.6875 334 361.6875 334 409.5 283 c 0,6,7
 457 232.333333333 457 232.333333333 457 158 c 256,8,9
 457 83.6666666667 457 83.6666666667 409.5 33 c 0,10,11
 361.6875 -18 361.6875 -18 288 -18 c 256,12,13
 214.3125 -18 214.3125 -18 166.5 33 c 0,14,15
 119 83.6666666667 119 83.6666666667 119 158 c 256,0,1
119 782 m 256,16,17
 119 856.333333333 119 856.333333333 166.5 907 c 0,18,19
 214.3125 958 214.3125 958 288 958 c 256,20,21
 361.6875 958 361.6875 958 409.5 907 c 0,22,23
 457 856.333333333 457 856.333333333 457 782 c 256,24,25
 457 707.666666667 457 707.666666667 409.5 657 c 0,26,27
 361.6875 606 361.6875 606 288 606 c 256,28,29
 214.3125 606 214.3125 606 166.5 657 c 0,30,31
 119 707.666666667 119 707.666666667 119 782 c 256,16,17
EndSplineSet
EndChar

StartChar: semicolon
Encoding: 59 59 30
Width: 577
GlyphClass: 2
Flags: MW
LayerCount: 2
Fore
SplineSet
129 -319 m 1,0,1
 156 -286 156 -286 187.5 -250.5 c 128,-1,2
 219 -215 219 -215 246.5 -178 c 0,3,4
 310.784565916 -91.5080385852 310.784565916 -91.5080385852 321 -20 c 1,5,6
 215 -14 215 -14 163 33.5 c 128,-1,7
 111 81 111 81 111 160 c 0,8,9
 111 230.777777778 111 230.777777778 158.5 282.5 c 0,10,11
 207.632653061 336 207.632653061 336 269.816326531 336 c 128,-1,12
 332 336 332 336 367.5 317 c 128,-1,13
 403 298 403 298 427 265.5 c 0,14,15
 475 200.5 475 200.5 475 123.25 c 128,-1,16
 475 46 475 46 456 -13 c 128,-1,17
 437 -72 437 -72 402 -133 c 0,18,19
 329.291803279 -259.72 329.291803279 -259.72 210 -381 c 1,20,-1
 129 -319 l 1,0,1
120 782 m 256,21,22
 120 855.727272727 120 855.727272727 167 907 c 0,23,24
 213.75 958 213.75 958 289 958 c 0,25,26
 361.6875 958 361.6875 958 409.5 907 c 0,27,28
 457 856.333333333 457 856.333333333 457 782 c 256,29,30
 457 707.666666667 457 707.666666667 409.5 657 c 0,31,32
 361.6875 606 361.6875 606 289 606 c 0,33,34
 174.296875 606 174.296875 606 132.5 713 c 0,35,36
 120 745 120 745 120 782 c 256,21,22
EndSplineSet
EndChar

StartChar: less
Encoding: 60 60 31
Width: 1384
GlyphClass: 2
Flags: MW
LayerCount: 2
Fore
SplineSet
225 381 m 1,0,-1
 139 412 l 1,1,-1
 139 569 l 1,2,-1
 1245 997 l 1,3,-1
 1245 772 l 1,4,-1
 225 381 l 1,0,-1
641 428 m 1,5,-1
 1245 207 l 1,6,-1
 1245 -16 l 1,7,-1
 357 319 l 1,8,-1
 641 428 l 1,5,-1
EndSplineSet
EndChar

StartChar: equal
Encoding: 61 61 32
Width: 1383
GlyphClass: 2
Flags: MW
LayerCount: 2
Fore
SplineSet
1243 594 m 1,0,-1
 139 594 l 1,1,-1
 139 809 l 1,2,-1
 1243 809 l 1,3,-1
 1243 594 l 1,0,-1
1243 170 m 1,4,-1
 139 170 l 1,5,-1
 139 385 l 1,6,-1
 1243 385 l 1,7,-1
 1243 170 l 1,4,-1
EndSplineSet
EndChar

StartChar: greater
Encoding: 62 62 33
Width: 1384
GlyphClass: 2
Flags: MW
LayerCount: 2
Fore
SplineSet
1159 600 m 1,0,-1
 1245 569 l 1,1,-1
 1245 412 l 1,2,-1
 139 -16 l 1,3,-1
 139 209 l 1,4,-1
 1159 600 l 1,0,-1
743 553 m 1,5,-1
 139 774 l 1,6,-1
 139 997 l 1,7,-1
 1027 662 l 1,8,-1
 743 553 l 1,5,-1
EndSplineSet
EndChar

StartChar: question
Encoding: 63 63 34
Width: 1109
GlyphClass: 2
Flags: MW
LayerCount: 2
Fore
SplineSet
467 1349 m 1,0,1
 365.956914524 1339.09381515 365.956914524 1339.09381515 348 1274 c 1,2,3
 427.467048711 1262.64756447 427.467048711 1262.64756447 457 1191.5 c 0,4,5
 468 1165 468 1165 468 1112 c 128,-1,6
 468 1059 468 1059 425 1019 c 128,-1,7
 382 979 382 979 304 979 c 0,8,9
 232.829787234 979 232.829787234 979 189 1030.5 c 0,10,11
 147 1079.85 147 1079.85 147 1146.425 c 128,-1,12
 147 1213 147 1213 171.5 1264 c 128,-1,13
 196 1315 196 1315 239.5 1352.5 c 0,14,15
 327.865731463 1428.67735471 327.865731463 1428.67735471 467 1443 c 1,16,-1
 467 1349 l 1,0,1
556 1445 m 1,17,18
 843.546781883 1434.35011919 843.546781883 1434.35011919 947.5 1253.5 c 0,19,20
 984 1190 984 1190 984 1109 c 128,-1,21
 984 1028 984 1028 953.5 975 c 128,-1,22
 923 922 923 922 877 879.5 c 128,-1,23
 831 837 831 837 777.5 800.5 c 128,-1,24
 724 764 724 764 678 723 c 0,25,26
 571 627.630434783 571 627.630434783 571 510 c 2,27,-1
 571 420 l 1,28,-1
 457 420 l 1,29,-1
 457 516 l 2,30,31
 457 643.384615385 457 643.384615385 558 791 c 128,-1,32
 659 938.615384615 659 938.615384615 659 1090 c 0,33,34
 659 1291 659 1291 555 1338 c 1,35,-1
 556 1445 l 1,17,18
360.5 82 m 0,36,37
 348 114 348 114 348 151.5 c 128,-1,38
 348 189 348 189 360.5 221 c 128,-1,39
 373 253 373 253 395 277 c 0,40,41
 441.75 328 441.75 328 517 328 c 0,42,43
 590.25 328 590.25 328 637 277 c 0,44,45
 684 225.727272727 684 225.727272727 684 152 c 0,46,47
 684 77.2727272727 684 77.2727272727 637 26 c 0,48,49
 590.25 -25 590.25 -25 517 -25 c 0,50,51
 402.296875 -25 402.296875 -25 360.5 82 c 0,36,37
EndSplineSet
EndChar

StartChar: at
Encoding: 64 64 35
Width: 1844
GlyphClass: 2
Flags: MW
LayerCount: 2
Fore
SplineSet
1016 129 m 1,0,1
 1256.67917676 132.252421308 1256.67917676 132.252421308 1467 229 c 1,2,-1
 1489 102 l 1,3,4
 1241.11685261 -24.2800939518 1241.11685261 -24.2800939518 1016 -31 c 1,5,-1
 1016 129 l 1,0,1
927 -29 m 1,6,7
 522.672790722 -9.48075541414 522.672790722 -9.48075541414 289.5 230.5 c 0,8,9
 88 437.883211679 88 437.883211679 88 678 c 0,10,11
 88 896.281818182 88 896.281818182 204 1074.5 c 0,12,13
 313.872856868 1243.30466191 313.872856868 1243.30466191 506 1343.5 c 0,14,15
 696.779079819 1442.99231582 696.779079819 1442.99231582 927 1451 c 1,16,-1
 927 1291 l 1,17,18
 692.449477352 1277.96941541 692.449477352 1277.96941541 542.5 1129 c 0,19,20
 374 961.60130719 374 961.60130719 374 672 c 0,21,22
 374 453.6 374 453.6 544.5 298.5 c 0,23,24
 704.452224545 152.995073156 704.452224545 152.995073156 927 132 c 1,25,-1
 927 -29 l 1,6,7
1280 508 m 0,26,27
 1280 412 1280 412 1349 412 c 256,28,29
 1387 412 1387 412 1427.5 447 c 128,-1,30
 1468 482 1468 482 1501 539 c 0,31,32
 1577 670.272727273 1577 670.272727273 1577 815 c 0,33,34
 1577 992.479452055 1577 992.479452055 1426 1129 c 0,35,36
 1264.93051702 1274.62446406 1264.93051702 1274.62446406 1017 1290 c 1,37,-1
 1016 1451 l 1,38,39
 1333.198625 1436.94689636 1333.198625 1436.94689636 1544.5 1257.5 c 0,40,41
 1644 1173 1644 1173 1700.5 1060 c 128,-1,42
 1757 947 1757 947 1757 817 c 0,43,44
 1757 636.986842105 1757 636.986842105 1640 481.5 c 0,45,46
 1560.21792856 375.473826106 1560.21792856 375.473826106 1441 331.5 c 0,47,48
 1380 309 1380 309 1314.5 309 c 128,-1,49
 1249 309 1249 309 1207.5 328 c 128,-1,50
 1166 347 1166 347 1140.5 372.5 c 0,51,52
 1093 420 1093 420 1093 463 c 1,53,-1
 1089 463 l 1,54,55
 1071.68219178 422.591780822 1071.68219178 422.591780822 1016.84109589 384.795890411 c 0,56,57
 906.862745098 309 906.862745098 309 812 309 c 0,58,59
 659.705882353 309 659.705882353 309 600 454 c 0,60,61
 579 505 579 505 579 566.5 c 128,-1,62
 579 628 579 628 592.5 686.5 c 128,-1,63
 606 745 606 745 632.5 803.5 c 128,-1,64
 659 862 659 862 698 916 c 128,-1,65
 737 970 737 970 788.5 1011 c 0,66,67
 902.804878049 1102 902.804878049 1102 1043 1102 c 0,68,69
 1101.66666667 1102 1101.66666667 1102 1155 1070 c 1,70,-1
 1117 959 l 1,71,72
 1095 973 1095 973 1058.5 973 c 128,-1,73
 1022 973 1022 973 976 943 c 128,-1,74
 930 913 930 913 891 861.5 c 0,75,76
 801 742.653846154 801 742.653846154 801 592 c 0,77,78
 801 523 801 523 825 480.5 c 128,-1,79
 849 438 849 438 896 438 c 128,-1,80
 943 438 943 438 983 470 c 128,-1,81
 1023 502 1023 502 1054.5 552 c 0,82,83
 1109.59624413 639.454355764 1109.59624413 639.454355764 1154 785 c 2,84,-1
 1241 1069 l 1,85,-1
 1423 1069 l 1,86,-1
 1289 573 l 1,87,88
 1280 547.285714286 1280 547.285714286 1280 508 c 0,26,27
EndSplineSet
EndChar

StartChar: A
Encoding: 65 65 36
Width: 1343
GlyphClass: 2
Flags: MW
LayerCount: 2
Fore
SplineSet
496 1205 m 1,0,-1
 352 1249 l 1,1,2
 358 1291 358 1291 360 1324.5 c 128,-1,3
 362 1358 362 1358 368 1384 c 1,4,5
 455.260869565 1422.7826087 455.260869565 1422.7826087 657 1448 c 0,6,7
 689 1452 689 1452 713 1452 c 1,8,9
 737.722891566 1421.78313253 737.722891566 1421.78313253 749 1395 c 2,10,-1
 1212 229 l 2,11,12
 1242 152 1242 152 1281.5 115.5 c 128,-1,13
 1321 79 1321 79 1381 74 c 1,14,-1
 1381 0 l 1,15,-1
 742 0 l 1,16,-1
 742 63 l 1,17,18
 767 78 767 78 793.5 85.5 c 128,-1,19
 820 93 820 93 841.5 99.5 c 0,20,21
 890 114.162790698 890 114.162790698 890 150 c 0,22,23
 890 170.142857143 890 170.142857143 871 219 c 2,24,-1
 496 1205 l 1,0,-1
513 896 m 1,25,-1
 288 252 l 2,26,27
 272 207 272 207 272 177 c 128,-1,28
 272 147 272 147 289 130.5 c 128,-1,29
 306 114 306 114 331.5 104.5 c 128,-1,30
 357 95 357 95 386 88 c 128,-1,31
 415 81 415 81 440 68 c 1,32,-1
 440 0 l 1,33,-1
 -39 0 l 1,34,-1
 -39 68 l 1,35,36
 -19 81 -19 81 4.5 89 c 128,-1,37
 28 97 28 97 51.5 110.5 c 0,38,39
 107.869641809 142.882560188 107.869641809 142.882560188 136 219 c 2,40,-1
 447 1073 l 1,41,-1
 513 896 l 1,25,-1
693 426 m 1,42,-1
 447 426 l 1,43,-1
 480 532 l 1,44,-1
 653 532 l 1,45,-1
 693 426 l 1,42,-1
EndSplineSet
EndChar

StartChar: B
Encoding: 66 66 37
Width: 1408
GlyphClass: 2
Flags: MW
LayerCount: 2
Fore
SplineSet
621 801 m 1,0,1
 901 801 901 801 901 1065 c 0,2,3
 901 1253.74226804 901 1253.74226804 757.5 1307 c 0,4,5
 709 1325 709 1325 673.5 1325 c 2,6,-1
 632 1325 l 2,7,8
 626 1325 626 1325 621 1324 c 1,9,-1
 621 1421 l 1,10,-1
 793 1421 l 2,11,12
 1031 1421 1031 1421 1144.5 1332.5 c 128,-1,13
 1258 1244 1258 1244 1258 1081 c 0,14,15
 1258 942.5 1258 942.5 1154 858 c 0,16,17
 1062.36363636 783.545454545 1062.36363636 783.545454545 906 764 c 1,18,-1
 906 760 l 1,19,20
 1093.26958993 753.542427933 1093.26958993 753.542427933 1210 665.5 c 0,21,22
 1339 568.203389831 1339 568.203389831 1339 397 c 0,23,24
 1339 223.411764706 1339 223.411764706 1205 117 c 0,25,26
 1057.66666667 6.39488462184e-14 1057.66666667 6.39488462184e-14 785 0 c 2,27,-1
 621 0 l 1,28,-1
 621 110 l 1,29,30
 638 106 638 106 673 106 c 0,31,32
 971 106 971 106 971 397 c 128,-1,33
 971 688 971 688 621 688 c 1,34,-1
 621 801 l 1,0,1
532 0 m 1,35,-1
 57 0 l 1,36,-1
 57 74 l 1,37,38
 84 85 84 85 109.5 90.5 c 128,-1,39
 135 96 135 96 155.5 106 c 0,40,41
 200 127.707317073 200 127.707317073 200 190 c 2,42,-1
 200 1229 l 2,43,44
 200 1292.29268293 200 1292.29268293 155.5 1314 c 0,45,46
 135 1324 135 1324 109.5 1329.5 c 128,-1,47
 84 1335 84 1335 57 1346 c 1,48,-1
 57 1421 l 1,49,-1
 532 1421 l 1,50,-1
 532 0 l 1,35,-1
EndSplineSet
EndChar

StartChar: C
Encoding: 67 67 38
Width: 1282
GlyphClass: 2
Flags: MW
LayerCount: 2
Fore
SplineSet
762 108 m 1,0,1
 886.808823529 109.808823529 886.808823529 109.808823529 964.5 187.5 c 0,2,3
 1063.44827586 286.448275862 1063.44827586 286.448275862 1078 512 c 1,4,-1
 1193 473 l 1,5,6
 1164.88176648 139.095976971 1164.88176648 139.095976971 953.5 26 c 0,7,8
 875 -16 875 -16 762 -20 c 1,9,-1
 762 108 l 1,0,1
428 723 m 0,10,11
 428 162.044117647 428 162.044117647 673 108 c 1,12,-1
 673 -20 l 1,13,14
 394.761709868 -8.16007276035 394.761709868 -8.16007276035 224.5 197 c 0,15,16
 57 398.832298137 57 398.832298137 57 709 c 0,17,18
 57 1030.4 57 1030.4 232.5 1241 c 0,19,20
 315 1340 315 1340 428 1396 c 128,-1,21
 541 1452 541 1452 673 1452 c 1,22,-1
 673 1324 l 1,23,24
 476.125407387 1293.49830255 476.125407387 1293.49830255 439.5 957.5 c 0,25,26
 428 852 428 852 428 723 c 0,10,11
762 1452 m 1,27,28
 844.457786116 1440.45590994 844.457786116 1440.45590994 900.728893058 1413.22795497 c 128,-1,29
 957 1386 957 1386 977.5 1375 c 128,-1,30
 998 1364 998 1364 1012 1364 c 128,-1,31
 1026 1364 1026 1364 1036.5 1380 c 128,-1,32
 1047 1396 1047 1396 1059 1421 c 1,33,-1
 1154 1421 l 1,34,-1
 1154 905 l 1,35,-1
 1078 905 l 1,36,37
 1052.84455959 940.21761658 1052.84455959 940.21761658 1019.92227979 1021.60880829 c 128,-1,38
 987 1103 987 1103 965.5 1148 c 128,-1,39
 944 1193 944 1193 915.5 1230 c 0,40,41
 851.353782013 1313.27754616 851.353782013 1313.27754616 762 1324 c 1,42,-1
 762 1452 l 1,27,28
EndSplineSet
EndChar

StartChar: D
Encoding: 68 68 39
Width: 1515
GlyphClass: 2
Flags: MW
LayerCount: 2
Fore
SplineSet
539 0 m 1,0,-1
 64 0 l 1,1,-1
 64 74 l 1,2,3
 91 85 91 85 116.5 90.5 c 128,-1,4
 142 96 142 96 162.5 106 c 0,5,6
 207 127.707317073 207 127.707317073 207 190 c 2,7,-1
 207 1229 l 2,8,9
 207 1292.29268293 207 1292.29268293 162.5 1314 c 0,10,11
 142 1324 142 1324 116.5 1329.5 c 128,-1,12
 91 1335 91 1335 64 1346 c 1,13,-1
 64 1421 l 1,14,-1
 539 1421 l 1,15,-1
 539 0 l 1,0,-1
868 1288.5 m 128,-1,17
 799 1325 799 1325 727.5 1325 c 128,-1,18
 656 1325 656 1325 628 1321 c 1,19,-1
 628 1421 l 1,20,-1
 726 1421 l 2,21,22
 1080.69402985 1421 1080.69402985 1421 1269.5 1201 c 0,23,24
 1438 1004.66086957 1438 1004.66086957 1438 711 c 0,25,26
 1438 405.942857143 1438 405.942857143 1263.5 211.5 c 0,27,28
 1073.69230769 1.70530256582e-13 1073.69230769 1.70530256582e-13 737 0 c 2,29,-1
 628 0 l 1,30,-1
 628 100 l 1,31,32
 660 96 660 96 728 96 c 128,-1,33
 796 96 796 96 865.5 126.5 c 128,-1,34
 935 157 935 157 980 229 c 0,35,36
 1067 368.2 1067 368.2 1067 711 c 0,37,38
 1067 1030.40909091 1067 1030.40909091 981 1177 c 0,39,16
 937 1252 937 1252 868 1288.5 c 128,-1,17
EndSplineSet
EndChar

StartChar: E
Encoding: 69 69 40
Width: 1344
GlyphClass: 2
Flags: MW
LayerCount: 2
Fore
SplineSet
550 1421 m 1,0,-1
 550 0 l 1,1,-1
 77 0 l 1,2,-1
 77 74 l 1,3,4
 104 85 104 85 129.5 90.5 c 128,-1,5
 155 96 155 96 175 106 c 0,6,7
 220 128.5 220 128.5 220 190 c 2,8,-1
 220 1229 l 2,9,10
 220 1291.5 220 1291.5 175 1314 c 0,11,12
 155 1324 155 1324 129.5 1329.5 c 128,-1,13
 104 1335 104 1335 77 1346 c 1,14,-1
 77 1421 l 1,15,-1
 550 1421 l 1,0,-1
639 100 m 1,16,17
 689 96 689 96 766 96 c 128,-1,18
 843 96 843 96 904.5 120 c 128,-1,19
 966 144 966 144 1004.5 181.5 c 128,-1,20
 1043 219 1043 219 1065 265 c 128,-1,21
 1087 311 1087 311 1103 355.5 c 128,-1,22
 1119 400 1119 400 1135.5 437.5 c 128,-1,23
 1152 475 1152 475 1181 496 c 1,24,-1
 1249 496 l 1,25,-1
 1249 0 l 1,26,-1
 639 0 l 1,27,-1
 639 100 l 1,16,17
861.5 1304 m 128,-1,29
 809 1325 809 1325 739 1325 c 128,-1,30
 669 1325 669 1325 639 1322 c 1,31,-1
 639 1421 l 1,32,-1
 865 1421 l 2,33,34
 1089.72727273 1421 1089.72727273 1421 1192 1436 c 1,35,-1
 1192 952 l 1,36,-1
 1122 952 l 1,37,38
 1097 976 1097 976 1080 1013 c 128,-1,39
 1063 1050 1063 1050 1045.5 1091.5 c 128,-1,40
 1028 1133 1028 1133 1006 1174.5 c 128,-1,41
 984 1216 984 1216 949 1249.5 c 128,-1,28
 914 1283 914 1283 861.5 1304 c 128,-1,29
639 846 m 1,42,-1
 972 846 l 1,43,-1
 972 590 l 1,44,-1
 639 590 l 1,45,-1
 639 846 l 1,42,-1
EndSplineSet
EndChar

StartChar: F
Encoding: 70 70 41
Width: 1238
GlyphClass: 2
Flags: MW
LayerCount: 2
Fore
SplineSet
539 1421 m 1,0,-1
 539 244 l 2,1,2
 539 162.791666667 539 162.791666667 557.5 138.895833333 c 128,-1,3
 576 115 576 115 592.5 108.5 c 128,-1,4
 609 102 609 102 628.5 98 c 128,-1,5
 648 94 648 94 670.5 89.5 c 128,-1,6
 693 85 693 85 717 74 c 1,7,-1
 717 0 l 1,8,-1
 64 0 l 1,9,-1
 64 74 l 1,10,11
 91 85 91 85 116.5 90.5 c 128,-1,12
 142 96 142 96 162.5 106 c 0,13,14
 207 127.707317073 207 127.707317073 207 190 c 2,15,-1
 207 1184 l 2,16,17
 207 1263.2 207 1263.2 191 1285.6 c 128,-1,18
 175 1308 175 1308 161.5 1314 c 128,-1,19
 148 1320 148 1320 132 1323 c 0,20,21
 86.304 1331.568 86.304 1331.568 64 1346 c 1,22,-1
 64 1421 l 1,23,-1
 539 1421 l 1,0,-1
935 1421 m 2,24,25
 1105.27272727 1421 1105.27272727 1421 1183 1436 c 1,26,-1
 1183 952 l 1,27,-1
 1113 952 l 1,28,29
 1083 977 1083 977 1066 1014.5 c 128,-1,30
 1049 1052 1049 1052 1033 1093.5 c 128,-1,31
 1017 1135 1017 1135 996.5 1176 c 128,-1,32
 976 1217 976 1217 938.5 1250.5 c 0,33,34
 855.104477612 1325 855.104477612 1325 687 1325 c 0,35,36
 655 1325 655 1325 628 1322 c 1,37,-1
 628 1421 l 1,38,-1
 935 1421 l 2,24,25
628 795 m 1,39,-1
 681 799 l 2,40,41
 783.5 806.5 783.5 806.5 815 873 c 0,42,43
 824 892 824 892 832.5 912.5 c 0,44,45
 854.729386892 966.11205074 854.729386892 966.11205074 881 991 c 1,46,-1
 955 991 l 1,47,-1
 955 496 l 1,48,-1
 881 496 l 1,49,50
 856.086956522 516.979405034 856.086956522 516.979405034 838.543478261 552.989702517 c 128,-1,51
 821 589 821 589 808.5 607.5 c 128,-1,52
 796 626 796 626 774.5 641 c 0,53,54
 726.284023669 674.639053254 726.284023669 674.639053254 628 680 c 1,55,-1
 628 795 l 1,39,-1
EndSplineSet
PairPos2: "'kern' Horizontal Kerning in Latin lookup 0 per glyph data 1" AE dx=0 dy=0 dh=-55 dv=0 dx=0 dy=0 dh=0 dv=0
PairPos2: "'kern' Horizontal Kerning in Latin lookup 0 per glyph data 1" Aring dx=0 dy=0 dh=-55 dv=0 dx=0 dy=0 dh=0 dv=0
PairPos2: "'kern' Horizontal Kerning in Latin lookup 0 per glyph data 1" Adieresis dx=0 dy=0 dh=-55 dv=0 dx=0 dy=0 dh=0 dv=0
PairPos2: "'kern' Horizontal Kerning in Latin lookup 0 per glyph data 1" Atilde dx=0 dy=0 dh=-55 dv=0 dx=0 dy=0 dh=0 dv=0
PairPos2: "'kern' Horizontal Kerning in Latin lookup 0 per glyph data 1" Acircumflex dx=0 dy=0 dh=-55 dv=0 dx=0 dy=0 dh=0 dv=0
PairPos2: "'kern' Horizontal Kerning in Latin lookup 0 per glyph data 1" Aacute dx=0 dy=0 dh=-55 dv=0 dx=0 dy=0 dh=0 dv=0
PairPos2: "'kern' Horizontal Kerning in Latin lookup 0 per glyph data 1" Agrave dx=0 dy=0 dh=-55 dv=0 dx=0 dy=0 dh=0 dv=0
PairPos2: "'kern' Horizontal Kerning in Latin lookup 0 per glyph data 1" A dx=0 dy=0 dh=-55 dv=0 dx=0 dy=0 dh=0 dv=0
PairPos2: "'kern' Horizontal Kerning in Latin lookup 0 per glyph data 1" period dx=0 dy=0 dh=-92 dv=0 dx=0 dy=0 dh=0 dv=0
PairPos2: "'kern' Horizontal Kerning in Latin lookup 0 per glyph data 1" comma dx=0 dy=0 dh=-92 dv=0 dx=0 dy=0 dh=0 dv=0
EndChar

StartChar: G
Encoding: 71 71 42
Width: 1408
GlyphClass: 2
Flags: MW
LayerCount: 2
Fore
SplineSet
662 1324 m 1,0,1
 431 1271.83870968 431 1271.83870968 431 708.548387097 c 128,-1,2
 431 145.258064516 431 145.258064516 662 108 c 1,3,-1
 662 -20 l 1,4,-1
 641 -20 l 2,5,6
 512 -20 512 -20 405 37.5 c 128,-1,7
 298 95 298 95 221.5 194.5 c 0,8,9
 60 404.555555556 60 404.555555556 60 711 c 0,10,11
 60 1015.08490566 60 1015.08490566 226 1226.5 c 0,12,13
 333.597938144 1363.5351099 333.597938144 1363.5351099 492.5 1420.5 c 0,14,15
 572 1449 572 1449 662 1452 c 1,16,-1
 662 1324 l 1,0,1
751 1452 m 1,17,18
 883.693227092 1439.3625498 883.693227092 1439.3625498 1002.5 1362 c 0,19,20
 1024 1348 1024 1348 1037.5 1348 c 0,21,22
 1060.975 1348 1060.975 1348 1092 1421 c 1,23,-1
 1182 1421 l 1,24,-1
 1182 901 l 1,25,-1
 1108 901 l 1,26,27
 1084.67574932 927.822888283 1084.67574932 927.822888283 1054.83787466 1011.91144414 c 128,-1,28
 1025 1096 1025 1096 1003.5 1144 c 128,-1,29
 982 1192 982 1192 949 1231 c 0,30,31
 873.307428571 1320.45485714 873.307428571 1320.45485714 751 1324 c 1,32,-1
 751 1452 l 1,17,18
751 108 m 1,33,34
 832 116 832 116 865.5 169.5 c 128,-1,35
 899 223 899 223 899 302 c 128,-1,36
 899 381 899 381 896.5 432 c 128,-1,37
 894 483 894 483 878 523.5 c 0,38,39
 842.24691358 614 842.24691358 614 728 614 c 1,40,-1
 728 692 l 1,41,-1
 1339 692 l 1,42,43
 1336 677 1336 677 1333 663.5 c 128,-1,44
 1330 650 1330 650 1327 636 c 128,-1,45
 1324 622 1324 622 1321 610 c 1,46,47
 1267 586 1267 586 1249 548.5 c 128,-1,48
 1231 511 1231 511 1231 457 c 2,49,-1
 1231 336 l 2,50,51
 1231 36.8275862069 1231 36.8275862069 935 -4 c 0,52,53
 848 -16 848 -16 751 -20 c 1,54,-1
 751 108 l 1,33,34
EndSplineSet
EndChar

StartChar: H
Encoding: 72 72 43
Width: 1537
GlyphClass: 2
Flags: MW
LayerCount: 2
Fore
SplineSet
541 190 m 2,0,1
 541 128.631578947 541 128.631578947 584 106 c 0,2,3
 603 96 603 96 626 90.5 c 128,-1,4
 649 85 649 85 671 74 c 1,5,-1
 671 0 l 1,6,-1
 67 0 l 1,7,-1
 67 74 l 1,8,9
 94 85 94 85 119.5 90.5 c 128,-1,10
 145 96 145 96 165 106 c 0,11,12
 209 128 209 128 209 190 c 2,13,-1
 209 1180 l 2,14,15
 209 1263.05 209 1263.05 193.5 1285.525 c 128,-1,16
 178 1308 178 1308 164.5 1313.5 c 128,-1,17
 151 1319 151 1319 135 1322.5 c 0,18,19
 84.7056603774 1333.50188679 84.7056603774 1333.50188679 67 1346 c 1,20,-1
 67 1421 l 1,21,-1
 671 1421 l 1,22,-1
 671 1346 l 1,23,24
 649 1335 649 1335 626 1329.5 c 128,-1,25
 603 1324 603 1324 584 1314 c 0,26,27
 541 1291.36842105 541 1291.36842105 541 1229 c 2,28,-1
 541 190 l 2,0,1
994 1229 m 2,29,30
 994 1292 994 1292 951 1313.5 c 0,31,32
 932 1323 932 1323 909 1329 c 128,-1,33
 886 1335 886 1335 865 1346 c 1,34,-1
 865 1421 l 1,35,-1
 1469 1421 l 1,36,-1
 1469 1346 l 1,37,38
 1442 1335 1442 1335 1416.5 1329.5 c 128,-1,39
 1391 1324 1391 1324 1370.5 1314 c 0,40,41
 1326 1292.29268293 1326 1292.29268293 1326 1229 c 2,42,-1
 1326 240 l 2,43,44
 1326 156.714285714 1326 156.714285714 1342 133.857142857 c 128,-1,45
 1358 111 1358 111 1371.5 105 c 128,-1,46
 1385 99 1385 99 1401 96 c 0,47,48
 1447.16393443 87.3442622951 1447.16393443 87.3442622951 1469 74 c 1,49,-1
 1469 0 l 1,50,-1
 865 0 l 1,51,-1
 865 74 l 1,52,53
 886 85 886 85 909 91 c 128,-1,54
 932 97 932 97 951 106.5 c 0,55,56
 994 128 994 128 994 190 c 2,57,-1
 994 1229 l 2,29,30
905 684 m 1,58,-1
 630 684 l 1,59,-1
 630 797 l 1,60,-1
 905 797 l 1,61,-1
 905 684 l 1,58,-1
EndSplineSet
EndChar

StartChar: I
Encoding: 73 73 44
Width: 767
GlyphClass: 2
Flags: MW
LayerCount: 2
Fore
SplineSet
217 1180 m 2,0,1
 217 1262.05 217 1262.05 201.5 1284.525 c 128,-1,2
 186 1307 186 1307 172.5 1313 c 128,-1,3
 159 1319 159 1319 143 1323 c 128,-1,4
 127 1327 127 1327 109.5 1331 c 128,-1,5
 92 1335 92 1335 74 1346 c 1,6,-1
 74 1421 l 1,7,-1
 689 1421 l 1,8,-1
 689 1346 l 1,9,10
 671 1335 671 1335 654 1331 c 128,-1,11
 637 1327 637 1327 621 1323 c 128,-1,12
 605 1319 605 1319 592 1313 c 128,-1,13
 579 1307 579 1307 569 1292.5 c 0,14,15
 548 1262.05 548 1262.05 548 1180 c 2,16,-1
 548 240 l 2,17,18
 548 156.95 548 156.95 563.5 134.475 c 128,-1,19
 579 112 579 112 592.5 106 c 128,-1,20
 606 100 606 100 621.5 96.5 c 0,21,22
 670.162790698 85.511627907 670.162790698 85.511627907 689 74 c 1,23,-1
 689 0 l 1,24,-1
 74 0 l 1,25,-1
 74 74 l 1,26,27
 101 85 101 85 126.5 90.5 c 128,-1,28
 152 96 152 96 172 106 c 0,29,30
 217 128.5 217 128.5 217 190 c 2,31,-1
 217 1180 l 2,0,1
EndSplineSet
EndChar

StartChar: J
Encoding: 74 74 45
Width: 1089
GlyphClass: 2
Flags: MW
LayerCount: 2
Fore
SplineSet
358 -20 m 1,0,1
 206.33472565 -2.91095500285 206.33472565 -2.91095500285 111 81.5 c 0,2,3
 7 173.583333333 7 173.583333333 7 320 c 0,4,5
 7 466 7 466 119 514 c 0,6,7
 154 529 154 529 193 529 c 128,-1,8
 232 529 232 529 262.5 518.5 c 128,-1,9
 293 508 293 508 316 488 c 0,10,11
 365 445.391304348 365 445.391304348 365 368 c 0,12,13
 365 277.547169811 365 277.547169811 267.5 215 c 0,14,15
 241 198 241 198 217 189 c 1,16,17
 223 163 223 163 259.5 138.5 c 128,-1,18
 296 114 296 114 358 108 c 1,19,-1
 358 -20 l 1,0,1
447 108 m 1,20,21
 571 132.8 571 132.8 571 271 c 2,22,-1
 571 1229 l 2,23,24
 571 1292.95348837 571 1292.95348837 524.5 1313.5 c 0,25,26
 503 1323 503 1323 473.5 1329 c 128,-1,27
 444 1335 444 1335 411 1346 c 1,28,-1
 411 1421 l 1,29,-1
 1051 1421 l 1,30,-1
 1051 1346 l 1,31,32
 1022 1335 1022 1335 995 1329 c 128,-1,33
 968 1323 968 1323 947.5 1313.5 c 0,34,35
 903 1292.87804878 903 1292.87804878 903 1229 c 2,36,-1
 903 380 l 2,37,38
 903 79.2117647059 903 79.2117647059 640 6.5 c 0,39,40
 555 -17 555 -17 447 -20 c 1,41,-1
 447 108 l 1,20,21
EndSplineSet
EndChar

StartChar: K
Encoding: 75 75 46
Width: 1513
GlyphClass: 2
Flags: MW
LayerCount: 2
Fore
SplineSet
682 858 m 1,0,-1
 1026 1188 l 2,1,2
 1079 1238.96153846 1079 1238.96153846 1079 1265.98076923 c 128,-1,3
 1079 1293 1079 1293 1068 1303 c 128,-1,4
 1057 1313 1057 1313 1039 1319.5 c 128,-1,5
 1021 1326 1021 1326 997.5 1331.5 c 128,-1,6
 974 1337 974 1337 949 1346 c 1,7,-1
 949 1421 l 1,8,-1
 1466 1421 l 1,9,-1
 1466 1348 l 1,10,11
 1449 1335 1449 1335 1427 1329.5 c 128,-1,12
 1405 1324 1405 1324 1380 1317.5 c 0,13,14
 1314.56618465 1300.48720801 1314.56618465 1300.48720801 1273 1262 c 1,15,16
 1241 1234 1241 1234 1211 1204 c 2,17,-1
 912 916 l 1,18,-1
 1349 252 l 2,19,20
 1432.38309353 125.798561151 1432.38309353 125.798561151 1511.5 89 c 0,21,22
 1533 79 1533 79 1556 66 c 1,23,-1
 1556 0 l 1,24,-1
 916 0 l 1,25,-1
 916 74 l 1,26,27
 928 81 928 81 946.5 87.5 c 128,-1,28
 965 94 965 94 981.5 102 c 0,29,30
 1022 121.636363636 1022 121.636363636 1022 146.318181818 c 0,31,32
 1022 183 1022 183 980 246 c 2,33,-1
 682 706 l 1,34,-1
 682 858 l 1,0,-1
593 190 m 2,35,36
 593 128.972972973 593 128.972972973 635.5 106 c 0,37,38
 654 96 654 96 676 90.5 c 128,-1,39
 698 85 698 85 718 74 c 1,40,-1
 718 0 l 1,41,-1
 118 0 l 1,42,-1
 118 74 l 1,43,44
 139.25 88.609375 139.25 88.609375 169.625 94.3046875 c 128,-1,45
 200 100 200 100 214 105.5 c 128,-1,46
 228 111 228 111 238.5 124.5 c 0,47,48
 261 153.428571429 261 153.428571429 261 231 c 2,49,-1
 261 1188 l 2,50,51
 261 1296.42857143 261 1296.42857143 215 1314.5 c 0,52,53
 201 1320 201 1320 185 1323.5 c 0,54,55
 136.313304721 1334.15021459 136.313304721 1334.15021459 118 1346 c 1,56,-1
 118 1421 l 1,57,-1
 722 1421 l 1,58,-1
 722 1346 l 1,59,60
 701 1335 701 1335 678 1330 c 128,-1,61
 655 1325 655 1325 636 1317 c 0,62,63
 593 1298.89473684 593 1298.89473684 593 1245 c 2,64,-1
 593 190 l 2,35,36
EndSplineSet
EndChar

StartChar: L
Encoding: 76 76 47
Width: 1173
GlyphClass: 2
Flags: MW
LayerCount: 2
Fore
SplineSet
648 97 m 1,0,1
 654 96 654 96 661 96 c 128,-1,2
 668 96 668 96 675 96 c 0,3,4
 901.129032258 96 901.129032258 96 979.5 265.5 c 0,5,6
 1001 312 1001 312 1016.5 356.5 c 128,-1,7
 1032 401 1032 401 1047.5 439 c 128,-1,8
 1063 477 1063 477 1089 498 c 1,9,-1
 1157 498 l 1,10,-1
 1157 0 l 1,11,-1
 648 0 l 1,12,-1
 648 97 l 1,0,1
558 0 m 1,13,-1
 83 0 l 1,14,-1
 83 74 l 1,15,16
 110 85 110 85 135.5 90.5 c 128,-1,17
 161 96 161 96 181 106 c 0,18,19
 226 128.5 226 128.5 226 190 c 2,20,-1
 226 1229 l 2,21,22
 226 1291.5 226 1291.5 181 1314 c 0,23,24
 161 1324 161 1324 135.5 1329.5 c 128,-1,25
 110 1335 110 1335 83 1346 c 1,26,-1
 83 1421 l 1,27,-1
 708 1421 l 1,28,-1
 708 1346 l 1,29,30
 678 1335 678 1335 651 1329.5 c 128,-1,31
 624 1324 624 1324 603.5 1314 c 0,32,33
 558 1291.80487805 558 1291.80487805 558 1229 c 2,34,-1
 558 0 l 1,13,-1
EndSplineSet
EndChar

StartChar: M
Encoding: 77 77 48
Width: 1765
GlyphClass: 2
Flags: MW
LayerCount: 2
Fore
SplineSet
407 673 m 1,0,-1
 407 221 l 2,1,2
 407 140.489361702 407 140.489361702 461.5 111.5 c 0,3,4
 485 99 485 99 512.5 92 c 128,-1,5
 540 85 540 85 565 70 c 1,6,-1
 565 0 l 1,7,-1
 121 0 l 1,8,-1
 121 70 l 1,9,10
 142 85 142 85 168.5 92.5 c 128,-1,11
 195 100 195 100 218.5 112 c 0,12,13
 273 139.829787234 273 139.829787234 273 221 c 2,14,-1
 273 1030 l 1,15,-1
 407 673 l 1,0,-1
311 1180 m 1,16,17
 294 1222.5 294 1222.5 280 1254 c 1,18,19
 254 1260 254 1260 226.5 1266 c 128,-1,20
 199 1272 199 1272 172.5 1278.5 c 0,21,22
 113.846666667 1292.88666667 113.846666667 1292.88666667 82 1306 c 1,23,-1
 82 1421 l 1,24,-1
 564 1421 l 1,25,-1
 997 287 l 1,26,-1
 925 0 l 1,27,-1
 753 0 l 1,28,-1
 311 1180 l 1,16,17
969 607 m 1,29,-1
 1173 1421 l 1,30,-1
 1701 1421 l 1,31,-1
 1701 1346 l 1,32,33
 1674 1335 1674 1335 1649 1329.5 c 128,-1,34
 1624 1324 1624 1324 1604 1314 c 0,35,36
 1560 1292 1560 1292 1560 1229 c 2,37,-1
 1560 190 l 2,38,39
 1560 128 1560 128 1604 106 c 0,40,41
 1624 96 1624 96 1649 90.5 c 128,-1,42
 1674 85 1674 85 1701 74 c 1,43,-1
 1701 0 l 1,44,-1
 1092 0 l 1,45,-1
 1092 74 l 1,46,47
 1119 85 1119 85 1144.5 90.5 c 128,-1,48
 1170 96 1170 96 1190 106 c 0,49,50
 1235 128.5 1235 128.5 1235 190 c 2,51,-1
 1235 1206 l 1,52,-1
 1230 1206 l 1,53,-1
 1037 431 l 1,54,-1
 969 607 l 1,29,-1
EndSplineSet
EndChar

StartChar: N
Encoding: 78 78 49
Width: 1449
GlyphClass: 2
Flags: MW
LayerCount: 2
Fore
SplineSet
1143 668 m 1,0,-1
 1143 1229 l 2,1,2
 1143 1291.11363636 1143 1291.11363636 1094 1314.5 c 0,3,4
 1072 1325 1072 1325 1044 1331.5 c 128,-1,5
 1016 1338 1016 1338 987 1350 c 1,6,-1
 987 1421 l 1,7,-1
 1431 1421 l 1,8,-1
 1431 1350 l 1,9,10
 1403 1338 1403 1338 1375.5 1331.5 c 128,-1,11
 1348 1325 1348 1325 1326 1314.5 c 0,12,13
 1277 1291.11363636 1277 1291.11363636 1277 1229 c 2,14,-1
 1277 470 l 1,15,-1
 1143 668 l 1,0,-1
345 966 m 1,16,-1
 345 215 l 2,17,18
 345 122.344827586 345 122.344827586 455 92 c 0,19,20
 484 84 484 84 510 72 c 1,21,-1
 510 0 l 1,22,-1
 53 0 l 1,23,-1
 53 72 l 1,24,25
 78 84 78 84 105.5 92 c 128,-1,26
 133 100 133 100 156.5 113.5 c 0,27,28
 211 144.808510638 211 144.808510638 211 215 c 2,29,-1
 211 1165 l 1,30,-1
 345 966 l 1,16,-1
254 1260 m 1,31,32
 206 1269 206 1269 169 1275.5 c 0,33,34
 84.9090909091 1290.27272727 84.9090909091 1290.27272727 62 1296 c 1,35,-1
 62 1421 l 1,36,-1
 527 1421 l 1,37,-1
 1277 311 l 1,38,-1
 1277 0 l 1,39,-1
 1104 0 l 1,40,-1
 254 1260 l 1,31,32
EndSplineSet
EndChar

StartChar: O
Encoding: 79 79 50
Width: 1473
GlyphClass: 2
Flags: MW
LayerCount: 2
Fore
SplineSet
701 -20 m 1,0,1
 412.274936462 -6.52616370156 412.274936462 -6.52616370156 237.5 209.5 c 0,2,3
 74 411.590062112 74 411.590062112 74 711 c 128,-1,4
 74 1010.43396226 74 1010.43396226 235 1217 c 0,5,6
 406.862791061 1437.50320363 406.862791061 1437.50320363 691 1452 c 1,7,-1
 691 1324 l 1,8,9
 489.880407125 1292.24427481 489.880407125 1292.24427481 455 926 c 0,10,11
 445 821 445 821 445 710.5 c 128,-1,12
 445 600 445 600 455.5 496.5 c 128,-1,13
 466 393 466 393 494.5 310.5 c 0,14,15
 556.790251108 130.186115214 556.790251108 130.186115214 701 108 c 1,16,-1
 701 -20 l 1,0,1
1025 711 m 0,17,18
 1025 1289 1025 1289 780 1324 c 1,19,-1
 780 1452 l 1,20,21
 1066.34554401 1437.39053347 1066.34554401 1437.39053347 1236.5 1217 c 0,22,23
 1397 1009.11428571 1397 1009.11428571 1397 711 c 256,24,25
 1397 413.576923077 1397 413.576923077 1239 210 c 0,26,27
 1071.76486616 -5.47603782657 1071.76486616 -5.47603782657 790 -20 c 1,28,-1
 790 108 l 1,29,30
 982.672131148 134.393442623 982.672131148 134.393442623 1015.5 495.5 c 0,31,32
 1025 600 1025 600 1025 711 c 0,17,18
EndSplineSet
EndChar

StartChar: P
Encoding: 80 80 51
Width: 1238
GlyphClass: 2
Flags: MW
LayerCount: 2
Fore
SplineSet
562 190 m 2,0,1
 562 127.904761905 562 127.904761905 608 106 c 0,2,3
 629 96 629 96 657.5 90.5 c 128,-1,4
 686 85 686 85 718 74 c 1,5,-1
 718 0 l 1,6,-1
 78 0 l 1,7,-1
 78 74 l 1,8,9
 108 85 108 85 135.5 90.5 c 128,-1,10
 163 96 163 96 184 106 c 0,11,12
 230 127.904761905 230 127.904761905 230 190 c 2,13,-1
 230 1229 l 2,14,15
 230 1292.0952381 230 1292.0952381 184 1314 c 0,16,17
 163 1324 163 1324 135.5 1329.5 c 128,-1,18
 108 1335 108 1335 78 1346 c 1,19,-1
 78 1421 l 1,20,-1
 562 1421 l 1,21,-1
 562 190 l 2,0,1
651 739 m 1,22,23
 758.496886675 751.403486924 758.496886675 751.403486924 809 815 c 0,24,25
 864 884.259259259 864 884.259259259 864 1028 c 0,26,27
 864 1254.38461538 864 1254.38461538 735 1304 c 0,28,29
 696 1319 696 1319 651 1322 c 1,30,-1
 651 1421 l 1,31,-1
 746 1421 l 2,32,33
 988.359223301 1421 988.359223301 1421 1109.5 1312.5 c 0,34,35
 1220 1213.53043478 1220 1213.53043478 1220 1032 c 0,36,37
 1220 725.213930348 1220 725.213930348 917.5 660.5 c 0,38,39
 817 639 817 639 684 639 c 2,40,-1
 651 639 l 1,41,-1
 651 739 l 1,22,23
EndSplineSet
PairPos2: "'kern' Horizontal Kerning in Latin lookup 0 per glyph data 1" AE dx=0 dy=0 dh=-55 dv=0 dx=0 dy=0 dh=0 dv=0
PairPos2: "'kern' Horizontal Kerning in Latin lookup 0 per glyph data 1" Aring dx=0 dy=0 dh=-55 dv=0 dx=0 dy=0 dh=0 dv=0
PairPos2: "'kern' Horizontal Kerning in Latin lookup 0 per glyph data 1" Adieresis dx=0 dy=0 dh=-55 dv=0 dx=0 dy=0 dh=0 dv=0
PairPos2: "'kern' Horizontal Kerning in Latin lookup 0 per glyph data 1" Atilde dx=0 dy=0 dh=-55 dv=0 dx=0 dy=0 dh=0 dv=0
PairPos2: "'kern' Horizontal Kerning in Latin lookup 0 per glyph data 1" Acircumflex dx=0 dy=0 dh=-55 dv=0 dx=0 dy=0 dh=0 dv=0
PairPos2: "'kern' Horizontal Kerning in Latin lookup 0 per glyph data 1" Aacute dx=0 dy=0 dh=-55 dv=0 dx=0 dy=0 dh=0 dv=0
PairPos2: "'kern' Horizontal Kerning in Latin lookup 0 per glyph data 1" Agrave dx=0 dy=0 dh=-55 dv=0 dx=0 dy=0 dh=0 dv=0
PairPos2: "'kern' Horizontal Kerning in Latin lookup 0 per glyph data 1" A dx=0 dy=0 dh=-55 dv=0 dx=0 dy=0 dh=0 dv=0
PairPos2: "'kern' Horizontal Kerning in Latin lookup 0 per glyph data 1" period dx=0 dy=0 dh=-111 dv=0 dx=0 dy=0 dh=0 dv=0
PairPos2: "'kern' Horizontal Kerning in Latin lookup 0 per glyph data 1" comma dx=0 dy=0 dh=-111 dv=0 dx=0 dy=0 dh=0 dv=0
EndChar

StartChar: Q
Encoding: 81 81 52
Width: 1473
GlyphClass: 2
Flags: MW
LayerCount: 2
Fore
SplineSet
1282 -189 m 128,-1,1
 1325 -213 1325 -213 1359.83333333 -213 c 128,-1,2
 1394.66666667 -213 1394.66666667 -213 1444 -176 c 1,3,-1
 1515 -241 l 1,4,5
 1449.11320755 -336.169811321 1449.11320755 -336.169811321 1326 -369 c 0,6,7
 1281 -381 1281 -381 1211.5 -381 c 128,-1,8
 1142 -381 1142 -381 1076.5 -348.5 c 128,-1,9
 1011 -316 1011 -316 959.5 -267 c 128,-1,10
 908 -218 908 -218 867 -161 c 128,-1,11
 826 -104 826 -104 790 -56 c 1,12,-1
 790 108 l 1,13,14
 982.281045752 134.339869281 982.281045752 134.339869281 1015.5 498 c 0,15,16
 1025 602 1025 602 1025 711 c 0,17,18
 1025 1289 1025 1289 780 1324 c 1,19,-1
 780 1452 l 1,20,21
 1066.34554401 1437.39053347 1066.34554401 1437.39053347 1236.5 1217 c 0,22,23
 1397 1009.11428571 1397 1009.11428571 1397 711 c 0,24,25
 1397 452.382113821 1397 452.382113821 1271.5 257.5 c 0,26,27
 1139.42881573 52.4138520735 1139.42881573 52.4138520735 914 -2 c 1,28,29
 1028.19596942 -35.4232105629 1028.19596942 -35.4232105629 1184.5 -131.5 c 0,30,0
 1239 -165 1239 -165 1282 -189 c 128,-1,1
691 1324 m 1,31,32
 445 1285.41176471 445 1285.41176471 445 716.398190045 c 128,-1,33
 445 147.384615385 445 147.384615385 701 108 c 1,34,-1
 701 -20 l 1,35,36
 413.458005749 -6.58137360163 413.458005749 -6.58137360163 237.5 212 c 0,37,38
 74 415.105590062 74 415.105590062 74 711 c 0,39,40
 74 1010.43396226 74 1010.43396226 235 1217 c 0,41,42
 406.862791061 1437.50320363 406.862791061 1437.50320363 691 1452 c 1,43,-1
 691 1324 l 1,31,32
EndSplineSet
EndChar

StartChar: R
Encoding: 82 82 53
Width: 1414
GlyphClass: 2
Flags: MW
LayerCount: 2
Fore
SplineSet
1366 128 m 1,0,1
 1283.22222222 -21 1283.22222222 -21 1090 -21 c 0,2,3
 916.842105263 -21 916.842105263 -21 845 141.5 c 0,4,5
 811.748251748 216.712287712 811.748251748 216.712287712 787.874125874 311.356143856 c 128,-1,6
 764 406 764 406 746 457 c 0,7,8
 704.857142857 573.571428571 704.857142857 573.571428571 638 625 c 1,9,-1
 638 772 l 1,10,11
 756.954323002 782.814029364 756.954323002 782.814029364 808 836.5 c 0,12,13
 868 899.603448276 868 899.603448276 868 1038 c 0,14,15
 868 1194.66071429 868 1194.66071429 813 1258.5 c 0,16,17
 761.906752412 1317.80466238 761.906752412 1317.80466238 638 1324 c 1,18,-1
 638 1421 l 1,19,-1
 756 1421 l 2,20,21
 989.626262626 1421 989.626262626 1421 1114.5 1313.5 c 0,22,23
 1226 1217.51304348 1226 1217.51304348 1226 1059 c 0,24,25
 1226 818.86875 1226 818.86875 977 739.5 c 0,26,27
 897 714 897 714 795 709 c 1,28,-1
 795 700 l 1,29,30
 887.949152542 684.508474576 887.949152542 684.508474576 929.974576271 655.754237288 c 0,31,32
 1024.32654792 591.197625106 1024.32654792 591.197625106 1076.5 463 c 0,33,34
 1094 420 1094 420 1110.5 375 c 128,-1,35
 1127 330 1127 330 1143 287 c 128,-1,36
 1159 244 1159 244 1177 210 c 0,37,38
 1216.70588235 135 1216.70588235 135 1259 135 c 0,39,40
 1280.33333333 135 1280.33333333 135 1296.66666667 159.5 c 128,-1,41
 1313 184 1313 184 1324 195.5 c 128,-1,42
 1335 207 1335 207 1349 207 c 128,-1,43
 1363 207 1363 207 1366 206 c 1,44,-1
 1366 128 l 1,0,1
549 1421 m 1,45,-1
 549 190 l 2,46,47
 549 128.195121951 549 128.195121951 594.5 106 c 0,48,49
 615 96 615 96 640.5 90.5 c 128,-1,50
 666 85 666 85 693 74 c 1,51,-1
 693 0 l 1,52,-1
 76 0 l 1,53,-1
 76 74 l 1,54,55
 103 85 103 85 128.5 90.5 c 128,-1,56
 154 96 154 96 174 106 c 0,57,58
 219 128.5 219 128.5 219 190 c 2,59,-1
 219 1229 l 2,60,61
 219 1291.5 219 1291.5 174 1314 c 0,62,63
 154 1324 154 1324 128.5 1329.5 c 128,-1,64
 103 1335 103 1335 76 1346 c 1,65,-1
 76 1421 l 1,66,-1
 549 1421 l 1,45,-1
EndSplineSet
EndChar

StartChar: S
Encoding: 83 83 54
Width: 1217
GlyphClass: 2
Flags: MW
LayerCount: 2
Fore
SplineSet
640 1452 m 1,0,1
 734.028605483 1436.64839094 734.028605483 1436.64839094 836 1371.5 c 0,2,3
 854 1360 854 1360 870.5 1360 c 128,-1,4
 887 1360 887 1360 902 1378.5 c 128,-1,5
 917 1397 917 1397 935 1421 c 1,6,-1
 1025 1421 l 1,7,-1
 1025 936 l 1,8,-1
 949 936 l 1,9,10
 920.527027027 965.828828829 920.527027027 965.828828829 888.763513514 1036.41441441 c 128,-1,11
 857 1107 857 1107 836.5 1148.5 c 128,-1,12
 816 1190 816 1190 789 1225.5 c 0,13,14
 727.696495407 1306.10275604 727.696495407 1306.10275604 640 1324 c 1,15,-1
 640 1452 l 1,0,1
257 61 m 0,16,17
 219.545454545 61 219.545454545 61 195 1 c 1,18,-1
 94 1 l 1,19,-1
 94 524 l 1,20,-1
 161 524 l 1,21,22
 197.585714286 501.485714286 197.585714286 501.485714286 230.292857143 425.742857143 c 128,-1,23
 263 350 263 350 286.5 302.5 c 128,-1,24
 310 255 310 255 344.5 214 c 0,25,26
 423.24349751 120.420771075 423.24349751 120.420771075 551 108 c 1,27,-1
 551 -20 l 1,28,29
 458.03943662 -13.9042253521 458.03943662 -13.9042253521 390.01971831 12.5478873239 c 128,-1,30
 322 39 322 39 297 50 c 128,-1,31
 272 61 272 61 257 61 c 0,16,17
640 108 m 1,32,33
 737 119 737 119 792.5 172.5 c 128,-1,34
 848 226 848 226 848 305 c 128,-1,35
 848 384 848 384 815.5 430 c 128,-1,36
 783 476 783 476 730 511 c 128,-1,37
 677 546 677 546 609 574 c 128,-1,38
 541 602 541 602 470 631 c 128,-1,39
 399 660 399 660 331 693.5 c 128,-1,40
 263 727 263 727 210 773 c 0,41,42
 92 875.41509434 92 875.41509434 92 1032 c 0,43,44
 92 1193.46153846 92 1193.46153846 210.5 1315 c 0,45,46
 342.241308793 1450.11929107 342.241308793 1450.11929107 551 1452 c 1,47,-1
 551 1324 l 1,48,49
 470 1316 470 1316 420.5 1272 c 128,-1,50
 371 1228 371 1228 371 1164 c 128,-1,51
 371 1100 371 1100 403.5 1058 c 128,-1,52
 436 1016 436 1016 489 983.5 c 128,-1,53
 542 951 542 951 610 924.5 c 128,-1,54
 678 898 678 898 748.5 869.5 c 128,-1,55
 819 841 819 841 887 806.5 c 128,-1,56
 955 772 955 772 1008 724 c 0,57,58
 1126 617.132075472 1126 617.132075472 1126 455 c 0,59,60
 1126 264.876033058 1126 264.876033058 1006.5 135.5 c 0,61,62
 873.385845194 -8.61532462468 873.385845194 -8.61532462468 640 -20 c 1,63,-1
 640 108 l 1,32,33
EndSplineSet
EndChar

StartChar: T
Encoding: 84 84 55
Width: 1283
GlyphClass: 2
Flags: MW
LayerCount: 2
Fore
SplineSet
30 1436 m 1,0,1
 159 1421 159 1421 173 1421 c 2,2,-1
 386 1421 l 1,3,-1
 386 1320 l 1,4,5
 231.364822871 1305.27284027 231.364822871 1305.27284027 186.5 1163.5 c 0,6,7
 174 1124 174 1124 162 1085.5 c 0,8,9
 130.997506234 986.033665835 130.997506234 986.033665835 92 954 c 1,10,-1
 30 954 l 1,11,-1
 30 1436 l 1,0,1
808 248 m 2,12,13
 808 135.5 808 135.5 858 110.5 c 0,14,15
 881 99 881 99 910.5 95 c 128,-1,16
 940 91 940 91 972 74 c 1,17,-1
 972 0 l 1,18,-1
 308 0 l 1,19,-1
 308 74 l 1,20,21
 340 85 340 85 370 92.5 c 128,-1,22
 400 100 400 100 423.5 112.5 c 0,23,24
 475 139.893617021 475 139.893617021 475 203 c 2,25,-1
 475 1421 l 1,26,-1
 808 1421 l 1,27,-1
 808 248 l 2,12,13
1110 1421 m 2,28,29
 1124 1421 1124 1421 1253 1436 c 1,30,-1
 1253 954 l 1,31,-1
 1191 954 l 1,32,33
 1152.00249377 986.033665835 1152.00249377 986.033665835 1130.50124688 1055.01683292 c 128,-1,34
 1109 1124 1109 1124 1096 1163.5 c 128,-1,35
 1083 1203 1083 1203 1060 1236 c 0,36,37
 1008.88098918 1309.3446677 1008.88098918 1309.3446677 897 1320 c 1,38,-1
 897 1421 l 1,39,-1
 1110 1421 l 2,28,29
EndSplineSet
PairPos2: "'kern' Horizontal Kerning in Latin lookup 0 per glyph data 1" scaron dx=0 dy=0 dh=-14 dv=0 dx=0 dy=0 dh=0 dv=0
PairPos2: "'kern' Horizontal Kerning in Latin lookup 0 per glyph data 1" oe dx=0 dy=0 dh=-55 dv=0 dx=0 dy=0 dh=0 dv=0
PairPos2: "'kern' Horizontal Kerning in Latin lookup 0 per glyph data 1" ydieresis dx=0 dy=0 dh=-55 dv=0 dx=0 dy=0 dh=0 dv=0
PairPos2: "'kern' Horizontal Kerning in Latin lookup 0 per glyph data 1" yacute dx=0 dy=0 dh=-55 dv=0 dx=0 dy=0 dh=0 dv=0
PairPos2: "'kern' Horizontal Kerning in Latin lookup 0 per glyph data 1" udieresis dx=0 dy=0 dh=-28 dv=0 dx=0 dy=0 dh=0 dv=0
PairPos2: "'kern' Horizontal Kerning in Latin lookup 0 per glyph data 1" ucircumflex dx=0 dy=0 dh=-55 dv=0 dx=0 dy=0 dh=0 dv=0
PairPos2: "'kern' Horizontal Kerning in Latin lookup 0 per glyph data 1" uacute dx=0 dy=0 dh=-55 dv=0 dx=0 dy=0 dh=0 dv=0
PairPos2: "'kern' Horizontal Kerning in Latin lookup 0 per glyph data 1" ugrave dx=0 dy=0 dh=-41 dv=0 dx=0 dy=0 dh=0 dv=0
PairPos2: "'kern' Horizontal Kerning in Latin lookup 0 per glyph data 1" oslash dx=0 dy=0 dh=-55 dv=0 dx=0 dy=0 dh=0 dv=0
PairPos2: "'kern' Horizontal Kerning in Latin lookup 0 per glyph data 1" odieresis dx=0 dy=0 dh=-28 dv=0 dx=0 dy=0 dh=0 dv=0
PairPos2: "'kern' Horizontal Kerning in Latin lookup 0 per glyph data 1" otilde dx=0 dy=0 dh=-55 dv=0 dx=0 dy=0 dh=0 dv=0
PairPos2: "'kern' Horizontal Kerning in Latin lookup 0 per glyph data 1" ocircumflex dx=0 dy=0 dh=-41 dv=0 dx=0 dy=0 dh=0 dv=0
PairPos2: "'kern' Horizontal Kerning in Latin lookup 0 per glyph data 1" oacute dx=0 dy=0 dh=-55 dv=0 dx=0 dy=0 dh=0 dv=0
PairPos2: "'kern' Horizontal Kerning in Latin lookup 0 per glyph data 1" ograve dx=0 dy=0 dh=-41 dv=0 dx=0 dy=0 dh=0 dv=0
PairPos2: "'kern' Horizontal Kerning in Latin lookup 0 per glyph data 1" iacute dx=0 dy=0 dh=-9 dv=0 dx=0 dy=0 dh=0 dv=0
PairPos2: "'kern' Horizontal Kerning in Latin lookup 0 per glyph data 1" edieresis dx=0 dy=0 dh=-28 dv=0 dx=0 dy=0 dh=0 dv=0
PairPos2: "'kern' Horizontal Kerning in Latin lookup 0 per glyph data 1" ecircumflex dx=0 dy=0 dh=-28 dv=0 dx=0 dy=0 dh=0 dv=0
PairPos2: "'kern' Horizontal Kerning in Latin lookup 0 per glyph data 1" eacute dx=0 dy=0 dh=-55 dv=0 dx=0 dy=0 dh=0 dv=0
PairPos2: "'kern' Horizontal Kerning in Latin lookup 0 per glyph data 1" egrave dx=0 dy=0 dh=-28 dv=0 dx=0 dy=0 dh=0 dv=0
PairPos2: "'kern' Horizontal Kerning in Latin lookup 0 per glyph data 1" ae dx=0 dy=0 dh=-55 dv=0 dx=0 dy=0 dh=0 dv=0
PairPos2: "'kern' Horizontal Kerning in Latin lookup 0 per glyph data 1" aring dx=0 dy=0 dh=-28 dv=0 dx=0 dy=0 dh=0 dv=0
PairPos2: "'kern' Horizontal Kerning in Latin lookup 0 per glyph data 1" adieresis dx=0 dy=0 dh=-55 dv=0 dx=0 dy=0 dh=0 dv=0
PairPos2: "'kern' Horizontal Kerning in Latin lookup 0 per glyph data 1" atilde dx=0 dy=0 dh=-14 dv=0 dx=0 dy=0 dh=0 dv=0
PairPos2: "'kern' Horizontal Kerning in Latin lookup 0 per glyph data 1" acircumflex dx=0 dy=0 dh=-14 dv=0 dx=0 dy=0 dh=0 dv=0
PairPos2: "'kern' Horizontal Kerning in Latin lookup 0 per glyph data 1" aacute dx=0 dy=0 dh=-55 dv=0 dx=0 dy=0 dh=0 dv=0
PairPos2: "'kern' Horizontal Kerning in Latin lookup 0 per glyph data 1" agrave dx=0 dy=0 dh=-14 dv=0 dx=0 dy=0 dh=0 dv=0
PairPos2: "'kern' Horizontal Kerning in Latin lookup 0 per glyph data 1" AE dx=0 dy=0 dh=-55 dv=0 dx=0 dy=0 dh=0 dv=0
PairPos2: "'kern' Horizontal Kerning in Latin lookup 0 per glyph data 1" Aring dx=0 dy=0 dh=-55 dv=0 dx=0 dy=0 dh=0 dv=0
PairPos2: "'kern' Horizontal Kerning in Latin lookup 0 per glyph data 1" Adieresis dx=0 dy=0 dh=-55 dv=0 dx=0 dy=0 dh=0 dv=0
PairPos2: "'kern' Horizontal Kerning in Latin lookup 0 per glyph data 1" Atilde dx=0 dy=0 dh=-55 dv=0 dx=0 dy=0 dh=0 dv=0
PairPos2: "'kern' Horizontal Kerning in Latin lookup 0 per glyph data 1" Acircumflex dx=0 dy=0 dh=-55 dv=0 dx=0 dy=0 dh=0 dv=0
PairPos2: "'kern' Horizontal Kerning in Latin lookup 0 per glyph data 1" Aacute dx=0 dy=0 dh=-55 dv=0 dx=0 dy=0 dh=0 dv=0
PairPos2: "'kern' Horizontal Kerning in Latin lookup 0 per glyph data 1" Agrave dx=0 dy=0 dh=-55 dv=0 dx=0 dy=0 dh=0 dv=0
PairPos2: "'kern' Horizontal Kerning in Latin lookup 0 per glyph data 1" y dx=0 dy=0 dh=-55 dv=0 dx=0 dy=0 dh=0 dv=0
PairPos2: "'kern' Horizontal Kerning in Latin lookup 0 per glyph data 1" w dx=0 dy=0 dh=-74 dv=0 dx=0 dy=0 dh=0 dv=0
PairPos2: "'kern' Horizontal Kerning in Latin lookup 0 per glyph data 1" u dx=0 dy=0 dh=-55 dv=0 dx=0 dy=0 dh=0 dv=0
PairPos2: "'kern' Horizontal Kerning in Latin lookup 0 per glyph data 1" s dx=0 dy=0 dh=-55 dv=0 dx=0 dy=0 dh=0 dv=0
PairPos2: "'kern' Horizontal Kerning in Latin lookup 0 per glyph data 1" r dx=0 dy=0 dh=-55 dv=0 dx=0 dy=0 dh=0 dv=0
PairPos2: "'kern' Horizontal Kerning in Latin lookup 0 per glyph data 1" o dx=0 dy=0 dh=-55 dv=0 dx=0 dy=0 dh=0 dv=0
PairPos2: "'kern' Horizontal Kerning in Latin lookup 0 per glyph data 1" i dx=0 dy=0 dh=-18 dv=0 dx=0 dy=0 dh=0 dv=0
PairPos2: "'kern' Horizontal Kerning in Latin lookup 0 per glyph data 1" e dx=0 dy=0 dh=-55 dv=0 dx=0 dy=0 dh=0 dv=0
PairPos2: "'kern' Horizontal Kerning in Latin lookup 0 per glyph data 1" c dx=0 dy=0 dh=-55 dv=0 dx=0 dy=0 dh=0 dv=0
PairPos2: "'kern' Horizontal Kerning in Latin lookup 0 per glyph data 1" a dx=0 dy=0 dh=-55 dv=0 dx=0 dy=0 dh=0 dv=0
PairPos2: "'kern' Horizontal Kerning in Latin lookup 0 per glyph data 1" A dx=0 dy=0 dh=-55 dv=0 dx=0 dy=0 dh=0 dv=0
PairPos2: "'kern' Horizontal Kerning in Latin lookup 0 per glyph data 1" semicolon dx=0 dy=0 dh=-37 dv=0 dx=0 dy=0 dh=0 dv=0
PairPos2: "'kern' Horizontal Kerning in Latin lookup 0 per glyph data 1" colon dx=0 dy=0 dh=-37 dv=0 dx=0 dy=0 dh=0 dv=0
PairPos2: "'kern' Horizontal Kerning in Latin lookup 0 per glyph data 1" period dx=0 dy=0 dh=-74 dv=0 dx=0 dy=0 dh=0 dv=0
PairPos2: "'kern' Horizontal Kerning in Latin lookup 0 per glyph data 1" hyphen dx=0 dy=0 dh=-55 dv=0 dx=0 dy=0 dh=0 dv=0
PairPos2: "'kern' Horizontal Kerning in Latin lookup 0 per glyph data 1" comma dx=0 dy=0 dh=-74 dv=0 dx=0 dy=0 dh=0 dv=0
EndChar

StartChar: U
Encoding: 85 85 56
Width: 1408
GlyphClass: 2
Flags: MW
LayerCount: 2
Fore
SplineSet
854 108 m 1,0,1
 1004.32081911 117.76109215 1004.32081911 117.76109215 1063 196 c 0,2,3
 1117 268 1117 268 1117 432 c 2,4,-1
 1117 1223 l 2,5,6
 1117 1292.76086957 1117 1292.76086957 1065 1316.5 c 0,7,8
 1042 1327 1042 1327 1014.5 1332.5 c 128,-1,9
 987 1338 987 1338 961 1350 c 1,10,-1
 961 1421 l 1,11,-1
 1399 1421 l 1,12,-1
 1399 1350 l 1,13,14
 1377 1339 1377 1339 1351.5 1334 c 128,-1,15
 1326 1329 1326 1329 1304.5 1319.5 c 0,16,17
 1254 1297.18604651 1254 1297.18604651 1254 1233 c 2,18,-1
 1254 444 l 2,19,20
 1254 232.031914894 1254 232.031914894 1166 122.5 c 0,21,22
 1071.82595523 5.28336980306 1071.82595523 5.28336980306 854 -20 c 1,23,-1
 854 108 l 1,0,1
765 -20 m 1,24,25
 313.528169014 -20 313.528169014 -20 213.5 192 c 0,26,27
 180 263 180 263 180 358 c 2,28,-1
 180 1233 l 2,29,30
 180 1296.27906977 180 1296.27906977 130.5 1317 c 0,31,32
 109 1326 109 1326 83.5 1331.5 c 128,-1,33
 58 1337 58 1337 35 1350 c 1,34,-1
 35 1421 l 1,35,-1
 671 1421 l 1,36,-1
 671 1350 l 1,37,38
 643 1339 643 1339 616 1334.5 c 128,-1,39
 589 1330 589 1330 568 1321 c 0,40,41
 521 1300.85714286 521 1300.85714286 521 1239 c 2,42,-1
 521 399 l 2,43,44
 521 199.638297872 521 199.638297872 649 137 c 0,45,46
 696 114 696 114 765 108 c 1,47,-1
 765 -20 l 1,24,25
EndSplineSet
EndChar

StartChar: V
Encoding: 86 86 57
Width: 1217
GlyphClass: 2
Flags: MW
LayerCount: 2
Fore
SplineSet
752 469 m 1,0,-1
 994 1176 l 2,1,2
 1007 1215 1007 1215 1007 1248 c 128,-1,3
 1007 1281 1007 1281 992 1295.5 c 128,-1,4
 977 1310 977 1310 956 1315.5 c 128,-1,5
 935 1321 935 1321 912 1324.5 c 128,-1,6
 889 1328 889 1328 873 1343 c 1,7,-1
 873 1421 l 1,8,-1
 1287 1421 l 1,9,-1
 1287 1346 l 1,10,11
 1270 1334 1270 1334 1250 1327.5 c 128,-1,12
 1230 1321 1230 1321 1210.5 1311.5 c 0,13,14
 1162.34693878 1288.04081633 1162.34693878 1288.04081633 1146 1239 c 2,15,-1
 814 291 l 1,16,-1
 752 469 l 1,0,-1
787 217 m 1,17,-1
 710 0 l 1,18,-1
 537 0 l 1,19,-1
 95 1241 l 2,20,21
 70.4311926606 1310.6116208 70.4311926606 1310.6116208 -11 1330 c 0,22,23
 -32 1335 -32 1335 -51 1346 c 1,24,-1
 -51 1421 l 1,25,-1
 585 1421 l 1,26,-1
 585 1348 l 1,27,28
 562 1339 562 1339 537 1333 c 128,-1,29
 512 1327 512 1327 490 1318 c 0,30,31
 440 1297.54545455 440 1297.54545455 440 1255 c 0,32,33
 440 1229.88888889 440 1229.88888889 468 1149 c 2,34,-1
 787 217 l 1,17,-1
EndSplineSet
PairPos2: "'kern' Horizontal Kerning in Latin lookup 0 per glyph data 1" oe dx=0 dy=0 dh=-55 dv=0 dx=0 dy=0 dh=0 dv=0
PairPos2: "'kern' Horizontal Kerning in Latin lookup 0 per glyph data 1" udieresis dx=0 dy=0 dh=-18 dv=0 dx=0 dy=0 dh=0 dv=0
PairPos2: "'kern' Horizontal Kerning in Latin lookup 0 per glyph data 1" ucircumflex dx=0 dy=0 dh=-18 dv=0 dx=0 dy=0 dh=0 dv=0
PairPos2: "'kern' Horizontal Kerning in Latin lookup 0 per glyph data 1" uacute dx=0 dy=0 dh=-18 dv=0 dx=0 dy=0 dh=0 dv=0
PairPos2: "'kern' Horizontal Kerning in Latin lookup 0 per glyph data 1" ugrave dx=0 dy=0 dh=-18 dv=0 dx=0 dy=0 dh=0 dv=0
PairPos2: "'kern' Horizontal Kerning in Latin lookup 0 per glyph data 1" oslash dx=0 dy=0 dh=-55 dv=0 dx=0 dy=0 dh=0 dv=0
PairPos2: "'kern' Horizontal Kerning in Latin lookup 0 per glyph data 1" odieresis dx=0 dy=0 dh=-41 dv=0 dx=0 dy=0 dh=0 dv=0
PairPos2: "'kern' Horizontal Kerning in Latin lookup 0 per glyph data 1" otilde dx=0 dy=0 dh=-55 dv=0 dx=0 dy=0 dh=0 dv=0
PairPos2: "'kern' Horizontal Kerning in Latin lookup 0 per glyph data 1" ocircumflex dx=0 dy=0 dh=-55 dv=0 dx=0 dy=0 dh=0 dv=0
PairPos2: "'kern' Horizontal Kerning in Latin lookup 0 per glyph data 1" oacute dx=0 dy=0 dh=-55 dv=0 dx=0 dy=0 dh=0 dv=0
PairPos2: "'kern' Horizontal Kerning in Latin lookup 0 per glyph data 1" ograve dx=0 dy=0 dh=-55 dv=0 dx=0 dy=0 dh=0 dv=0
PairPos2: "'kern' Horizontal Kerning in Latin lookup 0 per glyph data 1" edieresis dx=0 dy=0 dh=-28 dv=0 dx=0 dy=0 dh=0 dv=0
PairPos2: "'kern' Horizontal Kerning in Latin lookup 0 per glyph data 1" ecircumflex dx=0 dy=0 dh=-55 dv=0 dx=0 dy=0 dh=0 dv=0
PairPos2: "'kern' Horizontal Kerning in Latin lookup 0 per glyph data 1" eacute dx=0 dy=0 dh=-55 dv=0 dx=0 dy=0 dh=0 dv=0
PairPos2: "'kern' Horizontal Kerning in Latin lookup 0 per glyph data 1" egrave dx=0 dy=0 dh=-41 dv=0 dx=0 dy=0 dh=0 dv=0
PairPos2: "'kern' Horizontal Kerning in Latin lookup 0 per glyph data 1" ae dx=0 dy=0 dh=-55 dv=0 dx=0 dy=0 dh=0 dv=0
PairPos2: "'kern' Horizontal Kerning in Latin lookup 0 per glyph data 1" aring dx=0 dy=0 dh=-41 dv=0 dx=0 dy=0 dh=0 dv=0
PairPos2: "'kern' Horizontal Kerning in Latin lookup 0 per glyph data 1" adieresis dx=0 dy=0 dh=-28 dv=0 dx=0 dy=0 dh=0 dv=0
PairPos2: "'kern' Horizontal Kerning in Latin lookup 0 per glyph data 1" atilde dx=0 dy=0 dh=-41 dv=0 dx=0 dy=0 dh=0 dv=0
PairPos2: "'kern' Horizontal Kerning in Latin lookup 0 per glyph data 1" acircumflex dx=0 dy=0 dh=-41 dv=0 dx=0 dy=0 dh=0 dv=0
PairPos2: "'kern' Horizontal Kerning in Latin lookup 0 per glyph data 1" aacute dx=0 dy=0 dh=-55 dv=0 dx=0 dy=0 dh=0 dv=0
PairPos2: "'kern' Horizontal Kerning in Latin lookup 0 per glyph data 1" agrave dx=0 dy=0 dh=-41 dv=0 dx=0 dy=0 dh=0 dv=0
PairPos2: "'kern' Horizontal Kerning in Latin lookup 0 per glyph data 1" AE dx=0 dy=0 dh=-92 dv=0 dx=0 dy=0 dh=0 dv=0
PairPos2: "'kern' Horizontal Kerning in Latin lookup 0 per glyph data 1" Aring dx=0 dy=0 dh=-92 dv=0 dx=0 dy=0 dh=0 dv=0
PairPos2: "'kern' Horizontal Kerning in Latin lookup 0 per glyph data 1" Adieresis dx=0 dy=0 dh=-92 dv=0 dx=0 dy=0 dh=0 dv=0
PairPos2: "'kern' Horizontal Kerning in Latin lookup 0 per glyph data 1" Atilde dx=0 dy=0 dh=-92 dv=0 dx=0 dy=0 dh=0 dv=0
PairPos2: "'kern' Horizontal Kerning in Latin lookup 0 per glyph data 1" Acircumflex dx=0 dy=0 dh=-92 dv=0 dx=0 dy=0 dh=0 dv=0
PairPos2: "'kern' Horizontal Kerning in Latin lookup 0 per glyph data 1" Aacute dx=0 dy=0 dh=-92 dv=0 dx=0 dy=0 dh=0 dv=0
PairPos2: "'kern' Horizontal Kerning in Latin lookup 0 per glyph data 1" Agrave dx=0 dy=0 dh=-92 dv=0 dx=0 dy=0 dh=0 dv=0
PairPos2: "'kern' Horizontal Kerning in Latin lookup 0 per glyph data 1" u dx=0 dy=0 dh=-18 dv=0 dx=0 dy=0 dh=0 dv=0
PairPos2: "'kern' Horizontal Kerning in Latin lookup 0 per glyph data 1" r dx=0 dy=0 dh=-18 dv=0 dx=0 dy=0 dh=0 dv=0
PairPos2: "'kern' Horizontal Kerning in Latin lookup 0 per glyph data 1" o dx=0 dy=0 dh=-55 dv=0 dx=0 dy=0 dh=0 dv=0
PairPos2: "'kern' Horizontal Kerning in Latin lookup 0 per glyph data 1" e dx=0 dy=0 dh=-55 dv=0 dx=0 dy=0 dh=0 dv=0
PairPos2: "'kern' Horizontal Kerning in Latin lookup 0 per glyph data 1" a dx=0 dy=0 dh=-55 dv=0 dx=0 dy=0 dh=0 dv=0
PairPos2: "'kern' Horizontal Kerning in Latin lookup 0 per glyph data 1" A dx=0 dy=0 dh=-92 dv=0 dx=0 dy=0 dh=0 dv=0
PairPos2: "'kern' Horizontal Kerning in Latin lookup 0 per glyph data 1" semicolon dx=0 dy=0 dh=-37 dv=0 dx=0 dy=0 dh=0 dv=0
PairPos2: "'kern' Horizontal Kerning in Latin lookup 0 per glyph data 1" colon dx=0 dy=0 dh=-37 dv=0 dx=0 dy=0 dh=0 dv=0
PairPos2: "'kern' Horizontal Kerning in Latin lookup 0 per glyph data 1" period dx=0 dy=0 dh=-74 dv=0 dx=0 dy=0 dh=0 dv=0
PairPos2: "'kern' Horizontal Kerning in Latin lookup 0 per glyph data 1" hyphen dx=0 dy=0 dh=-18 dv=0 dx=0 dy=0 dh=0 dv=0
PairPos2: "'kern' Horizontal Kerning in Latin lookup 0 per glyph data 1" comma dx=0 dy=0 dh=-74 dv=0 dx=0 dy=0 dh=0 dv=0
EndChar

StartChar: W
Encoding: 87 87 58
Width: 1793
GlyphClass: 2
Flags: MW
LayerCount: 2
Fore
SplineSet
693 260 m 1,0,-1
 609 0 l 1,1,-1
 451 0 l 1,2,-1
 71 1235 l 2,3,4
 50.5344129555 1299.80769231 50.5344129555 1299.80769231 14 1321.5 c 0,5,6
 -2 1331 -2 1331 -17.5 1336.5 c 128,-1,7
 -33 1342 -33 1342 -46 1352 c 1,8,-1
 -46 1421 l 1,9,-1
 535 1421 l 1,10,-1
 535 1350 l 1,11,12
 515 1340 515 1340 494 1333.5 c 128,-1,13
 473 1327 473 1327 455.5 1318 c 0,14,15
 415 1297.17142857 415 1297.17142857 415 1259.58571429 c 128,-1,16
 415 1222 415 1222 428.5 1179 c 128,-1,17
 442 1136 442 1136 457 1085 c 2,18,-1
 693 260 l 1,0,-1
1403 577 m 1,19,-1
 1577 1149 l 2,20,21
 1599 1223 1599 1223 1599 1251 c 128,-1,22
 1599 1279 1599 1279 1585 1292.5 c 128,-1,23
 1571 1306 1571 1306 1548.5 1314.5 c 128,-1,24
 1526 1323 1526 1323 1499 1330 c 128,-1,25
 1472 1337 1472 1337 1447 1348 c 1,26,-1
 1447 1421 l 1,27,-1
 1869 1421 l 1,28,-1
 1869 1348 l 1,29,30
 1848 1336 1848 1336 1827 1327 c 128,-1,31
 1806 1318 1806 1318 1786.5 1303.5 c 0,32,33
 1742.75055188 1270.96835909 1742.75055188 1270.96835909 1717 1192 c 2,34,-1
 1459 386 l 1,35,-1
 1403 577 l 1,19,-1
1421 268 m 1,36,-1
 1333 0 l 1,37,-1
 1179 0 l 1,38,-1
 901 889 l 1,39,-1
 897 889 l 1,40,-1
 732 374 l 1,41,-1
 674 574 l 1,42,-1
 839 1077 l 1,43,44
 828 1111 828 1111 820 1152 c 128,-1,45
 812 1193 812 1193 797 1230 c 0,46,47
 761.95972382 1316.43268124 761.95972382 1316.43268124 678 1325 c 1,48,49
 659 1341.28571429 659 1341.28571429 659 1368 c 2,50,-1
 659 1421 l 1,51,-1
 1272 1421 l 1,52,-1
 1272 1343 l 1,53,54
 1250 1331 1250 1331 1225.5 1326 c 128,-1,55
 1201 1321 1201 1321 1180 1315 c 0,56,57
 1132 1301.28571429 1132 1301.28571429 1132 1257 c 0,58,59
 1132 1239 1132 1239 1139 1217 c 128,-1,60
 1146 1195 1146 1195 1151 1176 c 2,61,-1
 1421 268 l 1,36,-1
EndSplineSet
PairPos2: "'kern' Horizontal Kerning in Latin lookup 0 per glyph data 1" oe dx=0 dy=0 dh=-55 dv=0 dx=0 dy=0 dh=0 dv=0
PairPos2: "'kern' Horizontal Kerning in Latin lookup 0 per glyph data 1" oslash dx=0 dy=0 dh=-55 dv=0 dx=0 dy=0 dh=0 dv=0
PairPos2: "'kern' Horizontal Kerning in Latin lookup 0 per glyph data 1" odieresis dx=0 dy=0 dh=-41 dv=0 dx=0 dy=0 dh=0 dv=0
PairPos2: "'kern' Horizontal Kerning in Latin lookup 0 per glyph data 1" otilde dx=0 dy=0 dh=-55 dv=0 dx=0 dy=0 dh=0 dv=0
PairPos2: "'kern' Horizontal Kerning in Latin lookup 0 per glyph data 1" ocircumflex dx=0 dy=0 dh=-55 dv=0 dx=0 dy=0 dh=0 dv=0
PairPos2: "'kern' Horizontal Kerning in Latin lookup 0 per glyph data 1" oacute dx=0 dy=0 dh=-55 dv=0 dx=0 dy=0 dh=0 dv=0
PairPos2: "'kern' Horizontal Kerning in Latin lookup 0 per glyph data 1" ograve dx=0 dy=0 dh=-55 dv=0 dx=0 dy=0 dh=0 dv=0
PairPos2: "'kern' Horizontal Kerning in Latin lookup 0 per glyph data 1" edieresis dx=0 dy=0 dh=-55 dv=0 dx=0 dy=0 dh=0 dv=0
PairPos2: "'kern' Horizontal Kerning in Latin lookup 0 per glyph data 1" ecircumflex dx=0 dy=0 dh=-55 dv=0 dx=0 dy=0 dh=0 dv=0
PairPos2: "'kern' Horizontal Kerning in Latin lookup 0 per glyph data 1" eacute dx=0 dy=0 dh=-55 dv=0 dx=0 dy=0 dh=0 dv=0
PairPos2: "'kern' Horizontal Kerning in Latin lookup 0 per glyph data 1" egrave dx=0 dy=0 dh=-55 dv=0 dx=0 dy=0 dh=0 dv=0
PairPos2: "'kern' Horizontal Kerning in Latin lookup 0 per glyph data 1" ae dx=0 dy=0 dh=-55 dv=0 dx=0 dy=0 dh=0 dv=0
PairPos2: "'kern' Horizontal Kerning in Latin lookup 0 per glyph data 1" aring dx=0 dy=0 dh=-55 dv=0 dx=0 dy=0 dh=0 dv=0
PairPos2: "'kern' Horizontal Kerning in Latin lookup 0 per glyph data 1" adieresis dx=0 dy=0 dh=-41 dv=0 dx=0 dy=0 dh=0 dv=0
PairPos2: "'kern' Horizontal Kerning in Latin lookup 0 per glyph data 1" atilde dx=0 dy=0 dh=-55 dv=0 dx=0 dy=0 dh=0 dv=0
PairPos2: "'kern' Horizontal Kerning in Latin lookup 0 per glyph data 1" acircumflex dx=0 dy=0 dh=-55 dv=0 dx=0 dy=0 dh=0 dv=0
PairPos2: "'kern' Horizontal Kerning in Latin lookup 0 per glyph data 1" aacute dx=0 dy=0 dh=-55 dv=0 dx=0 dy=0 dh=0 dv=0
PairPos2: "'kern' Horizontal Kerning in Latin lookup 0 per glyph data 1" agrave dx=0 dy=0 dh=-55 dv=0 dx=0 dy=0 dh=0 dv=0
PairPos2: "'kern' Horizontal Kerning in Latin lookup 0 per glyph data 1" AE dx=0 dy=0 dh=-92 dv=0 dx=0 dy=0 dh=0 dv=0
PairPos2: "'kern' Horizontal Kerning in Latin lookup 0 per glyph data 1" Aring dx=0 dy=0 dh=-92 dv=0 dx=0 dy=0 dh=0 dv=0
PairPos2: "'kern' Horizontal Kerning in Latin lookup 0 per glyph data 1" Adieresis dx=0 dy=0 dh=-92 dv=0 dx=0 dy=0 dh=0 dv=0
PairPos2: "'kern' Horizontal Kerning in Latin lookup 0 per glyph data 1" Atilde dx=0 dy=0 dh=-92 dv=0 dx=0 dy=0 dh=0 dv=0
PairPos2: "'kern' Horizontal Kerning in Latin lookup 0 per glyph data 1" Acircumflex dx=0 dy=0 dh=-92 dv=0 dx=0 dy=0 dh=0 dv=0
PairPos2: "'kern' Horizontal Kerning in Latin lookup 0 per glyph data 1" Aacute dx=0 dy=0 dh=-92 dv=0 dx=0 dy=0 dh=0 dv=0
PairPos2: "'kern' Horizontal Kerning in Latin lookup 0 per glyph data 1" Agrave dx=0 dy=0 dh=-92 dv=0 dx=0 dy=0 dh=0 dv=0
PairPos2: "'kern' Horizontal Kerning in Latin lookup 0 per glyph data 1" o dx=0 dy=0 dh=-55 dv=0 dx=0 dy=0 dh=0 dv=0
PairPos2: "'kern' Horizontal Kerning in Latin lookup 0 per glyph data 1" e dx=0 dy=0 dh=-55 dv=0 dx=0 dy=0 dh=0 dv=0
PairPos2: "'kern' Horizontal Kerning in Latin lookup 0 per glyph data 1" a dx=0 dy=0 dh=-55 dv=0 dx=0 dy=0 dh=0 dv=0
PairPos2: "'kern' Horizontal Kerning in Latin lookup 0 per glyph data 1" A dx=0 dy=0 dh=-92 dv=0 dx=0 dy=0 dh=0 dv=0
PairPos2: "'kern' Horizontal Kerning in Latin lookup 0 per glyph data 1" semicolon dx=0 dy=0 dh=-18 dv=0 dx=0 dy=0 dh=0 dv=0
PairPos2: "'kern' Horizontal Kerning in Latin lookup 0 per glyph data 1" colon dx=0 dy=0 dh=-18 dv=0 dx=0 dy=0 dh=0 dv=0
PairPos2: "'kern' Horizontal Kerning in Latin lookup 0 per glyph data 1" period dx=0 dy=0 dh=-74 dv=0 dx=0 dy=0 dh=0 dv=0
PairPos2: "'kern' Horizontal Kerning in Latin lookup 0 per glyph data 1" hyphen dx=0 dy=0 dh=-18 dv=0 dx=0 dy=0 dh=0 dv=0
PairPos2: "'kern' Horizontal Kerning in Latin lookup 0 per glyph data 1" comma dx=0 dy=0 dh=-74 dv=0 dx=0 dy=0 dh=0 dv=0
EndChar

StartChar: X
Encoding: 88 88 59
Width: 1344
GlyphClass: 2
Flags: MW
LayerCount: 2
Fore
SplineSet
569 492 m 1,0,-1
 411 252 l 2,1,2
 365 183 365 183 365 156.5 c 128,-1,3
 365 130 365 130 379 118 c 128,-1,4
 393 106 393 106 414.5 99 c 128,-1,5
 436 92 436 92 461 86.5 c 128,-1,6
 486 81 486 81 508 70 c 1,7,-1
 508 0 l 1,8,-1
 9 0 l 1,9,-1
 9 70 l 1,10,11
 30 80 30 80 55.5 86.5 c 128,-1,12
 81 93 81 93 107.5 104 c 0,13,14
 171.19556172 130.439667129 171.19556172 130.439667129 214 193 c 2,15,-1
 497 610 l 1,16,-1
 569 492 l 1,0,-1
790 991 m 1,17,-1
 929 1196 l 2,18,19
 961 1242.22222222 961 1242.22222222 961 1267.61111111 c 128,-1,20
 961 1293 961 1293 948.5 1304 c 128,-1,21
 936 1315 936 1315 918 1322 c 128,-1,22
 900 1329 900 1329 878.5 1334.5 c 128,-1,23
 857 1340 857 1340 839 1350 c 1,24,-1
 839 1421 l 1,25,-1
 1305 1421 l 1,26,-1
 1305 1348 l 1,27,28
 1281 1339 1281 1339 1254 1333.5 c 128,-1,29
 1227 1328 1227 1328 1200 1318 c 0,30,31
 1133.87354651 1293.50872093 1133.87354651 1293.50872093 1097 1239 c 2,32,-1
 856 882 l 1,33,-1
 790 991 l 1,17,-1
1185 199 m 2,34,35
 1231.2247191 121.258426966 1231.2247191 121.258426966 1322 91 c 0,36,37
 1343 84 1343 84 1360 74 c 1,38,-1
 1360 0 l 1,39,-1
 706 0 l 1,40,-1
 706 72 l 1,41,42
 728 83 728 83 751.5 88.5 c 128,-1,43
 775 94 775 94 794.5 100.5 c 0,44,45
 839 115.333333333 839 115.333333333 839 150 c 0,46,47
 839 185.586206897 839 185.586206897 788 270 c 2,48,-1
 264 1139 l 2,49,50
 176.20754717 1285.32075472 176.20754717 1285.32075472 152.103773585 1301.16037736 c 128,-1,51
 128 1317 128 1317 110 1323.5 c 128,-1,52
 92 1330 92 1330 73.5 1334 c 128,-1,53
 55 1338 55 1338 39 1346 c 1,54,-1
 39 1421 l 1,55,-1
 683 1421 l 1,56,-1
 683 1350 l 1,57,58
 659 1340 659 1340 635 1335 c 128,-1,59
 611 1330 611 1330 592 1324 c 0,60,61
 550 1310.73684211 550 1310.73684211 550 1280 c 0,62,63
 550 1264.42105263 550 1264.42105263 593 1192 c 2,64,-1
 1185 199 l 2,34,35
EndSplineSet
EndChar

StartChar: Y
Encoding: 89 89 60
Width: 1153
GlyphClass: 2
Flags: MW
LayerCount: 2
Fore
SplineSet
757 665 m 1,0,-1
 757 180 l 2,1,2
 757 121.659090909 757 121.659090909 804 103.5 c 0,3,4
 826 95 826 95 854.5 90 c 128,-1,5
 883 85 883 85 915 74 c 1,6,-1
 915 0 l 1,7,-1
 262 0 l 1,8,-1
 262 74 l 1,9,10
 294 85 294 85 323.5 90.5 c 128,-1,11
 353 96 353 96 375.5 104.5 c 0,12,13
 425 123.2 425 123.2 425 178 c 2,14,-1
 425 614 l 1,15,-1
 115 1208 l 2,16,17
 61.8869123253 1309.97712834 61.8869123253 1309.97712834 -18 1331 c 0,18,19
 -37 1336 -37 1336 -53 1346 c 1,20,-1
 -53 1421 l 1,21,-1
 588 1421 l 1,22,-1
 588 1346 l 1,23,24
 566 1337 566 1337 542 1332 c 128,-1,25
 518 1327 518 1327 498.5 1320.5 c 0,26,27
 454 1305.66666667 454 1305.66666667 454 1272 c 256,28,29
 454 1251 454 1251 471 1219 c 128,-1,30
 488 1187 488 1187 510 1145 c 2,31,-1
 757 665 l 1,0,-1
739 864 m 1,32,-1
 869 1120 l 2,33,34
 924 1228.03571429 924 1228.03571429 924 1258.01785714 c 128,-1,35
 924 1288 924 1288 910.5 1300 c 128,-1,36
 897 1312 897 1312 876 1319 c 128,-1,37
 855 1326 855 1326 830 1331.5 c 128,-1,38
 805 1337 805 1337 781 1346 c 1,39,-1
 781 1421 l 1,40,-1
 1206 1421 l 1,41,-1
 1206 1350 l 1,42,43
 1190 1337 1190 1337 1173 1331 c 128,-1,44
 1156 1325 1156 1325 1137.5 1314.5 c 0,45,46
 1091.49070632 1288.3866171 1091.49070632 1288.3866171 1058 1223 c 2,47,-1
 803 730 l 1,48,-1
 739 864 l 1,32,-1
EndSplineSet
EndChar

StartChar: Z
Encoding: 90 90 61
Width: 1153
GlyphClass: 2
Flags: MW
LayerCount: 2
Fore
SplineSet
493 107 m 1,0,-1
 605 113 l 2,1,2
 842.418881885 125.764456015 842.418881885 125.764456015 923.5 265.5 c 0,3,4
 949.242639594 309.864974619 949.242639594 309.864974619 984.621319797 391.43248731 c 128,-1,5
 1020 473 1020 473 1049 508 c 1,6,-1
 1120 508 l 1,7,-1
 1120 0 l 1,8,-1
 433 0 l 1,9,-1
 493 107 l 1,0,-1
132 1436 m 1,10,11
 244.5 1421 244.5 1421 385 1421 c 2,12,-1
 716 1421 l 1,13,-1
 662 1325 l 1,14,-1
 636 1325 l 2,15,16
 404.945945946 1325 404.945945946 1325 315 1197 c 0,17,18
 273.841603053 1138.42843511 273.841603053 1138.42843511 247.920801527 1066.71421756 c 128,-1,19
 222 995 222 995 203 958 c 1,20,-1
 132 958 l 1,21,-1
 132 1436 l 1,10,11
795 1421 m 1,22,-1
 1089 1421 l 1,23,-1
 1089 1315 l 1,24,-1
 353 0 l 1,25,-1
 77 0 l 1,26,-1
 77 150 l 1,27,-1
 795 1421 l 1,22,-1
EndSplineSet
EndChar

StartChar: bracketleft
Encoding: 91 91 62
Width: 1023
GlyphClass: 2
Flags: MW
LayerCount: 2
Fore
SplineSet
563 -186 m 2,0,1
 563 -244.830508475 563 -244.830508475 629.5 -268.5 c 0,2,3
 659 -279 659 -279 694.5 -285 c 128,-1,4
 730 -291 730 -291 765 -301 c 1,5,-1
 765 -375 l 1,6,-1
 306 -375 l 1,7,-1
 306 1438 l 1,8,-1
 765 1438 l 1,9,-1
 765 1364 l 1,10,11
 730 1354 730 1354 694.5 1347.5 c 128,-1,12
 659 1341 659 1341 629.5 1330 c 0,13,14
 563 1305.20338983 563 1305.20338983 563 1247 c 2,15,-1
 563 -186 l 2,0,1
EndSplineSet
EndChar

StartChar: backslash
Encoding: 92 92 63
Width: 640
GlyphClass: 2
Flags: MW
LayerCount: 2
Fore
SplineSet
-111 1452 m 1,0,-1
 127 1452 l 1,1,-1
 751 -31 l 1,2,-1
 512 -31 l 1,3,-1
 -111 1452 l 1,0,-1
EndSplineSet
EndChar

StartChar: bracketright
Encoding: 93 93 64
Width: 1023
GlyphClass: 2
Flags: MW
LayerCount: 2
Fore
SplineSet
717 -375 m 1,0,-1
 258 -375 l 1,1,-1
 258 -301 l 1,2,3
 292 -291 292 -291 328.5 -285 c 128,-1,4
 365 -279 365 -279 394 -268.5 c 0,5,6
 461 -244.24137931 461 -244.24137931 461 -186 c 2,7,-1
 461 1247 l 2,8,9
 461 1323.90410959 461 1323.90410959 328.5 1347.5 c 0,10,11
 292 1354 292 1354 258 1364 c 1,12,-1
 258 1438 l 1,13,-1
 717 1438 l 1,14,-1
 717 -375 l 1,0,-1
EndSplineSet
EndChar

StartChar: asciicircum
Encoding: 94 94 65
Width: 1383
GlyphClass: 2
Flags: MW
LayerCount: 2
Fore
SplineSet
209 713 m 1,0,-1
 587 1421 l 1,1,-1
 794 1421 l 1,2,-1
 1173 713 l 1,3,-1
 929 713 l 1,4,-1
 691 1184 l 1,5,-1
 451 713 l 1,6,-1
 209 713 l 1,0,-1
EndSplineSet
EndChar

StartChar: underscore
Encoding: 95 95 66
Width: 1153
GlyphClass: 2
Flags: MW
LayerCount: 2
Fore
SplineSet
0 -256 m 1,0,-1
 0 -154 l 1,1,-1
 1153 -154 l 1,2,-1
 1153 -256 l 1,3,-1
 0 -256 l 1,0,-1
EndSplineSet
EndChar

StartChar: grave
Encoding: 96 96 67
Width: 641
GlyphClass: 2
Flags: MW
LayerCount: 2
Fore
SplineSet
367 1120 m 1,0,-1
 53 1303 l 2,1,2
 5.8 1329.97142857 5.8 1329.97142857 -7.1 1343.48571429 c 0,3,4
 -30 1367.47619048 -30 1367.47619048 -30 1397.23809524 c 128,-1,5
 -30 1427 -30 1427 -20.5 1443 c 128,-1,6
 -11 1459 -11 1459 3.5 1470 c 0,7,8
 33.8181818182 1493 33.8181818182 1493 67.4090909091 1493 c 0,9,10
 134.833333333 1493 134.833333333 1493 199 1427 c 1,11,-1
 491 1120 l 1,12,-1
 367 1120 l 1,0,-1
EndSplineSet
EndChar

StartChar: a
Encoding: 97 97 68
Width: 1153
GlyphClass: 2
Flags: MW
LayerCount: 2
Fore
SplineSet
887 -15 m 0,0,1
 735.666666667 -15 735.666666667 -15 659 54 c 1,2,-1
 659 648 l 2,3,4
 659 776 659 776 648.5 814.5 c 0,5,6
 627.782857143 890.462857143 627.782857143 890.462857143 566 905 c 1,7,-1
 566 1025 l 1,8,9
 957 1011.36046512 957 1011.36046512 957 673 c 2,10,-1
 957 225 l 2,11,12
 957 105 957 105 1013 105 c 0,13,14
 1059 105 1059 105 1069 227 c 1,15,-1
 1141 209 l 1,16,17
 1115.91504425 39.6765486726 1115.91504425 39.6765486726 994 -0.5 c 0,18,19
 950 -15 950 -15 887 -15 c 0,0,1
570 33 m 1,20,21
 512.769230769 -15 512.769230769 -15 420.384615385 -15 c 128,-1,22
 328 -15 328 -15 267 2.5 c 128,-1,23
 206 20 206 20 161.5 54.5 c 0,24,25
 67 127.764044944 67 127.764044944 67 257 c 0,26,27
 67 405.272727273 67 405.272727273 205 491 c 0,28,29
 304.47716895 552.796423135 304.47716895 552.796423135 570 625 c 1,30,-1
 570 519 l 1,31,32
 392 448.736842105 392 448.736842105 392 273 c 0,33,34
 392 158.27027027 392 158.27027027 446.5 118.5 c 0,35,36
 465 105 465 105 501 105 c 128,-1,37
 537 105 537 105 570 128 c 1,38,-1
 570 33 l 1,20,21
359 841 m 1,39,40
 427 810.290322581 427 810.290322581 427 749 c 0,41,42
 427 671.64 427 671.64 338 648.5 c 0,43,44
 313 642 313 642 288 642 c 0,45,46
 215 642 215 642 177 683 c 128,-1,47
 139 724 139 724 139 780.5 c 128,-1,48
 139 837 139 837 161 877.5 c 128,-1,49
 183 918 183 918 226 949.5 c 0,50,51
 318.509746993 1017.26876815 318.509746993 1017.26876815 477 1025 c 1,52,-1
 477 905 l 1,53,54
 397.683146067 900.042696629 397.683146067 900.042696629 359 841 c 1,39,40
EndSplineSet
EndChar

StartChar: b
Encoding: 98 98 69
Width: 1152
GlyphClass: 2
Flags: MW
LayerCount: 2
Fore
SplineSet
123 0 m 1,0,1
 134 157.666666667 134 157.666666667 134 192 c 2,2,-1
 134 1279 l 2,3,4
 134 1333.525 134 1333.525 87 1353.5 c 0,5,6
 67 1362 67 1362 45 1368 c 128,-1,7
 23 1374 23 1374 7 1386 c 1,8,-1
 7 1455 l 1,9,-1
 431 1455 l 1,10,-1
 431 -1 l 1,11,12
 357.978723404 24.8617021277 357.978723404 24.8617021277 288 76 c 1,13,14
 264.2 59.2 264.2 59.2 205 0 c 1,15,-1
 123 0 l 1,0,1
570 105 m 0,16,17
 731 105 731 105 731 505 c 128,-1,18
 731 905 731 905 565 905 c 0,19,20
 541 905 541 905 520 895 c 1,21,-1
 520 994 l 1,22,23
 582 1025 582 1025 661 1025 c 128,-1,24
 740 1025 740 1025 813 986 c 128,-1,25
 886 947 886 947 941.5 877.5 c 0,26,27
 1063 725.351351351 1063 725.351351351 1063 508 c 0,28,29
 1063 287.2 1063 287.2 942 142 c 0,30,31
 811.166666667 -15 811.166666667 -15 588 -15 c 0,32,33
 568 -15 568 -15 520 -9 c 1,34,-1
 520 113 l 1,35,36
 544 105 544 105 570 105 c 0,16,17
EndSplineSet
EndChar

StartChar: c
Encoding: 99 99 70
Width: 1003
GlyphClass: 2
Flags: MW
LayerCount: 2
Fore
SplineSet
748 868 m 1,0,1
 724.680412371 902.979381443 724.680412371 902.979381443 658 905 c 1,2,-1
 658 1025 l 1,3,4
 797.828793774 1013.34760052 797.828793774 1013.34760052 885.5 936.5 c 0,5,6
 970 862.432098765 970 862.432098765 970 760 c 0,7,8
 970 696.41025641 970 696.41025641 941 662.205128205 c 0,9,10
 888.260869565 600 888.260869565 600 810 600 c 0,11,12
 738.864864865 600 738.864864865 600 694 641.5 c 0,13,14
 654 678.5 654 678.5 654 729 c 0,15,16
 654 818.235294118 654 818.235294118 748 868 c 1,0,1
658 105 m 1,17,18
 802.185542169 107.720481928 802.185542169 107.720481928 862.5 236.5 c 0,19,20
 881 276 881 276 893 323 c 1,21,-1
 986 281 l 1,22,23
 923.919563736 15.2181322427 923.919563736 15.2181322427 658 -15 c 1,24,-1
 658 105 l 1,17,18
569 -15 m 1,25,26
 345.288772812 -13.054684981 345.288772812 -13.054684981 200.5 135 c 0,27,28
 62 276.62406015 62 276.62406015 62 491 c 0,29,30
 62 718.679389313 62 718.679389313 196.5 865.5 c 0,31,32
 335.422906688 1017.14866913 335.422906688 1017.14866913 569 1025 c 1,33,-1
 569 905 l 1,34,35
 481 881 481 881 434 779 c 128,-1,36
 387 677 387 677 387 510 c 0,37,38
 387 261.768115942 387 261.768115942 486.5 156.5 c 0,39,40
 521 120 521 120 569 105 c 1,41,-1
 569 -15 l 1,25,26
EndSplineSet
EndChar

StartChar: d
Encoding: 100 100 71
Width: 1152
GlyphClass: 2
Flags: MW
LayerCount: 2
Fore
SplineSet
699 94 m 1,0,-1
 699 1281 l 2,1,2
 699 1333.525 699 1333.525 652 1353.5 c 0,3,4
 632 1362 632 1362 609 1367.5 c 128,-1,5
 586 1373 586 1373 567 1386 c 1,6,-1
 567 1455 l 1,7,-1
 996 1455 l 1,8,-1
 996 168 l 2,9,10
 996 116.368421053 996 116.368421053 1042 97 c 0,11,12
 1061 89 1061 89 1081.5 83 c 128,-1,13
 1102 77 1102 77 1117 64 c 1,14,-1
 1117 0 l 1,15,-1
 712 0 l 1,16,-1
 699 94 l 1,0,-1
610 15 m 1,17,18
 550 -15 550 -15 465 -15 c 128,-1,19
 380 -15 380 -15 303 24.5 c 128,-1,20
 226 64 226 64 171.5 131.5 c 0,21,22
 57 273.311926606 57 273.311926606 57 484 c 0,23,24
 57 711.520661157 57 711.520661157 190.5 871.5 c 0,25,26
 318.593103448 1025 318.593103448 1025 497 1025 c 0,27,28
 566 1025 566 1025 610 1006 c 1,29,-1
 610 892 l 1,30,31
 588.875 905 588.875 905 547.4375 905 c 128,-1,32
 506 905 506 905 474.5 873 c 128,-1,33
 443 841 443 841 424 787.5 c 0,34,35
 389 688.947368421 389 688.947368421 389 557.973684211 c 128,-1,36
 389 427 389 427 394 352 c 128,-1,37
 399 277 399 277 415.5 222.5 c 0,38,39
 451.073394495 105 451.073394495 105 546 105 c 0,40,41
 590.5 105 590.5 105 610 123 c 1,42,-1
 610 15 l 1,17,18
EndSplineSet
EndChar

StartChar: e
Encoding: 101 101 72
Width: 1089
GlyphClass: 2
Flags: MW
LayerCount: 2
Fore
SplineSet
625 105 m 1,0,1
 825.998856271 115.396492566 825.998856271 115.396492566 895 327 c 1,2,-1
 987 285 l 1,3,4
 911.718380756 9.68436390611 911.718380756 9.68436390611 625 -15 c 1,5,-1
 625 105 l 1,0,1
595 1025 m 1,6,7
 800.502546689 1009.77758913 800.502546689 1009.77758913 904 861 c 0,8,9
 996 728.75 996 728.75 996 508 c 1,10,-1
 481 508 l 1,11,-1
 481 610 l 1,12,-1
 688 610 l 1,13,14
 688 738 688 738 668.5 812.5 c 128,-1,15
 649 887 649 887 595 905 c 1,16,-1
 595 1025 l 1,6,7
536 -15 m 1,17,18
 318.70182764 2.30693408173 318.70182764 2.30693408173 186 153.5 c 0,19,20
 62 294.778688525 62 294.778688525 62 501 c 0,21,22
 62 717.254237288 62 717.254237288 187 864.5 c 0,23,24
 311.325590582 1010.95133128 311.325590582 1010.95133128 506 1025 c 1,25,-1
 506 905 l 1,26,27
 440 882 440 882 413.5 781 c 128,-1,28
 387 680 387 680 387 553.5 c 128,-1,29
 387 427 387 427 393.5 364.5 c 128,-1,30
 400 302 400 302 417 251.5 c 0,31,32
 452.214285714 146.892857143 452.214285714 146.892857143 536 105 c 1,33,-1
 536 -15 l 1,17,18
EndSplineSet
EndChar

StartChar: f
Encoding: 102 102 73
Width: 747
GlyphClass: 2
Flags: MW
LayerCount: 2
Fore
SplineSet
486 170 m 2,0,1
 486 116.411764706 486 116.411764706 543.5 99.5 c 0,2,3
 569 92 569 92 600.5 85.5 c 128,-1,4
 632 79 632 79 662 64 c 1,5,-1
 662 0 l 1,6,-1
 46 0 l 1,7,-1
 46 64 l 1,8,9
 68 77 68 77 93.5 83 c 128,-1,10
 119 89 119 89 140 97 c 0,11,12
 189 115.666666667 189 115.666666667 189 168 c 2,13,-1
 189 871 l 1,14,-1
 39 871 l 1,15,-1
 39 943 l 1,16,17
 51 956 51 956 70.5 959 c 128,-1,18
 90 962 90 962 111.5 965 c 0,19,20
 169.461340206 973.087628866 169.461340206 973.087628866 189 1001 c 1,21,22
 195.663673469 1223.12244898 195.663673469 1223.12244898 251.5 1330.5 c 0,23,24
 319.239353891 1460.76798825 319.239353891 1460.76798825 486 1487 c 1,25,-1
 486 170 l 2,0,1
596 1396 m 0,26,27
 585 1396 585 1396 575 1394 c 1,28,-1
 575 1487 l 1,29,30
 722 1487 722 1487 797.5 1431.5 c 128,-1,31
 873 1376 873 1376 873 1279 c 0,32,33
 873 1186.125 873 1186.125 786 1153.5 c 0,34,35
 758 1143 758 1143 708 1143 c 128,-1,36
 658 1143 658 1143 622.5 1176.5 c 128,-1,37
 587 1210 587 1210 587 1256 c 128,-1,38
 587 1302 587 1302 609.5 1327.5 c 128,-1,39
 632 1353 632 1353 659 1361 c 1,40,41
 649.277777778 1396 649.277777778 1396 596 1396 c 0,26,27
575 981 m 1,42,-1
 717 981 l 1,43,-1
 717 871 l 1,44,-1
 575 871 l 1,45,-1
 575 981 l 1,42,-1
EndSplineSet
EndChar

StartChar: g
Encoding: 103 103 74
Width: 1102
GlyphClass: 2
Flags: MW
LayerCount: 2
Fore
SplineSet
177 24 m 1,0,1
 76 56.32 76 56.32 76 134 c 0,2,3
 76 217.4 76 217.4 194 300 c 1,4,-1
 308 264 l 1,5,6
 269 234 269 234 269 154 c 1,7,8
 690.104477612 154 690.104477612 154 847.5 88.5 c 0,9,10
 928 55 928 55 959 3.5 c 128,-1,11
 990 -48 990 -48 990 -119 c 128,-1,12
 990 -190 990 -190 954.5 -249 c 128,-1,13
 919 -308 919 -308 859 -351 c 0,14,15
 733.785553047 -440.737020316 733.785553047 -440.737020316 552 -449 c 1,16,-1
 552 -352 l 1,17,18
 695.418332185 -346.263266713 695.418332185 -346.263266713 736 -246.5 c 0,19,20
 748 -217 748 -217 748 -184 c 0,21,22
 748 -124 748 -124 687 -85 c 128,-1,23
 626 -46 626 -46 536 -46 c 0,24,25
 396 -46 396 -46 333 -55 c 1,26,27
 318 -92.5 318 -92.5 318 -136.75 c 2,28,-1
 318 -196 l 2,29,30
 318 -261 318 -261 349 -301 c 128,-1,31
 380 -341 380 -341 463 -350 c 1,32,-1
 463 -448 l 1,33,34
 228.007591093 -434.571862348 228.007591093 -434.571862348 150 -267 c 0,35,36
 123 -209 123 -209 123 -125.98 c 128,-1,37
 123 -42.96 123 -42.96 177 24 c 1,0,1
858 1085 m 0,38,39
 794 1085 794 1085 794 1005 c 0,40,41
 794 964.8 794 964.8 804.5 952.9 c 128,-1,42
 815 941 815 941 826.5 932 c 128,-1,43
 838 923 838 923 867.5 894 c 0,44,45
 932 830.593220339 932 830.593220339 932 684 c 0,46,47
 932 523.230769231 932 523.230769231 820 422 c 0,48,49
 713.038167939 325.322959483 713.038167939 325.322959483 552 315 c 1,50,-1
 552 410 l 1,51,52
 603 427 603 427 622.5 492 c 128,-1,53
 642 557 642 557 642 675 c 256,54,55
 642 793 642 793 622 852 c 128,-1,56
 602 911 602 911 552 926 c 1,57,-1
 552 1025 l 1,58,59
 640.293556086 1022.47732697 640.293556086 1022.47732697 697 1002 c 1,60,61
 697 1138.4625 697 1138.4625 824 1184.5 c 0,62,63
 864 1199 864 1199 913.5 1199 c 128,-1,64
 963 1199 963 1199 998.5 1186.5 c 128,-1,65
 1034 1174 1034 1174 1057 1152.5 c 0,66,67
 1101 1111.36956522 1101 1111.36956522 1101 1047.18478261 c 128,-1,68
 1101 983 1101 983 1066.5 951 c 128,-1,69
 1032 919 1032 919 976 919 c 128,-1,70
 920 919 920 919 885.5 950 c 128,-1,71
 851 981 851 981 851 1029 c 0,72,73
 851 1047 851 1047 856.5 1060.5 c 128,-1,74
 862 1074 862 1074 862 1079.5 c 128,-1,75
 862 1085 862 1085 858 1085 c 0,38,39
463 313 m 1,76,77
 163.606457651 322.072531586 163.606457651 322.072531586 93.5 509.5 c 0,78,79
 69 575 69 575 69 663 c 128,-1,80
 69 751 69 751 97.5 815.5 c 128,-1,81
 126 880 126 880 178 924.5 c 0,82,83
 280.932297447 1012.58629301 280.932297447 1012.58629301 463 1025 c 1,84,-1
 463 926 l 1,85,86
 403.857142857 916.142857143 403.857142857 916.142857143 381 859 c 0,87,88
 359 804 359 804 359 678 c 128,-1,89
 359 552 359 552 382 486 c 128,-1,90
 405 420 405 420 463 407 c 1,91,-1
 463 313 l 1,76,77
EndSplineSet
EndChar

StartChar: h
Encoding: 104 104 75
Width: 1194
GlyphClass: 2
Flags: MW
LayerCount: 2
Fore
SplineSet
686 892.5 m 128,-1,1
 668 905 668 905 628.5 905 c 128,-1,2
 589 905 589 905 555 888 c 1,3,-1
 555 977 l 1,4,5
 637 1025 637 1025 719.5 1025 c 128,-1,6
 802 1025 802 1025 855.5 1006 c 128,-1,7
 909 987 909 987 946.5 949.5 c 0,8,9
 1025 871 1025 871 1025 729 c 2,10,-1
 1025 168 l 2,11,12
 1025 116.2 1025 116.2 1073 97 c 0,13,14
 1093 89 1093 89 1115.5 83 c 128,-1,15
 1138 77 1138 77 1155 64 c 1,16,-1
 1155 0 l 1,17,-1
 680 0 l 1,18,-1
 680 63 l 1,19,20
 687 75 687 75 695.5 82 c 128,-1,21
 704 89 704 89 711 97 c 0,22,23
 728 116.428571429 728 116.428571429 728 154 c 2,24,-1
 728 715 l 2,25,26
 728 819.368421053 728 819.368421053 716 849.684210526 c 128,-1,0
 704 880 704 880 686 892.5 c 128,-1,1
466 168 m 2,27,28
 466 115.378378378 466 115.378378378 508.5 97 c 0,29,30
 527 89 527 89 549 83 c 128,-1,31
 571 77 571 77 590 64 c 1,32,-1
 590 0 l 1,33,-1
 39 0 l 1,34,-1
 39 64 l 1,35,36
 56 77 56 77 78.5 83 c 128,-1,37
 101 89 101 89 121 97 c 0,38,39
 169 116.2 169 116.2 169 168 c 2,40,-1
 169 1281 l 2,41,42
 169 1333.1 169 1333.1 121 1353.5 c 0,43,44
 101 1362 101 1362 78.5 1367.5 c 128,-1,45
 56 1373 56 1373 39 1386 c 1,46,-1
 39 1455 l 1,47,-1
 466 1455 l 1,48,-1
 466 168 l 2,27,28
EndSplineSet
EndChar

StartChar: i
Encoding: 105 105 76
Width: 641
GlyphClass: 2
Flags: MW
LayerCount: 2
Fore
SplineSet
468 168 m 2,0,1
 468 115.536585366 468 115.536585366 515.5 97 c 0,2,3
 536 89 536 89 559 83 c 128,-1,4
 582 77 582 77 602 64 c 1,5,-1
 602 0 l 1,6,-1
 39 0 l 1,7,-1
 39 64 l 1,8,9
 58 77 58 77 81 83 c 128,-1,10
 104 89 104 89 124 97 c 0,11,12
 171 115.8 171 115.8 171 168 c 2,13,-1
 171 831 l 2,14,15
 171 884.875 171 884.875 124 902.5 c 0,16,17
 104 910 104 910 81 915.5 c 128,-1,18
 58 921 58 921 39 935 c 1,19,-1
 39 1005 l 1,20,-1
 468 1005 l 1,21,-1
 468 168 l 2,0,1
302.5 1124 m 0,22,23
 264 1124 264 1124 233 1138 c 128,-1,24
 202 1152 202 1152 180 1176 c 0,25,26
 134 1226.18181818 134 1226.18181818 134 1298 c 0,27,28
 134 1368.27272727 134 1368.27272727 180 1419.5 c 0,29,30
 228.040816327 1473 228.040816327 1473 302 1473 c 0,31,32
 376.959183673 1473 376.959183673 1473 425 1419.5 c 0,33,34
 471 1368.27272727 471 1368.27272727 471 1298 c 0,35,36
 471 1226.18181818 471 1226.18181818 425 1176 c 0,37,38
 377.333333333 1124 377.333333333 1124 302.5 1124 c 0,22,23
EndSplineSet
EndChar

StartChar: j
Encoding: 106 106 77
Width: 641
GlyphClass: 2
Flags: MW
LayerCount: 2
Fore
SplineSet
36 -254 m 1,0,1
 52.796875 -304.390625 52.796875 -304.390625 97 -314 c 1,2,-1
 97 -420 l 1,3,-1
 89 -420 l 2,4,5
 -33.8947368421 -420 -33.8947368421 -420 -113.5 -359.5 c 128,-1,6
 -193 -299.08 -193 -299.08 -193 -208 c 0,7,8
 -193 -146.162162162 -193 -146.162162162 -164.5 -114.581081081 c 0,9,10
 -115.243902439 -60 -115.243902439 -60 -45 -60 c 0,11,12
 48.6136363636 -60 48.6136363636 -60 73.5 -133 c 0,13,14
 81 -155 81 -155 81 -179 c 0,15,16
 81 -239 81 -239 36 -254 c 1,0,1
186 -299 m 1,17,18
 224 -272 224 -272 224 -212 c 0,19,20
 224 -180.285714286 224 -180.285714286 217.5 -130.142857143 c 0,21,22
 205 -33.7142857143 205 -33.7142857143 205 10 c 2,23,-1
 205 831 l 2,24,25
 205 882.875 205 882.875 158 900.5 c 0,26,27
 138 908 138 908 115.5 912.5 c 128,-1,28
 93 917 93 917 74 931 c 1,29,-1
 74 1005 l 1,30,-1
 502 1005 l 1,31,-1
 502 54 l 2,32,33
 502 -364.042253521 502 -364.042253521 186 -413 c 1,34,-1
 186 -299 l 1,17,18
402 1138 m 128,-1,36
 371 1124 371 1124 332.5 1124 c 128,-1,37
 294 1124 294 1124 263 1138 c 128,-1,38
 232 1152 232 1152 209.5 1176 c 0,39,40
 163 1225.6 163 1225.6 163 1298 c 0,41,42
 163 1368.86666667 163 1368.86666667 209.5 1419.5 c 0,43,44
 258.632653061 1473 258.632653061 1473 332 1473 c 0,45,46
 407.551020408 1473 407.551020408 1473 454.5 1419.5 c 0,47,48
 500 1367.65116279 500 1367.65116279 500 1315.3255814 c 128,-1,49
 500 1263 500 1263 488 1231.5 c 128,-1,50
 476 1200 476 1200 454.5 1176 c 128,-1,35
 433 1152 433 1152 402 1138 c 128,-1,36
EndSplineSet
EndChar

StartChar: k
Encoding: 107 107 78
Width: 1152
GlyphClass: 2
Flags: MW
LayerCount: 2
Fore
SplineSet
552 629 m 1,0,-1
 717 774 l 2,1,2
 754 806 754 806 772.5 826 c 128,-1,3
 791 846 791 846 791 865 c 128,-1,4
 791 884 791 884 779.5 892.5 c 128,-1,5
 768 901 768 901 751 906 c 128,-1,6
 734 911 734 911 714 916.5 c 128,-1,7
 694 922 694 922 678 935 c 1,8,-1
 678 1005 l 1,9,-1
 1137 1005 l 1,10,-1
 1137 954 l 2,11,12
 1137 930.649122807 1137 930.649122807 1088.5 906.824561404 c 0,13,14
 979.519083969 853.290076336 979.519083969 853.290076336 955 831 c 2,15,-1
 773 671 l 1,16,-1
 1049 212 l 1,17,18
 1099.24663677 123.565919283 1099.24663677 123.565919283 1173.5 87.5 c 0,19,20
 1191 79 1191 79 1208 64 c 1,21,-1
 1208 0 l 1,22,-1
 682 0 l 1,23,-1
 681 68 l 2,24,25
 681 81.9677419355 681 81.9677419355 709.5 87.4838709677 c 128,-1,26
 738 93 738 93 751.5 97 c 128,-1,27
 765 101 765 101 765 110 c 1,28,29
 752.287128713 143.900990099 752.287128713 143.900990099 708.143564356 221.45049505 c 128,-1,30
 664 299 664 299 646 331 c 2,31,-1
 552 489 l 1,32,-1
 552 629 l 1,0,-1
165 1237 m 2,33,34
 165 1328.25806452 165 1328.25806452 138.5 1344.5 c 0,35,36
 120.340857788 1355.62979684 120.340857788 1355.62979684 83.6704288939 1364.31489842 c 128,-1,37
 47 1373 47 1373 35 1386 c 1,38,-1
 35 1455 l 1,39,-1
 463 1455 l 1,40,-1
 462 180 l 2,41,42
 462 126 462 126 505 104.5 c 0,43,44
 524 95 524 95 548 87.5 c 128,-1,45
 572 80 572 80 596 68 c 1,46,-1
 596 0 l 1,47,-1
 24 0 l 1,48,-1
 24 64 l 1,49,50
 46 77 46 77 71 83.5 c 128,-1,51
 96 90 96 90 117 99 c 0,52,53
 165 119.571428571 165 119.571428571 165 180 c 2,54,-1
 165 1237 l 2,33,34
EndSplineSet
EndChar

StartChar: l
Encoding: 108 108 79
Width: 641
GlyphClass: 2
Flags: MW
LayerCount: 2
Fore
SplineSet
468 168 m 2,0,1
 468 115.536585366 468 115.536585366 515.5 97 c 0,2,3
 536 89 536 89 559 83 c 128,-1,4
 582 77 582 77 602 64 c 1,5,-1
 602 0 l 1,6,-1
 39 0 l 1,7,-1
 39 64 l 1,8,9
 58 77 58 77 81 83 c 128,-1,10
 104 89 104 89 124 97 c 0,11,12
 171 115.8 171 115.8 171 168 c 2,13,-1
 171 1281 l 2,14,15
 171 1333.525 171 1333.525 124 1353.5 c 0,16,17
 104 1362 104 1362 81 1367.5 c 128,-1,18
 58 1373 58 1373 39 1386 c 1,19,-1
 39 1455 l 1,20,-1
 468 1455 l 1,21,-1
 468 168 l 2,0,1
EndSplineSet
EndChar

StartChar: m
Encoding: 109 109 80
Width: 1708
GlyphClass: 2
Flags: MW
LayerCount: 2
Fore
SplineSet
548 971 m 1,0,1
 618 1025 618 1025 719 1025 c 0,2,3
 867 1025 867 1025 935 958.5 c 128,-1,4
 1003 892 1003 892 1003 750 c 2,5,-1
 1003 168 l 2,6,7
 1003 116 1003 116 1039 98 c 0,8,9
 1055 90 1055 90 1073.5 83.5 c 128,-1,10
 1092 77 1092 77 1109 64 c 1,11,-1
 1109 0 l 1,12,-1
 705 0 l 1,13,-1
 705 715 l 2,14,15
 705 814.2 705 814.2 691.5 846.6 c 0,16,17
 667.166666667 905 667.166666667 905 610 905 c 0,18,19
 576 905 576 905 548 884 c 1,20,-1
 548 971 l 1,0,1
1093 984 m 1,21,22
 1164.75 1025 1164.75 1025 1248.375 1025 c 128,-1,23
 1332 1025 1332 1025 1385 1006 c 128,-1,24
 1438 987 1438 987 1473 946 c 0,25,26
 1544 862.828571429 1544 862.828571429 1544 689 c 2,27,-1
 1544 214 l 2,28,29
 1544 142.157894737 1544 142.157894737 1559.5 122.578947368 c 128,-1,30
 1575 103 1575 103 1588 98.5 c 128,-1,31
 1601 94 1601 94 1615.5 91 c 0,32,33
 1652.07167235 83.433447099 1652.07167235 83.433447099 1673 64 c 1,34,-1
 1673 0 l 1,35,-1
 1247 0 l 1,36,-1
 1247 715 l 2,37,38
 1247 816.842105263 1247 816.842105263 1234.5 848.421052632 c 0,39,40
 1212.10416667 905 1212.10416667 905 1153 905 c 0,41,42
 1121 905 1121 905 1093 886 c 1,43,-1
 1093 984 l 1,21,22
161 786 m 2,44,45
 161 860.6 161 860.6 145 879.8 c 128,-1,46
 129 899 129 899 116 902.5 c 128,-1,47
 103 906 103 906 89 908.5 c 0,48,49
 50.7333333333 915.333333333 50.7333333333 915.333333333 35 935 c 1,50,-1
 35 1005 l 1,51,-1
 459 1005 l 1,52,-1
 459 180 l 2,53,54
 459 125.886363636 459 125.886363636 508 102.5 c 0,55,56
 530 92 530 92 557.5 84 c 128,-1,57
 585 76 585 76 613 64 c 1,58,-1
 613 0 l 1,59,-1
 21 0 l 1,60,-1
 21 64 l 1,61,62
 43 77 43 77 67.5 83.5 c 128,-1,63
 92 90 92 90 113 99 c 0,64,65
 161 119.571428571 161 119.571428571 161 180 c 2,66,-1
 161 786 l 2,44,45
EndSplineSet
EndChar

StartChar: n
Encoding: 110 110 81
Width: 1194
GlyphClass: 2
Flags: MW
LayerCount: 2
Fore
SplineSet
555 961 m 1,0,1
 634.058823529 1025 634.058823529 1025 718.029411765 1025 c 128,-1,2
 802 1025 802 1025 855.5 1006 c 128,-1,3
 909 987 909 987 946.5 949.5 c 0,4,5
 1025 871 1025 871 1025 729 c 2,6,-1
 1025 210 l 2,7,8
 1025 110.481481481 1025 110.481481481 1070.5 97 c 0,9,10
 1084 93 1084 93 1098.5 90 c 0,11,12
 1136.95652174 82.0434782609 1136.95652174 82.0434782609 1155 64 c 1,13,-1
 1155 0 l 1,14,-1
 680 0 l 1,15,-1
 680 70 l 2,16,17
 680 92.5 680 92.5 696.5 106.25 c 128,-1,18
 713 120 713 120 720.5 130.5 c 128,-1,19
 728 141 728 141 728 164 c 2,20,-1
 728 719 l 2,21,22
 728 821.857142857 728 821.857142857 714.5 851.428571429 c 0,23,24
 690.043478261 905 690.043478261 905 639.02173913 905 c 128,-1,25
 588 905 588 905 555 880 c 1,26,-1
 555 961 l 1,0,1
466 210 m 2,27,28
 466 110.6 466 110.6 508.5 97 c 0,29,30
 521 93 521 93 535 90 c 0,31,32
 571.909090909 82.0909090909 571.909090909 82.0909090909 590 64 c 1,33,-1
 590 0 l 1,34,-1
 39 0 l 1,35,-1
 39 64 l 1,36,37
 56 77 56 77 78.5 83 c 128,-1,38
 101 89 101 89 121 97 c 0,39,40
 169 116.2 169 116.2 169 168 c 2,41,-1
 169 786 l 2,42,43
 169 857.484848485 169 857.484848485 136.5 889 c 0,44,45
 109.514442916 915.16781293 109.514442916 915.16781293 39 935 c 1,46,-1
 39 1005 l 1,47,-1
 466 1005 l 1,48,-1
 466 210 l 2,27,28
EndSplineSet
EndChar

StartChar: o
Encoding: 111 111 82
Width: 1130
GlyphClass: 2
Flags: MW
LayerCount: 2
Fore
SplineSet
520 905 m 1,0,1
 399 861 399 861 399 504 c 0,2,3
 399 328 399 328 426.5 229.5 c 128,-1,4
 454 131 454 131 520 105 c 1,5,-1
 520 -15 l 1,6,7
 321.112107623 1.07174887892 321.112107623 1.07174887892 192 145 c 0,8,9
 62 289.918032787 62 289.918032787 62 501 c 0,10,11
 62 707.902439024 62 707.902439024 192.5 857.5 c 0,12,13
 324.861271676 1009.23121387 324.861271676 1009.23121387 520 1025 c 1,14,-1
 520 905 l 1,0,1
731 504 m 0,15,16
 731 860.636363636 731 860.636363636 609 905 c 1,17,-1
 609 1025 l 1,18,19
 806.763613957 1009.0191019 806.763613957 1009.0191019 937 858.5 c 0,20,21
 1067 708.254098361 1067 708.254098361 1067 501 c 0,22,23
 1067 289.918032787 1067 289.918032787 937 145 c 0,24,25
 807.887892377 1.07174887892 807.887892377 1.07174887892 609 -15 c 1,26,-1
 609 105 l 1,27,28
 675 130 675 130 703 228.5 c 128,-1,29
 731 327 731 327 731 504 c 0,15,16
EndSplineSet
EndChar

StartChar: p
Encoding: 112 112 83
Width: 1153
GlyphClass: 2
Flags: MW
LayerCount: 2
Fore
SplineSet
443 -218 m 2,0,1
 443 -272.113636364 443 -272.113636364 492 -295.5 c 0,2,3
 514 -306 514 -306 541.5 -314 c 128,-1,4
 569 -322 569 -322 597 -334 c 1,5,-1
 597 -398 l 1,6,-1
 5 -398 l 1,7,-1
 5 -334 l 1,8,9
 27 -321 27 -321 51.5 -314.5 c 128,-1,10
 76 -308 76 -308 97 -299 c 0,11,12
 145 -278.428571429 145 -278.428571429 145 -218 c 2,13,-1
 145 831 l 2,14,15
 145 884.2 145 884.2 98 903 c 0,16,17
 78 911 78 911 55.5 916.5 c 128,-1,18
 33 922 33 922 14 935 c 1,19,-1
 14 1005 l 1,20,-1
 427 1005 l 1,21,-1
 443 878 l 1,22,-1
 443 -218 l 2,0,1
591 905 m 0,23,24
 560 905 560 905 532 891 c 1,25,-1
 532 999 l 1,26,27
 584 1025 584 1025 668 1025 c 128,-1,28
 752 1025 752 1025 829 982.5 c 128,-1,29
 906 940 906 940 962 867.5 c 0,30,31
 1081 713.4375 1081 713.4375 1081 495 c 0,32,33
 1081 272.810344828 1081 272.810344828 957 128.5 c 0,34,35
 833.696296296 -15 833.696296296 -15 650 -15 c 0,36,37
 583 -15 583 -15 532 5 c 1,38,-1
 532 116 l 1,39,40
 554 105 554 105 582 105 c 0,41,42
 750 105 750 105 750 505 c 128,-1,43
 750 905 750 905 591 905 c 0,23,24
EndSplineSet
EndChar

StartChar: q
Encoding: 113 113 84
Width: 1153
GlyphClass: 2
Flags: MW
LayerCount: 2
Fore
SplineSet
563 105 m 128,-1,1
 603.090909091 105 603.090909091 105 626 123 c 1,2,-1
 626 16 l 1,3,4
 564 -15 564 -15 480 -15 c 128,-1,5
 396 -15 396 -15 318.5 22 c 128,-1,6
 241 59 241 59 185 125.5 c 0,7,8
 67 265.625 67 265.625 67 493 c 0,9,10
 67 729.2 67 729.2 204.5 881 c 0,11,12
 334.934782609 1025 334.934782609 1025 515 1025 c 0,13,14
 575 1025 575 1025 626 1013 c 1,15,-1
 626 895 l 1,16,17
 607.666666667 905 607.666666667 905 568.833333333 905 c 128,-1,18
 530 905 530 905 497 875.5 c 128,-1,19
 464 846 464 846 442.5 792 c 0,20,21
 399 682.744186047 399 682.744186047 399 535.372093023 c 128,-1,22
 399 388 399 388 409.5 314 c 128,-1,23
 420 240 420 240 441 193.5 c 128,-1,24
 462 147 462 147 492.5 126 c 128,-1,0
 523 105 523 105 563 105 c 128,-1,1
1019 1005 m 1,25,26
 1012 954.25 1012 954.25 1012 862 c 2,27,-1
 1012 -218 l 2,28,29
 1012 -278.428571429 1012 -278.428571429 1060 -299 c 0,30,31
 1081 -308 1081 -308 1105.5 -314.5 c 128,-1,32
 1130 -321 1130 -321 1152 -334 c 1,33,-1
 1152 -398 l 1,34,-1
 560 -398 l 1,35,-1
 560 -334 l 1,36,37
 588 -322 588 -322 616 -314 c 128,-1,38
 644 -306 644 -306 666 -295.5 c 0,39,40
 715 -272.113636364 715 -272.113636364 715 -218 c 2,41,-1
 715 987 l 1,42,43
 760 968 760 968 792 948.5 c 128,-1,44
 824 929 824 929 847 916 c 1,45,46
 865.091370558 922.578680203 865.091370558 922.578680203 887.045685279 946.289340102 c 2,47,-1
 921.5 983.5 l 2,48,49
 934 997 934 997 943 1005 c 1,50,-1
 1019 1005 l 1,25,26
EndSplineSet
EndChar

StartChar: r
Encoding: 114 114 85
Width: 939
GlyphClass: 2
Flags: MW
LayerCount: 2
Fore
SplineSet
645 831 m 1,0,1
 598.906976744 831 598.906976744 831 551 728 c 1,2,-1
 545 919 l 1,3,4
 627.204081633 1025 627.204081633 1025 755 1025 c 0,5,6
 830.2 1025 830.2 1025 883 970 c 0,7,8
 933 917.916666667 933 917.916666667 933 849 c 0,9,10
 933 776.4 933 776.4 891 726 c 0,11,12
 846.833333333 673 846.833333333 673 779 673 c 0,13,14
 709.977777778 673 709.977777778 673 674.5 724.5 c 0,15,16
 645 767.322580645 645 767.322580645 645 831 c 1,0,1
447 1005 m 1,17,18
 468 768.75 468 768.75 468 474 c 2,19,-1
 468 178 l 2,20,21
 468 125.272727273 468 125.272727273 517 103 c 0,22,23
 539 93 539 93 565.5 85 c 128,-1,24
 592 77 592 77 618 64 c 1,25,-1
 618 0 l 1,26,-1
 39 0 l 1,27,-1
 39 64 l 1,28,29
 58 77 58 77 81 83 c 128,-1,30
 104 89 104 89 124 97 c 0,31,32
 171 115.8 171 115.8 171 168 c 2,33,-1
 171 831 l 2,34,35
 171 885.875 171 885.875 124 903.5 c 0,36,37
 104 911 104 911 81 916 c 128,-1,38
 58 921 58 921 39 935 c 1,39,-1
 39 1005 l 1,40,-1
 447 1005 l 1,17,18
EndSplineSet
EndChar

StartChar: s
Encoding: 115 115 86
Width: 959
GlyphClass: 2
Flags: MW
LayerCount: 2
Fore
SplineSet
439 905 m 1,0,1
 347 880.135135135 347 880.135135135 347 818 c 0,2,3
 347 718.363636364 347 718.363636364 522.5 651 c 0,4,5
 660.153846154 598.163170163 660.153846154 598.163170163 717.576923077 568.581585082 c 128,-1,6
 775 539 775 539 814 503.5 c 0,7,8
 901 424.307692308 901 424.307692308 901 305 c 0,9,10
 901 164.148514851 901 164.148514851 793.5 79 c 0,11,12
 690.396569828 -2.66608330417 690.396569828 -2.66608330417 528 -15 c 1,13,-1
 528 105 l 1,14,15
 633 129.705882353 633 129.705882353 633 221 c 0,16,17
 633 315.306122449 633 315.306122449 461 382 c 0,18,19
 326 434.346938776 326 434.346938776 269.5 463.173469388 c 128,-1,20
 213 492 213 492 175 526 c 0,21,22
 90 602.052631579 90 602.052631579 90 713 c 0,23,24
 90 833.265957447 90 833.265957447 192 925.5 c 0,25,26
 295.419321686 1019.01747174 295.419321686 1019.01747174 439 1025 c 1,27,-1
 439 905 l 1,0,1
713 884 m 1,28,29
 691.2 893.342857143 691.2 893.342857143 528 905 c 1,30,-1
 528 1025 l 1,31,32
 702.150068213 1017.5893588 702.150068213 1017.5893588 799.5 942 c 0,33,34
 882 877.941176471 882 877.941176471 882 800 c 0,35,36
 882 703.176470588 882 703.176470588 807.5 672.5 c 0,37,38
 782 662 782 662 736 662 c 128,-1,39
 690 662 690 662 660.5 691.5 c 128,-1,40
 631 721 631 721 631 764 c 0,41,42
 631 837.142857143 631 837.142857143 713 884 c 1,28,29
267 133 m 1,43,44
 293.374193548 110.393548387 293.374193548 110.393548387 439 105 c 1,45,-1
 439 -15 l 1,46,47
 272.922373577 -2.08285127822 272.922373577 -2.08285127822 178.5 73 c 0,48,49
 98 137.012048193 98 137.012048193 98 219 c 0,50,51
 98 273 98 273 128 307.5 c 128,-1,52
 158 342 158 342 219 342 c 128,-1,53
 280 342 280 342 309.5 315 c 128,-1,54
 339 288 339 288 339 245 c 0,55,56
 339 170.24137931 339 170.24137931 267 133 c 1,43,44
EndSplineSet
EndChar

StartChar: t
Encoding: 116 116 87
Width: 767
GlyphClass: 2
Flags: MW
LayerCount: 2
Fore
SplineSet
461 1345 m 1,0,-1
 461 -15 l 1,1,-1
 453 -15 l 2,2,3
 306 -15 306 -15 234.5 41 c 128,-1,4
 163 97 163 97 163 223 c 2,5,-1
 163 895 l 1,6,-1
 30 895 l 1,7,-1
 30 975 l 1,8,9
 45 991 45 991 68.5 999 c 128,-1,10
 92 1007 92 1007 116 1016 c 0,11,12
 175.469026549 1038.30088496 175.469026549 1038.30088496 191 1088 c 1,13,14
 243.638826185 1234.21896163 243.638826185 1234.21896163 273.819413093 1275.60948081 c 128,-1,15
 304 1317 304 1317 327 1343 c 1,16,-1
 461 1345 l 1,0,-1
550 105 m 1,17,18
 630.717391304 105 630.717391304 105 663.5 157 c 0,19,20
 678 180 678 180 686 209.5 c 128,-1,21
 694 239 694 239 704 269 c 1,22,-1
 785 237 l 1,23,24
 760.066546763 120.643884892 760.066546763 120.643884892 723.033273381 77.321942446 c 128,-1,25
 686 34 686 34 646.5 14 c 128,-1,26
 607 -6 607 -6 550 -15 c 1,27,-1
 550 105 l 1,17,18
550 1005 m 1,28,-1
 730 1005 l 1,29,-1
 730 895 l 1,30,-1
 550 895 l 1,31,-1
 550 1005 l 1,28,-1
EndSplineSet
EndChar

StartChar: u
Encoding: 117 117 88
Width: 1194
GlyphClass: 2
Flags: MW
LayerCount: 2
Fore
SplineSet
639 20 m 1,0,1
 572.684210526 -15 572.684210526 -15 440.842105263 -15 c 128,-1,2
 309 -15 309 -15 239 60 c 128,-1,3
 169 135 169 135 169 288 c 2,4,-1
 169 831 l 2,5,6
 169 883.8 169 883.8 121 903 c 0,7,8
 101 911 101 911 78.5 916 c 128,-1,9
 56 921 56 921 39 935 c 1,10,-1
 39 1005 l 1,11,-1
 466 1005 l 1,12,-1
 466 261 l 2,13,14
 466 185 466 185 490.5 145 c 128,-1,15
 515 105 515 105 561 105 c 128,-1,16
 607 105 607 105 639 126 c 1,17,-1
 639 20 l 1,0,1
729 831 m 2,18,19
 729 883.8 729 883.8 681 903 c 0,20,21
 661 911 661 911 638.5 916.5 c 128,-1,22
 616 922 616 922 597 935 c 1,23,-1
 597 1005 l 1,24,-1
 1025 1005 l 1,25,-1
 1025 172 l 2,26,27
 1025 121.2 1025 121.2 1073 102 c 0,28,29
 1093 94 1093 94 1115.5 88.5 c 128,-1,30
 1138 83 1138 83 1155 70 c 1,31,-1
 1155 0 l 1,32,-1
 729 0 l 1,33,-1
 729 831 l 2,18,19
EndSplineSet
EndChar

StartChar: v
Encoding: 118 118 89
Width: 959
GlyphClass: 2
Flags: MW
LayerCount: 2
Fore
SplineSet
615 432 m 1,0,-1
 733 770 l 2,1,2
 754 830.9 754 830.9 754 852.95 c 128,-1,3
 754 875 754 875 742.5 886 c 128,-1,4
 731 897 731 897 714.5 904 c 128,-1,5
 698 911 698 911 678.5 916.5 c 128,-1,6
 659 922 659 922 643 931 c 1,7,-1
 643 1005 l 1,8,-1
 1001 1005 l 1,9,-1
 1001 937 l 1,10,11
 987 928 987 928 969 921 c 128,-1,12
 951 914 951 914 934 905 c 0,13,14
 893.245033113 883.42384106 893.245033113 883.42384106 880 847 c 2,15,-1
 674 277 l 1,16,-1
 615 432 l 1,0,-1
571 0 m 1,17,-1
 394 0 l 1,18,-1
 74 820 l 2,19,20
 45.7702702703 890.574324324 45.7702702703 890.574324324 -22 912.5 c 0,21,22
 -39 918 -39 918 -55 929 c 1,23,-1
 -55 1005 l 1,24,-1
 493 1005 l 1,25,-1
 493 931 l 1,26,27
 477 920 477 920 456.5 914 c 128,-1,28
 436 908 436 908 417.5 901 c 0,29,30
 373 884.162162162 373 884.162162162 373 851 c 0,31,32
 373 823.494623656 373 823.494623656 474 555.247311828 c 128,-1,33
 575 287 575 287 627 145 c 1,34,-1
 571 0 l 1,17,-1
EndSplineSet
EndChar

StartChar: w
Encoding: 119 119 90
Width: 1408
GlyphClass: 2
Flags: MW
LayerCount: 2
Fore
SplineSet
493 0 m 1,0,-1
 325 0 l 1,1,-1
 69 833 l 2,2,3
 50.4206896552 894.931034483 50.4206896552 894.931034483 -17 916 c 0,4,5
 -33 921 -33 921 -46 929 c 1,6,-1
 -46 1005 l 1,7,-1
 473 1005 l 1,8,-1
 473 931 l 1,9,10
 461 923 461 923 443.5 918 c 128,-1,11
 426 913 426 913 410 906.5 c 0,12,13
 371 890.65625 371 890.65625 371 866.828125 c 0,14,15
 371 838 371 838 389 774 c 2,16,-1
 556 178 l 1,17,-1
 493 0 l 1,0,-1
553 509 m 1,18,-1
 674 920 l 1,19,-1
 899 920 l 1,20,-1
 1105 178 l 1,21,-1
 1042 0 l 1,22,-1
 871 0 l 1,23,-1
 699 640 l 1,24,-1
 693 640 l 1,25,-1
 606 329 l 1,26,-1
 553 509 l 1,18,-1
1102 506 m 1,27,-1
 1197 789 l 2,28,29
 1210 829 1210 829 1210 850.5 c 128,-1,30
 1210 872 1210 872 1198 884 c 128,-1,31
 1186 896 1186 896 1168.5 904 c 128,-1,32
 1151 912 1151 912 1130.5 917.5 c 128,-1,33
 1110 923 1110 923 1093 931 c 1,34,-1
 1093 1005 l 1,35,-1
 1445 1005 l 1,36,-1
 1445 937 l 1,37,38
 1431 925 1431 925 1415.5 920 c 128,-1,39
 1400 915 1400 915 1382.5 901 c 0,40,41
 1339.54545455 866.636363636 1339.54545455 866.636363636 1305 763 c 2,42,-1
 1155 325 l 1,43,-1
 1102 506 l 1,27,-1
EndSplineSet
EndChar

StartChar: x
Encoding: 120 120 91
Width: 1153
GlyphClass: 2
Flags: MW
LayerCount: 2
Fore
SplineSet
448 290 m 1,0,-1
 369 186 l 2,1,2
 347 156.142857143 347 156.142857143 347 134.071428571 c 128,-1,3
 347 112 347 112 358.5 103 c 128,-1,4
 370 94 370 94 387 88.5 c 128,-1,5
 404 83 404 83 424 78 c 128,-1,6
 444 73 444 73 461 62 c 1,7,-1
 461 0 l 1,8,-1
 21 0 l 1,9,-1
 21 70 l 1,10,11
 34 83 34 83 56 89 c 128,-1,12
 78 95 78 95 106.5 106 c 0,13,14
 181.873096447 135.091370558 181.873096447 135.091370558 245 214 c 2,15,-1
 380 383 l 1,16,-1
 448 290 l 1,0,-1
177 824 m 2,17,18
 125.333333333 895.041666667 125.333333333 895.041666667 60 917.5 c 0,19,20
 44 923 44 923 31 933 c 1,21,-1
 31 1005 l 1,22,-1
 595 1005 l 1,23,-1
 595 937 l 1,24,25
 581 928 581 928 565.5 922.5 c 128,-1,26
 550 917 550 917 537 910.5 c 0,27,28
 508 896 508 896 508 879 c 128,-1,29
 508 862 508 862 513.5 849 c 128,-1,30
 519 836 519 836 529.5 819.5 c 0,31,32
 541 801.428571429 541 801.428571429 592 731 c 2,33,-1
 999 162 l 2,34,35
 1044.70737913 96.4198473282 1044.70737913 96.4198473282 1112 82 c 0,36,37
 1126 79 1126 79 1137 70 c 1,38,-1
 1137 0 l 1,39,-1
 563 0 l 1,40,-1
 563 64 l 1,41,42
 576 75 576 75 591.5 84.5 c 128,-1,43
 607 94 607 94 621 104.5 c 0,44,45
 654 129.25 654 129.25 654 157 c 0,46,47
 654 159.642857143 654 159.642857143 618.5 207.821428571 c 128,-1,48
 583 256 583 256 574 269 c 2,49,-1
 177 824 l 2,17,18
700 734 m 1,50,-1
 763 814 l 2,51,52
 790 847.75 790 847.75 790 866.875 c 128,-1,53
 790 886 790 886 779.5 894.5 c 128,-1,54
 769 903 769 903 755 908 c 128,-1,55
 741 913 741 913 725.5 918 c 128,-1,56
 710 923 710 923 701 933 c 1,57,-1
 701 1005 l 1,58,-1
 1109 1005 l 1,59,-1
 1109 933 l 1,60,61
 1071 933 1071 933 1012 897.5 c 128,-1,62
 953 862 953 862 895 793 c 2,63,-1
 767 640 l 1,64,-1
 700 734 l 1,50,-1
EndSplineSet
EndChar

StartChar: y
Encoding: 121 121 92
Width: 1003
GlyphClass: 2
Flags: MW
LayerCount: 2
Fore
SplineSet
416 75 m 1,0,-1
 108 807 l 1,1,2
 69.453808752 895.429497569 69.453808752 895.429497569 -1 915 c 0,3,4
 -19 920 -19 920 -35 929 c 1,5,-1
 -35 1005 l 1,6,-1
 535 1005 l 1,7,-1
 535 931 l 1,8,9
 522 920 522 920 504 916.5 c 128,-1,10
 486 913 486 913 469 907.5 c 0,11,12
 428 894.235294118 428 894.235294118 428 850 c 0,13,14
 428 821.692307692 428 821.692307692 448 774 c 2,15,-1
 568 476 l 1,16,-1
 416 75 l 1,0,-1
245 -263 m 0,17,18
 245 -294 245 -294 277.5 -294 c 128,-1,19
 310 -294 310 -294 334.5 -276 c 128,-1,20
 359 -258 359 -258 381 -225.5 c 0,21,22
 418.414012739 -170.229299363 418.414012739 -170.229299363 465 -46 c 2,23,-1
 770 755 l 2,24,25
 798 827 798 827 798 850 c 128,-1,26
 798 873 798 873 786 885 c 128,-1,27
 774 897 774 897 755.5 904.5 c 128,-1,28
 737 912 737 912 715.5 917.5 c 128,-1,29
 694 923 694 923 675 931 c 1,30,-1
 675 1005 l 1,31,-1
 1047 1005 l 1,32,-1
 1047 958 l 2,33,34
 1047 934 1047 934 1031.5 924 c 128,-1,35
 1016 914 1016 914 995 904.5 c 128,-1,36
 974 895 974 895 952 879 c 128,-1,37
 930 863 930 863 917 828 c 2,38,-1
 556 -112 l 2,39,40
 498 -263 498 -263 420 -341.5 c 128,-1,41
 342 -420 342 -420 226 -420 c 0,42,43
 118.807017544 -420 118.807017544 -420 58.5 -357.5 c 0,44,45
 3 -299.981818182 3 -299.981818182 3 -218 c 0,46,47
 3 -109.754385965 3 -109.754385965 92.5 -70.5 c 0,48,49
 121 -58 121 -58 152.5 -58 c 128,-1,50
 184 -58 184 -58 207 -67.5 c 128,-1,51
 230 -77 230 -77 247.5 -92.5 c 0,52,53
 284 -124.828571429 284 -124.828571429 284 -158.414285714 c 128,-1,54
 284 -192 284 -192 278 -208 c 128,-1,55
 272 -224 272 -224 264.5 -234.5 c 128,-1,56
 257 -245 257 -245 251 -251 c 128,-1,57
 245 -257 245 -257 245 -263 c 0,17,18
EndSplineSet
EndChar

StartChar: z
Encoding: 122 122 93
Width: 959
GlyphClass: 2
Flags: MW
LayerCount: 2
Fore
SplineSet
484 99 m 1,0,1
 662.865036924 106.557677617 662.865036924 106.557677617 733 206.5 c 0,2,3
 753 235 753 235 769.5 265.5 c 0,4,5
 817.717985612 354.630215827 817.717985612 354.630215827 846 384 c 1,6,-1
 901 384 l 1,7,-1
 901 0 l 1,8,-1
 420 0 l 1,9,-1
 484 99 l 1,0,1
448 906 m 1,10,11
 295.413280476 903.456888008 295.413280476 903.456888008 238.5 815.5 c 0,12,13
 222 790 222 790 208.5 762 c 128,-1,14
 195 734 195 734 181.5 706 c 128,-1,15
 168 678 168 678 147 654 c 1,16,-1
 87 654 l 1,17,-1
 87 1005 l 1,18,-1
 512 1005 l 1,19,-1
 448 906 l 1,10,11
620 1005 m 1,20,-1
 897 1005 l 1,21,-1
 897 900 l 1,22,-1
 312 0 l 1,23,-1
 41 0 l 1,24,-1
 41 112 l 1,25,-1
 620 1005 l 1,20,-1
EndSplineSet
EndChar

StartChar: braceleft
Encoding: 123 123 94
Width: 1023
GlyphClass: 2
Flags: MW
LayerCount: 2
Fore
SplineSet
352 285 m 2,0,1
 352 393.631578947 352 393.631578947 326 433.315789474 c 128,-1,2
 300 473 300 473 266.5 494 c 128,-1,3
 233 515 233 515 180 530 c 1,4,5
 283.238312429 558.677309008 283.238312429 558.677309008 319.5 616.5 c 0,6,7
 352 668.324324324 352 668.324324324 352 776 c 2,8,-1
 352 1159 l 2,9,10
 352 1345.52380952 352 1345.52380952 454.5 1408 c 0,11,12
 543.09375 1462 543.09375 1462 779 1462 c 1,13,-1
 779 1407 l 1,14,15
 673.615384615 1393.82692308 673.615384615 1393.82692308 638 1331.5 c 0,16,17
 609 1280.75 609 1280.75 609 1153 c 2,18,-1
 609 809 l 2,19,20
 609 684.219512195 609 684.219512195 581.5 638.609756098 c 128,-1,21
 554 593 554 593 518 569.5 c 128,-1,22
 482 546 482 546 424 532 c 1,23,-1
 424 528 l 1,24,25
 534.378250591 501.356973995 534.378250591 501.356973995 574 434 c 0,26,27
 609 374.5 609 374.5 609 252 c 2,28,-1
 609 -94 l 2,29,30
 609 -221.75 609 -221.75 632.5 -262.875 c 128,-1,31
 656 -304 656 -304 689.5 -322 c 128,-1,32
 723 -340 723 -340 779 -346 c 1,33,-1
 779 -401 l 1,34,35
 540.923076923 -401 540.923076923 -401 454.5 -347.5 c 0,36,37
 352 -284.047619048 352 -284.047619048 352 -100 c 2,38,-1
 352 285 l 2,0,1
EndSplineSet
EndChar

StartChar: bar
Encoding: 124 124 95
Width: 512
GlyphClass: 2
Flags: MW
LayerCount: 2
Fore
SplineSet
134 1436 m 1,0,-1
 376 1436 l 1,1,-1
 376 0 l 1,2,-1
 134 0 l 1,3,-1
 134 1436 l 1,0,-1
EndSplineSet
EndChar

StartChar: braceright
Encoding: 125 125 96
Width: 1023
GlyphClass: 2
Flags: MW
LayerCount: 2
Fore
SplineSet
669 774 m 2,0,1
 669 665.368421053 669 665.368421053 695 625.684210526 c 128,-1,2
 721 586 721 586 754.5 565.5 c 128,-1,3
 788 545 788 545 842 530 c 1,4,5
 739.006339144 499.483359746 739.006339144 499.483359746 702 443 c 0,6,7
 669 392.631578947 669 392.631578947 669 285 c 2,8,-1
 669 -100 l 2,9,10
 669 -283.75 669 -283.75 567 -347.5 c 0,11,12
 481.4 -401 481.4 -401 242 -401 c 1,13,-1
 242 -346 l 1,14,15
 348.52173913 -334.586956522 348.52173913 -334.586956522 384 -272.5 c 0,16,17
 413 -221.75 413 -221.75 413 -94 c 2,18,-1
 413 252 l 2,19,20
 413 374.780487805 413 374.780487805 440.5 420.390243902 c 128,-1,21
 468 466 468 466 504 489.5 c 128,-1,22
 540 513 540 513 599 528 c 1,23,-1
 599 532 l 1,24,25
 441.082127493 569.472037544 441.082127493 569.472037544 420 705 c 0,26,27
 413 750 413 750 413 807 c 2,28,-1
 413 1153 l 2,29,30
 413 1280.75 413 1280.75 389.5 1321.875 c 128,-1,31
 366 1363 366 1363 332 1381.5 c 128,-1,32
 298 1400 298 1400 242 1407 c 1,33,-1
 242 1462 l 1,34,35
 479.8 1462 479.8 1462 567 1407.5 c 0,36,37
 669 1343.75 669 1343.75 669 1159 c 2,38,-1
 669 774 l 2,0,1
EndSplineSet
EndChar

StartChar: asciitilde
Encoding: 126 126 97
Width: 1383
GlyphClass: 2
Flags: MW
LayerCount: 2
Fore
SplineSet
443 449 m 0,0,1
 325 449 325 449 253 305 c 1,2,-1
 163 496 l 1,3,4
 217.847645429 573.28531856 217.847645429 573.28531856 262.923822715 604.64265928 c 0,5,6
 351.125 666 351.125 666 451 666 c 0,7,8
 544.944444444 666 544.944444444 666 705.5 598 c 128,-1,9
 866.055555556 530 866.055555556 530 914.527777778 530 c 128,-1,10
 963 530 963 530 991 542.5 c 128,-1,11
 1019 555 1019 555 1043 575.5 c 0,12,13
 1074.98294243 602.818763326 1074.98294243 602.818763326 1127 674 c 1,14,-1
 1219 485 l 1,15,16
 1141.43329098 399.409148666 1141.43329098 399.409148666 1101.71664549 371.204574333 c 0,17,18
 1019.75510204 313 1019.75510204 313 929 313 c 0,19,20
 855.333333333 313 855.333333333 313 793.666666667 338 c 128,-1,21
 732 363 732 363 695.5 381 c 128,-1,22
 659 399 659 399 619.5 414 c 0,23,24
 527.333333333 449 527.333333333 449 443 449 c 0,0,1
EndSplineSet
EndChar

StartChar: exclamdown
Encoding: 161 161 99
Width: 682
GlyphClass: 2
Flags: MW
LayerCount: 2
Fore
SplineSet
392 575 m 1,0,1
 412.477777778 411.177777778 412.477777778 411.177777778 451.738888889 192.588888889 c 128,-1,2
 491 -26 491 -26 504 -104.5 c 128,-1,3
 517 -183 517 -183 517 -232 c 128,-1,4
 517 -281 517 -281 506.5 -320.5 c 128,-1,5
 496 -360 496 -360 474.5 -388.5 c 0,6,7
 428.859649123 -449 428.859649123 -449 341 -449 c 0,8,9
 169 -449 169 -449 169 -233 c 0,10,11
 169 -168.361111111 169 -168.361111111 199.5 5.31944444444 c 0,12,13
 269.903614458 406.228915663 269.903614458 406.228915663 291 575 c 1,14,-1
 392 575 l 1,0,1
173 852 m 256,15,16
 173 925.727272727 173 925.727272727 220 977 c 0,17,18
 266.75 1028 266.75 1028 341 1028 c 256,19,20
 414.6875 1028 414.6875 1028 462.5 977 c 0,21,22
 510 926.333333333 510 926.333333333 510 852 c 256,23,24
 510 777.666666667 510 777.666666667 462.5 727 c 0,25,26
 414.6875 676 414.6875 676 341 676 c 256,27,28
 227.296875 676 227.296875 676 185.5 783 c 0,29,30
 173 815 173 815 173 852 c 256,15,16
EndSplineSet
EndChar

StartChar: cent
Encoding: 162 162 100
Width: 1153
GlyphClass: 2
Flags: MW
LayerCount: 2
Fore
SplineSet
634 348 m 0,0,1
 811.727272727 348 811.727272727 348 860 584 c 1,2,-1
 926 569 l 1,3,4
 898.099529254 363.234028245 898.099529254 363.234028245 756 293.5 c 0,5,6
 702 267 702 267 623 262 c 1,7,-1
 623 -16 l 1,8,-1
 548 -16 l 1,9,-1
 548 262 l 1,10,11
 365.655737705 273.279026534 365.655737705 273.279026534 257.5 416 c 0,12,13
 161 543.340206186 161 543.340206186 161 717 c 0,14,15
 161 900.355769231 161 900.355769231 272 1029.5 c 0,16,17
 380.563658838 1155.80964153 380.563658838 1155.80964153 548 1178 c 1,18,-1
 548 1401 l 1,19,-1
 623 1401 l 1,20,-1
 623 1184 l 1,21,22
 768.707692308 1180.16558704 768.707692308 1180.16558704 850 1108.5 c 0,23,24
 926 1041.5 926 1041.5 926 936 c 0,25,26
 926 867 926 867 888 833 c 128,-1,27
 850 799 850 799 801 799 c 128,-1,28
 752 799 752 799 728 810 c 128,-1,29
 704 821 704 821 689 839.5 c 0,30,31
 660 875.266666667 660 875.266666667 660 915.633333333 c 128,-1,32
 660 956 660 956 667 979 c 128,-1,33
 674 1002 674 1002 689 1019.5 c 0,34,35
 721.142857143 1057 721.142857143 1057 788 1057 c 1,36,37
 756.741935484 1114 756.741935484 1114 662 1114 c 0,38,39
 636.333333333 1114 636.333333333 1114 623 1110 c 1,40,-1
 623 350 l 1,41,42
 627 348 627 348 634 348 c 0,0,1
548 1081 m 1,43,44
 429 1005.0862069 429 1005.0862069 429 711 c 0,45,46
 429 573 429 573 455.5 487.5 c 128,-1,47
 482 402 482 402 548 371 c 1,48,-1
 548 1081 l 1,43,44
EndSplineSet
EndChar

StartChar: sterling
Encoding: 163 163 101
Width: 1152
GlyphClass: 2
Flags: MW
LayerCount: 2
Fore
SplineSet
491 139 m 1,0,1
 407 223 407 223 339 223 c 0,2,3
 297 223 297 223 273 205 c 128,-1,4
 249 187 249 187 249 154 c 128,-1,5
 249 121 249 121 285 98.5 c 128,-1,6
 321 76 321 76 369 76 c 0,7,8
 458.24 76 458.24 76 491 139 c 1,0,1
764 1315 m 1,9,10
 746.579150579 1354.1969112 746.579150579 1354.1969112 692 1363 c 1,11,-1
 692 1451 l 1,12,13
 901.436260623 1434.88951841 901.436260623 1434.88951841 972 1304.5 c 0,14,15
 995 1262 995 1262 995 1219.5 c 128,-1,16
 995 1177 995 1177 984 1150 c 128,-1,17
 973 1123 973 1123 953 1104.5 c 0,18,19
 910.297297297 1065 910.297297297 1065 842.648648649 1065 c 128,-1,20
 775 1065 775 1065 736.5 1102 c 128,-1,21
 698 1139 698 1139 698 1180.5 c 128,-1,22
 698 1222 698 1222 704 1240 c 128,-1,23
 710 1258 710 1258 719 1271 c 128,-1,24
 728 1284 728 1284 740 1294 c 128,-1,25
 752 1304 752 1304 764 1315 c 1,9,10
351 721 m 1,26,27
 236 876 236 876 236 1075 c 0,28,29
 236 1226.88659794 236 1226.88659794 338.5 1331.5 c 128,-1,30
 440.878610354 1435.98950954 440.878610354 1435.98950954 603 1450 c 1,31,-1
 603 1359 l 1,32,33
 566 1344 566 1344 541.5 1299.5 c 128,-1,34
 517 1255 517 1255 517 1189.5 c 128,-1,35
 517 1124 517 1124 534 1065.5 c 128,-1,36
 551 1007 551 1007 580 951 c 0,37,38
 610.306306306 892.477477477 610.306306306 892.477477477 732 721 c 1,39,-1
 1086 721 l 1,40,-1
 1086 621 l 1,41,-1
 782 621 l 1,42,43
 809 576 809 576 830 528 c 128,-1,44
 851 480 851 480 851 420 c 0,45,46
 851 255.464788732 851 255.464788732 722 141 c 1,47,48
 797.722222222 94 797.722222222 94 860 94 c 0,49,50
 972.885714286 94 972.885714286 94 1063 260 c 1,51,-1
 1153 197 l 1,52,53
 1086.73239437 51.2112676056 1086.73239437 51.2112676056 951 4 c 0,54,55
 905 -12 905 -12 851 -12 c 0,56,57
 735 -12 735 -12 618 66 c 1,58,59
 499.707317073 -31 499.707317073 -31 349 -31 c 0,60,61
 215.315789474 -31 215.315789474 -31 124.5 28.5 c 0,62,63
 30 90.4137931034 30 90.4137931034 30 186 c 0,64,65
 30 271.353846154 30 271.353846154 100.5 324.5 c 0,66,67
 167.489795918 375 167.489795918 375 281.591051805 375 c 128,-1,68
 395.692307692 375 395.692307692 375 565 233 c 1,69,70
 575 277 575 277 575 330 c 128,-1,71
 575 383 575 383 561.5 422 c 128,-1,72
 548 461 548 461 526.5 495.5 c 0,73,74
 503.830543933 531.876569038 503.830543933 531.876569038 427 621 c 1,75,-1
 55 621 l 1,76,-1
 55 721 l 1,77,-1
 351 721 l 1,26,27
EndSplineSet
EndChar

StartChar: currency
Encoding: 164 164 102
Width: 1153
GlyphClass: 2
Flags: MW
LayerCount: 2
Fore
SplineSet
268 1106 m 1,0,1
 397 1192 397 1192 577.15 1192 c 128,-1,2
 757.3 1192 757.3 1192 882 1106 c 1,3,-1
 1009 1221 l 1,4,-1
 1141 1104 l 1,5,-1
 1012 991 l 1,6,7
 1118 885 1118 885 1118 711 c 256,8,9
 1118 540.076923077 1118 540.076923077 1012 430 c 1,10,-1
 1141 315 l 1,11,-1
 1009 201 l 1,12,-1
 882 313 l 1,13,14
 753.789473684 229 753.789473684 229 577.210526316 229 c 128,-1,15
 400.631578947 229 400.631578947 229 268 313 c 1,16,-1
 141 201 l 1,17,-1
 11 315 l 1,18,-1
 139 430 l 1,19,20
 35 534 35 534 35 711 c 256,21,22
 35 890.851851852 35 890.851851852 139 991 c 1,23,-1
 11 1104 l 1,24,-1
 141 1221 l 1,25,-1
 268 1106 l 1,0,1
279 710.5 m 0,26,27
 279 655 279 655 301.5 605.5 c 128,-1,28
 324 556 324 556 364 519 c 0,29,30
 449.405405405 440 449.405405405 440 576 440 c 0,31,32
 701.594594595 440 701.594594595 440 787 519 c 0,33,34
 873 598.55 873 598.55 873 711 c 0,35,36
 873 821.45 873 821.45 787 901 c 0,37,38
 700.513513514 981 700.513513514 981 576 981 c 0,39,40
 450.486486486 981 450.486486486 981 364 901 c 0,41,42
 279 822.375 279 822.375 279 710.5 c 0,26,27
EndSplineSet
EndChar

StartChar: yen
Encoding: 165 165 103
Width: 1153
GlyphClass: 2
Flags: MW
LayerCount: 2
Fore
SplineSet
781 729 m 1,0,-1
 737 641 l 1,1,-1
 737 584 l 1,2,-1
 1088 584 l 1,3,-1
 1088 483 l 1,4,-1
 737 483 l 1,5,-1
 737 180 l 2,6,7
 737 122.119047619 737 122.119047619 783 103.5 c 0,8,9
 804 95 804 95 833 90 c 128,-1,10
 862 85 862 85 895 74 c 1,11,-1
 895 0 l 1,12,-1
 265 0 l 1,13,-1
 265 74 l 1,14,15
 296 85 296 85 325 90.5 c 128,-1,16
 354 96 354 96 376 104.5 c 0,17,18
 424 123.045454545 424 123.045454545 424 178 c 2,19,-1
 424 483 l 1,20,-1
 66 483 l 1,21,-1
 66 584 l 1,22,-1
 424 584 l 1,23,-1
 424 610 l 1,24,-1
 362 729 l 1,25,-1
 66 729 l 1,26,-1
 66 829 l 1,27,-1
 310 829 l 1,28,-1
 115 1208 l 2,29,30
 61.9855832241 1309.78768021 61.9855832241 1309.78768021 -16.5 1331 c 0,31,32
 -35 1336 -35 1336 -51 1346 c 1,33,-1
 -51 1421 l 1,34,-1
 556 1421 l 1,35,-1
 556 1346 l 1,36,37
 533 1337 533 1337 509.5 1331.5 c 128,-1,38
 486 1326 486 1326 466.5 1319.5 c 0,39,40
 422 1304.66666667 422 1304.66666667 422 1274 c 0,41,42
 422 1241.33333333 422 1241.33333333 486 1124 c 2,43,-1
 675 772 l 1,44,-1
 865 1145 l 2,45,46
 908 1231 908 1231 908 1264 c 256,47,48
 908 1313.07843137 908 1313.07843137 811.5 1332 c 0,49,50
 786 1337 786 1337 763 1346 c 1,51,-1
 763 1421 l 1,52,-1
 1185 1421 l 1,53,-1
 1185 1350 l 1,54,55
 1169 1337 1169 1337 1152 1331 c 128,-1,56
 1135 1325 1135 1325 1116.5 1314.5 c 0,57,58
 1069.90805687 1288.05592417 1069.90805687 1288.05592417 1035 1223 c 1,59,-1
 834 829 l 1,60,-1
 1088 829 l 1,61,-1
 1088 729 l 1,62,-1
 781 729 l 1,0,-1
EndSplineSet
EndChar

StartChar: brokenbar
Encoding: 166 166 104
Width: 512
GlyphClass: 2
Flags: MW
LayerCount: 2
Fore
SplineSet
134 535 m 1,0,-1
 376 535 l 1,1,-1
 376 0 l 1,2,-1
 134 0 l 1,3,-1
 134 535 l 1,0,-1
134 1436 m 1,4,-1
 376 1436 l 1,5,-1
 376 899 l 1,6,-1
 134 899 l 1,7,-1
 134 1436 l 1,4,-1
EndSplineSet
EndChar

StartChar: section
Encoding: 167 167 105
Width: 1258
GlyphClass: 2
Flags: MW
LayerCount: 2
Fore
SplineSet
765 1335 m 0,0,1
 765 1372.27027027 765 1372.27027027 682 1379 c 1,2,-1
 682 1450 l 1,3,4
 821.98153446 1438.4946684 821.98153446 1438.4946684 905.5 1374.5 c 0,5,6
 983 1315.11688312 983 1315.11688312 983 1235 c 0,7,8
 983 1142.96296296 983 1142.96296296 894 1110 c 0,9,10
 867 1100 867 1100 835 1100 c 128,-1,11
 803 1100 803 1100 777.5 1109 c 128,-1,12
 752 1118 752 1118 733.5 1133.5 c 0,13,14
 695 1165.75675676 695 1165.75675676 695 1204.37837838 c 128,-1,15
 695 1243 695 1243 706 1262.5 c 128,-1,16
 717 1282 717 1282 730 1295 c 128,-1,17
 743 1308 743 1308 754 1316.5 c 128,-1,18
 765 1325 765 1325 765 1335 c 0,0,1
473 -125 m 0,19,20
 473 -157.142857143 473 -157.142857143 556 -169 c 1,21,-1
 556 -243 l 1,22,23
 405.020156314 -235.635129576 405.020156314 -235.635129576 318 -163.5 c 0,24,25
 244 -102.157894737 244 -102.157894737 244 -21 c 0,26,27
 244 35.5 244 35.5 272.5 63.25 c 0,28,29
 323.594594595 113 323.594594595 113 390.297297297 113 c 128,-1,30
 457 113 457 113 498 81.5 c 128,-1,31
 539 50 539 50 539 10 c 128,-1,32
 539 -30 539 -30 528.5 -47 c 128,-1,33
 518 -64 518 -64 506 -77 c 128,-1,34
 494 -90 494 -90 483.5 -101 c 128,-1,35
 473 -112 473 -112 473 -125 c 0,19,20
593 1373 m 1,36,37
 486 1346.25 486 1346.25 486 1247 c 0,38,39
 486 1164.87037037 486 1164.87037037 677 1034 c 0,40,41
 829.307692308 929.641025641 829.307692308 929.641025641 891.153846154 879.820512821 c 128,-1,42
 953 830 953 830 995.5 781.5 c 0,43,44
 1090 673.658823529 1090 673.658823529 1090 561 c 0,45,46
 1090 410.555555556 1090 410.555555556 958.5 337.5 c 0,47,48
 909 310 909 310 834 299 c 1,49,50
 912.268456376 237.503355705 912.268456376 237.503355705 940.134228188 203.251677852 c 0,51,52
 998 132.125 998 132.125 998 58.5625 c 128,-1,53
 998 -15 998 -15 972 -65.5 c 128,-1,54
 946 -116 946 -116 899 -153.5 c 0,55,56
 803.56591825 -229.644214162 803.56591825 -229.644214162 645 -242 c 1,57,-1
 645 -169 l 1,58,59
 698 -161 698 -161 733.5 -130.5 c 128,-1,60
 769 -100 769 -100 769 -55 c 128,-1,61
 769 -10 769 -10 743.5 25 c 128,-1,62
 718 60 718 60 676 95 c 128,-1,63
 634 130 634 130 580 166 c 128,-1,64
 526 202 526 202 470 240.5 c 128,-1,65
 414 279 414 279 360 321 c 128,-1,66
 306 363 306 363 264 410.5 c 0,67,68
 171 515.678571429 171 515.678571429 171 627 c 0,69,70
 171 853.503937008 171 853.503937008 435 893 c 1,71,72
 265 1027.82758621 265 1027.82758621 265 1169 c 0,73,74
 265 1291.44827586 265 1291.44827586 357.5 1368 c 0,75,76
 445.216164208 1440.59268762 445.216164208 1440.59268762 593 1451 c 1,77,-1
 593 1373 l 1,36,37
385.5 795 m 128,-1,79
 354 767 354 767 354 735 c 128,-1,80
 354 703 354 703 361.5 680.5 c 128,-1,81
 369 658 369 658 388.5 631.5 c 0,82,83
 426.095011876 580.409342835 426.095011876 580.409342835 513.547505938 513.204671417 c 0,84,85
 693.391301787 375 693.391301787 375 779 375 c 0,86,87
 858.432432432 375 858.432432432 375 889.5 435.5 c 0,88,89
 899 454 899 454 899 475 c 128,-1,90
 899 496 899 496 890.5 519.5 c 128,-1,91
 882 543 882 543 860.5 571 c 0,92,93
 814.833594976 630.472527473 814.833594976 630.472527473 740.916797488 686.736263736 c 128,-1,94
 667 743 667 743 631.5 765 c 128,-1,95
 596 787 596 787 567.5 800 c 0,96,97
 517.076923077 823 517.076923077 823 467.038461538 823 c 128,-1,78
 417 823 417 823 385.5 795 c 128,-1,79
EndSplineSet
EndChar

StartChar: dieresis
Encoding: 168 168 106
Width: 641
GlyphClass: 2
Flags: MW
LayerCount: 2
Fore
SplineSet
-124 1218.5 m 128,-1,1
 -135 1242 -135 1242 -135 1268.5 c 128,-1,2
 -135 1295 -135 1295 -124 1318 c 128,-1,3
 -113 1341 -113 1341 -94 1358 c 0,4,5
 -52.6470588235 1395 -52.6470588235 1395 -7.82352941176 1395 c 128,-1,6
 37 1395 37 1395 63 1385 c 128,-1,7
 89 1375 89 1375 108.5 1358 c 0,8,9
 151 1320.94871795 151 1320.94871795 151 1281.47435897 c 128,-1,10
 151 1242 151 1242 139.5 1218.5 c 128,-1,11
 128 1195 128 1195 108.5 1178 c 0,12,13
 66.0588235294 1141 66.0588235294 1141 22.0294117647 1141 c 128,-1,14
 -22 1141 -22 1141 -48.5 1151 c 128,-1,15
 -75 1161 -75 1161 -94 1178 c 128,-1,0
 -113 1195 -113 1195 -124 1218.5 c 128,-1,1
499 1218.5 m 128,-1,17
 488 1242 488 1242 488 1268.5 c 128,-1,18
 488 1295 488 1295 499 1318 c 128,-1,19
 510 1341 510 1341 529 1358 c 0,20,21
 570.352941176 1395 570.352941176 1395 615.176470588 1395 c 128,-1,22
 660 1395 660 1395 686 1385 c 128,-1,23
 712 1375 712 1375 731.5 1358 c 0,24,25
 774 1320.94871795 774 1320.94871795 774 1281.47435897 c 128,-1,26
 774 1242 774 1242 762.5 1218.5 c 128,-1,27
 751 1195 751 1195 731.5 1178 c 0,28,29
 689.058823529 1141 689.058823529 1141 645.029411765 1141 c 128,-1,30
 601 1141 601 1141 574.5 1151 c 128,-1,31
 548 1161 548 1161 529 1178 c 128,-1,16
 510 1195 510 1195 499 1218.5 c 128,-1,17
EndSplineSet
EndChar

StartChar: copyright
Encoding: 169 169 107
Width: 1844
GlyphClass: 2
Flags: MW
LayerCount: 2
Fore
SplineSet
886 -31 m 1,0,1
 547.789173789 -22.0997150997 547.789173789 -22.0997150997 324 190.5 c 0,2,3
 184.479326747 323.04463959 184.479326747 323.04463959 130.5 513.5 c 0,4,5
 104 607 104 607 104 735 c 128,-1,6
 104 863 104 863 162 996 c 128,-1,7
 220 1129 220 1129 324 1228 c 0,8,9
 545.719963201 1439.06034959 545.719963201 1439.06034959 886 1451 c 1,10,-1
 886 1322 l 1,11,12
 630.261157755 1310.10517013 630.261157755 1310.10517013 466.5 1133.5 c 0,13,14
 306 960.411764706 306 960.411764706 306 709 c 0,15,16
 306 459.039215686 306 459.039215686 466.5 287 c 0,17,18
 630.817373258 110.868959383 630.817373258 110.868959383 886 99 c 1,19,-1
 886 -31 l 1,0,1
955 99 m 1,20,21
 1208.64869642 110.797613787 1208.64869642 110.797613787 1372.5 287.5 c 0,22,23
 1533 460.588235294 1533 460.588235294 1533 709 c 0,24,25
 1533 958.888888889 1533 958.888888889 1371.5 1132 c 0,26,27
 1207.2129878 1308.09849674 1207.2129878 1308.09849674 955 1322 c 1,28,-1
 955 1451 l 1,29,30
 1296.57404891 1439.01494565 1296.57404891 1439.01494565 1516.5 1227 c 0,31,32
 1736 1015.39568345 1736 1015.39568345 1736 709 c 0,33,34
 1736 556 1736 556 1678 423.5 c 128,-1,35
 1620 291 1620 291 1516.5 192 c 0,36,37
 1296.95281457 -18.0016556291 1296.95281457 -18.0016556291 955 -30 c 1,38,-1
 955 99 l 1,20,21
1219 907 m 1,39,40
 1147.55354201 1077.3723229 1147.55354201 1077.3723229 955 1087 c 1,41,-1
 955 1147 l 1,42,43
 1056.05515588 1144.93764988 1056.05515588 1144.93764988 1135.02757794 1129.46882494 c 0,44,45
 1278 1101.46391753 1278 1101.46391753 1278 1073 c 2,46,-1
 1278 907 l 1,47,-1
 1219 907 l 1,39,40
955 367 m 1,48,49
 1149.7627248 372.512152589 1149.7627248 372.512152589 1259 561 c 1,50,-1
 1314 561 l 1,51,-1
 1278 381 l 1,52,53
 1270.75345622 352.013824885 1270.75345622 352.013824885 1063.5 319 c 0,54,55
 1007 310 1007 310 955 308 c 1,56,-1
 955 367 l 1,48,49
886 1079 m 1,57,58
 747 1032.01408451 747 1032.01408451 747 729.455760202 c 128,-1,59
 747 426.897435897 747 426.897435897 886 377 c 1,60,-1
 886 308 l 1,61,62
 568.395384322 320.334159832 568.395384322 320.334159832 478.5 556.5 c 0,63,64
 449 634 449 634 449 722.5 c 128,-1,65
 449 811 449 811 474.5 882 c 128,-1,66
 500 953 500 953 553 1009 c 0,67,68
 670.114751372 1132.74388824 670.114751372 1132.74388824 886 1146 c 1,69,-1
 886 1079 l 1,57,58
EndSplineSet
EndChar

StartChar: ordfeminine
Encoding: 170 170 108
Width: 835
GlyphClass: 2
Flags: MW
LayerCount: 2
Fore
SplineSet
285 1254 m 0,0,1
 285 1154 285 1154 167 1154 c 256,2,3
 113 1154 113 1154 84 1185.5 c 128,-1,4
 55 1217 55 1217 55 1259 c 128,-1,5
 55 1301 55 1301 72 1333 c 128,-1,6
 89 1365 89 1365 120.5 1389 c 0,7,8
 183.073170732 1436.67479675 183.073170732 1436.67479675 294 1449 c 1,9,-1
 294 1380 l 1,10,11
 240.941176471 1369.38823529 240.941176471 1369.38823529 230 1330 c 1,12,13
 285 1309.04761905 285 1309.04761905 285 1254 c 0,0,1
457 1249 m 1,14,15
 452.873638344 1350.09586057 452.873638344 1350.09586057 383 1374 c 1,16,-1
 383 1451 l 1,17,18
 591.335155823 1440.0349918 591.335155823 1440.0349918 662 1305.5 c 0,19,20
 688 1256 688 1256 688 1185 c 2,21,-1
 688 834 l 2,22,23
 688 799 688 799 695 779.5 c 128,-1,24
 702 760 702 760 722 760 c 128,-1,25
 742 760 742 760 750 762.5 c 128,-1,26
 758 765 758 765 763.5 773 c 0,27,28
 773.157480315 787.047244094 773.157480315 787.047244094 777 837 c 1,29,-1
 835 821 l 1,30,31
 821.909090909 735.909090909 821.909090909 735.909090909 788.954545455 702.954545455 c 0,32,33
 730 644 730 644 624 644 c 128,-1,34
 518 644 518 644 457 705 c 1,35,-1
 457 1249 l 1,14,15
368 1053 m 1,36,37
 252 997.32 252 997.32 252 874 c 0,38,39
 252 787.1875 252 787.1875 302 757.5 c 0,40,41
 318 748 318 748 336 748 c 128,-1,42
 354 748 354 748 368 751 c 1,43,-1
 368 661 l 1,44,45
 322 644 322 644 263 644 c 128,-1,46
 204 644 204 644 156 658.5 c 128,-1,47
 108 673 108 673 73.5 700 c 0,48,49
 0 757.52173913 0 757.52173913 0 857 c 0,50,51
 0 1022.52631579 0 1022.52631579 229.5 1095 c 0,52,53
 296 1116 296 1116 368 1135 c 1,54,-1
 368 1053 l 1,36,37
EndSplineSet
EndChar

StartChar: guillemotleft
Encoding: 171 171 109
Width: 1152
GlyphClass: 2
Flags: MW
LayerCount: 2
Fore
SplineSet
978 1069 m 1,0,-1
 978 922 l 1,1,-1
 763 600 l 1,2,-1
 978 279 l 1,3,-1
 978 131 l 1,4,-1
 556 516 l 1,5,-1
 556 684 l 1,6,-1
 978 1069 l 1,0,-1
564 1069 m 1,7,-1
 564 922 l 1,8,-1
 348 600 l 1,9,-1
 564 279 l 1,10,-1
 564 131 l 1,11,-1
 142 516 l 1,12,-1
 142 684 l 1,13,-1
 564 1069 l 1,7,-1
EndSplineSet
EndChar

StartChar: logicalnot
Encoding: 172 172 110
Width: 1383
GlyphClass: 2
Flags: MW
LayerCount: 2
Fore
SplineSet
1001 594 m 1,0,-1
 139 594 l 1,1,-1
 139 809 l 1,2,-1
 1243 809 l 1,3,-1
 1243 170 l 1,4,-1
 1001 170 l 1,5,-1
 1001 594 l 1,0,-1
EndSplineSet
EndChar

StartChar: uni00AD
Encoding: 173 173 111
Width: 638
GlyphClass: 2
Flags: MW
LayerCount: 2
Fore
SplineSet
51 389 m 1,0,-1
 51 590 l 1,1,-1
 587 590 l 1,2,-1
 587 389 l 1,3,-1
 51 389 l 1,0,-1
EndSplineSet
EndChar

StartChar: registered
Encoding: 174 174 112
Width: 1844
GlyphClass: 2
Flags: MW
LayerCount: 2
Fore
SplineSet
873 -30 m 1,0,1
 536.267046654 -14.9672788685 536.267046654 -14.9672788685 320.5 194.5 c 0,2,3
 105 403.708029197 105 403.708029197 105 709 c 128,-1,4
 105 1014.35294118 105 1014.35294118 321 1224 c 0,5,6
 538.46585736 1435.06980273 538.46585736 1435.06980273 873 1451 c 1,7,-1
 873 1321 l 1,8,9
 622.999489744 1305.12695173 622.999489744 1305.12695173 463.5 1128.5 c 0,10,11
 307 955.194630872 307 955.194630872 307 709 c 256,12,13
 307 463.255033557 307 463.255033557 463.5 291 c 0,14,15
 622.585353328 115.899342646 622.585353328 115.899342646 873 100 c 1,16,-1
 873 -30 l 1,0,1
962 99 m 1,17,18
 1212.34500025 112.798543321 1212.34500025 112.798543321 1375.5 290 c 0,19,20
 1534 462.145695364 1534 462.145695364 1534 709 c 0,21,22
 1534 957.304635762 1534 957.304635762 1375.5 1130.5 c 0,23,24
 1214.82306173 1306.07413784 1214.82306173 1306.07413784 962 1322 c 1,25,-1
 961 1451 l 1,26,27
 1300.49019118 1435.023991 1300.49019118 1435.023991 1519 1225 c 0,28,29
 1737 1015.46601942 1737 1015.46601942 1737 709 c 128,-1,30
 1737 402.52173913 1737 402.52173913 1519 194 c 0,31,32
 1300.47574863 -15.0231969633 1300.47574863 -15.0231969633 962 -30 c 1,33,-1
 962 99 l 1,17,18
1085 705 m 1,34,35
 1241 497 1241 497 1356 362 c 1,36,-1
 1356 334 l 1,37,-1
 1138 334 l 2,38,39
 1094.23943662 334 1094.23943662 334 1027.5 455.5 c 0,40,41
 1008 491 1008 491 987.5 529 c 0,42,43
 935.149717514 626.039548023 935.149717514 626.039548023 900 678 c 1,44,-1
 848 678 l 1,45,-1
 848 461 l 2,46,47
 848 411.842105263 848 411.842105263 859 401.421052632 c 0,48,49
 878.604327666 382.848531685 878.604327666 382.848531685 947 381 c 1,50,-1
 947 334 l 1,51,-1
 527 334 l 1,52,-1
 527 381 l 1,53,54
 598.428571429 382.879699248 598.428571429 382.879699248 612.214285714 395.939849624 c 0,55,56
 630 412.789473684 630 412.789473684 630 461 c 2,57,-1
 630 991 l 2,58,59
 630 1041.21052632 630 1041.21052632 618.5 1052.10526316 c 0,60,61
 598.428571429 1071.12030075 598.428571429 1071.12030075 527 1073 c 1,62,-1
 527 1122 l 1,63,-1
 1006 1122 l 2,64,65
 1185.51898734 1122 1185.51898734 1122 1244 1006.5 c 0,66,67
 1264 967 1264 967 1264 923.5 c 128,-1,68
 1264 880 1264 880 1252 847.5 c 128,-1,69
 1240 815 1240 815 1217.5 787 c 0,70,71
 1168.84213278 726.447987454 1168.84213278 726.447987454 1085 705 c 1,34,35
892 737 m 2,72,73
 1027 737 1027 737 1027 905 c 0,74,75
 1027 1032.64285714 1027 1032.64285714 963 1055.5 c 0,76,77
 942 1063 942 1063 914 1063 c 2,78,-1
 848 1063 l 1,79,-1
 848 737 l 1,80,-1
 892 737 l 2,72,73
EndSplineSet
EndChar

StartChar: macron
Encoding: 175 175 113
Width: 640
GlyphClass: 2
Flags: MW
LayerCount: 2
Fore
SplineSet
-28 1198 m 1,0,-1
 -28 1331 l 1,1,-1
 666 1331 l 1,2,-1
 666 1198 l 1,3,-1
 -28 1198 l 1,0,-1
EndSplineSet
EndChar

StartChar: degree
Encoding: 176 176 114
Width: 921
GlyphClass: 2
Flags: MW
LayerCount: 2
Fore
SplineSet
459.5 1341 m 0,0,1
 420 1341 420 1341 385 1325.5 c 128,-1,2
 350 1310 350 1310 323.5 1284.5 c 0,3,4
 266 1229.16981132 266 1229.16981132 266 1157 c 256,5,6
 266 1084.24528302 266 1084.24528302 323.5 1030 c 0,7,8
 381.8 975 381.8 975 459 975 c 0,9,10
 539.2 975 539.2 975 597.5 1030 c 0,11,12
 655 1084.24528302 655 1084.24528302 655 1157 c 256,13,14
 655 1229.16981132 655 1229.16981132 597.5 1284.5 c 0,15,16
 538.784313725 1341 538.784313725 1341 459.5 1341 c 0,0,1
461 1452 m 0,17,18
 531 1452 531 1452 590.5 1429 c 128,-1,19
 650 1406 650 1406 694.5 1366.5 c 0,20,21
 790 1281.73033708 790 1281.73033708 790 1157 c 256,22,23
 790 1034.84269663 790 1034.84269663 694.5 949 c 0,24,25
 599.9375 864 599.9375 864 462 864 c 0,26,27
 320.625 864 320.625 864 225 949 c 0,28,29
 129 1034.33333333 129 1034.33333333 129 1157 c 256,30,31
 129 1282.23333333 129 1282.23333333 225 1366.5 c 0,32,33
 322.405063291 1452 322.405063291 1452 461 1452 c 0,17,18
EndSplineSet
EndChar

StartChar: plusminus
Encoding: 177 177 115
Width: 1383
GlyphClass: 2
Flags: MW
LayerCount: 2
Fore
SplineSet
570 981 m 1,0,-1
 812 981 l 1,1,-1
 812 741 l 1,2,-1
 1243 741 l 1,3,-1
 1243 526 l 1,4,-1
 812 526 l 1,5,-1
 812 287 l 1,6,-1
 570 287 l 1,7,-1
 570 526 l 1,8,-1
 139 526 l 1,9,-1
 139 741 l 1,10,-1
 570 741 l 1,11,-1
 570 981 l 1,0,-1
139 215 m 1,12,-1
 1243 215 l 1,13,-1
 1243 0 l 1,14,-1
 139 0 l 1,15,-1
 139 215 l 1,12,-1
EndSplineSet
EndChar

StartChar: twosuperior
Encoding: 178 178 116
Width: 691
GlyphClass: 2
Flags: MW
LayerCount: 2
Fore
SplineSet
163 1321 m 1,0,1
 260 1307.42 260 1307.42 260 1213 c 0,2,3
 260 1175 260 1175 232 1148 c 128,-1,4
 204 1121 204 1121 151.5 1121 c 128,-1,5
 99 1121 99 1121 68.5 1155 c 128,-1,6
 38 1189 38 1189 38 1236 c 128,-1,7
 38 1283 38 1283 59 1321.5 c 128,-1,8
 80 1360 80 1360 118 1389 c 0,9,10
 200.551724138 1452 200.551724138 1452 333 1452 c 0,11,12
 461.983606557 1452 461.983606557 1452 546 1389.5 c 0,13,14
 636 1322.54878049 636 1322.54878049 636 1209 c 0,15,16
 636 1077.85 636 1077.85 457 961.5 c 0,17,18
 407 929 407 929 355 895.5 c 0,19,20
 224.915993538 811.695880452 224.915993538 811.695880452 170 740 c 1,21,-1
 207 740 l 1,22,-1
 207 582 l 1,23,-1
 33 582 l 1,24,25
 33 654.866666667 33 654.866666667 46 686.933333333 c 128,-1,26
 59 719 59 719 71 740 c 1,27,28
 140 818 140 818 205.5 886.5 c 128,-1,29
 271 955 271 955 325.5 1018.5 c 0,30,31
 412 1119.28440367 412 1119.28440367 412 1223 c 0,32,33
 412 1334.09433962 412 1334.09433962 334.5 1376.5 c 0,34,35
 308 1391 308 1391 280.5 1391 c 128,-1,36
 253 1391 253 1391 234.5 1385 c 128,-1,37
 216 1379 216 1379 200.5 1369 c 0,38,39
 164.92689295 1346.04960836 164.92689295 1346.04960836 163 1321 c 1,0,1
277 740 m 1,40,-1
 379 740 l 2,41,42
 498.114285714 740 498.114285714 740 531.5 801.5 c 0,43,44
 541 819 541 819 549 836 c 0,45,46
 569.916666667 880.447916667 569.916666667 880.447916667 590 893 c 1,47,-1
 623 893 l 1,48,-1
 623 582 l 1,49,-1
 277 582 l 1,50,-1
 277 740 l 1,40,-1
EndSplineSet
EndChar

StartChar: threesuperior
Encoding: 179 179 117
Width: 725
GlyphClass: 2
Flags: MW
LayerCount: 2
Fore
SplineSet
288 1391 m 1,0,1
 237.489051095 1384.68613139 237.489051095 1384.68613139 210.5 1350.5 c 0,2,3
 203 1341 203 1341 203 1333 c 1,4,5
 245 1324 245 1324 265.5 1296.5 c 128,-1,6
 286 1269 286 1269 286 1230 c 128,-1,7
 286 1191 286 1191 254.5 1167 c 128,-1,8
 223 1143 223 1143 176.5 1143 c 128,-1,9
 130 1143 130 1143 98.5 1171.5 c 128,-1,10
 67 1200 67 1200 67 1245.5 c 128,-1,11
 67 1291 67 1291 83 1321.5 c 128,-1,12
 99 1352 99 1352 128 1377 c 0,13,14
 189.817288802 1430.29076621 189.817288802 1430.29076621 288 1446 c 1,15,-1
 288 1391 l 1,0,1
177 680 m 1,16,17
 196.86407767 630.339805825 196.86407767 630.339805825 288 626 c 1,18,-1
 288 564 l 1,19,20
 115.976825029 576.287369641 115.976825029 576.287369641 62.5 680 c 0,21,22
 46 712 46 712 46 759.5 c 128,-1,23
 46 807 46 807 81.5 837.5 c 128,-1,24
 117 868 117 868 168 868 c 0,25,26
 270 868 270 868 270 776 c 0,27,28
 270 694.727272727 270 694.727272727 205.5 683 c 0,29,30
 189 680 189 680 177 680 c 1,16,17
429 1036 m 1,31,32
 682 1010.18367347 682 1010.18367347 682 821 c 0,33,34
 682 719.222222222 682 719.222222222 596.5 648.5 c 0,35,36
 511.301274044 578.026979765 511.301274044 578.026979765 377 566 c 1,37,-1
 377 640 l 1,38,39
 449 676 449 676 449 811 c 0,40,41
 449 931 449 931 393 969 c 0,42,43
 348.789473684 999 348.789473684 999 231 999 c 0,44,45
 211 999 211 999 201.5 1009 c 128,-1,46
 192 1019 192 1019 192 1032.5 c 128,-1,47
 192 1046 192 1046 201.5 1057 c 128,-1,48
 211 1068 211 1068 231 1068 c 0,49,50
 435 1068 435 1068 435 1229 c 0,51,52
 435 1328 435 1328 377 1368 c 1,53,-1
 377 1452 l 1,54,55
 495.936507937 1447.96825397 495.936507937 1447.96825397 575.5 1387.5 c 128,-1,56
 655 1327.08 655 1327.08 655 1237 c 0,57,58
 655 1083.94444444 655 1083.94444444 429 1040 c 1,59,-1
 429 1036 l 1,31,32
EndSplineSet
EndChar

StartChar: acute
Encoding: 180 180 118
Width: 641
GlyphClass: 2
Flags: MW
LayerCount: 2
Fore
SplineSet
150 1120 m 1,0,-1
 443 1427 l 2,1,2
 507.166666667 1493 507.166666667 1493 570 1493 c 0,3,4
 631.8125 1493 631.8125 1493 661.5 1443 c 0,5,6
 671 1427 671 1427 671 1407 c 256,7,8
 671 1370.5 671 1370.5 654.5 1353.25 c 0,9,10
 632.273972603 1330.01369863 632.273972603 1330.01369863 585 1303 c 2,11,-1
 273 1120 l 1,12,-1
 150 1120 l 1,0,-1
EndSplineSet
EndChar

StartChar: mu
Encoding: 181 181 119
Width: 1208
GlyphClass: 2
Flags: MW
LayerCount: 2
Fore
SplineSet
466 -389 m 1,0,-1
 39 -389 l 1,1,-1
 39 -326 l 1,2,3
 56 -313 56 -313 78.5 -307.5 c 128,-1,4
 101 -302 101 -302 121 -294 c 0,5,6
 169 -274.8 169 -274.8 169 -225 c 2,7,-1
 169 811 l 2,8,9
 169 863.5 169 863.5 121 881.5 c 0,10,11
 101 889 101 889 78.5 894.5 c 128,-1,12
 56 900 56 900 39 913 c 1,13,-1
 39 981 l 1,14,-1
 466 981 l 1,15,-1
 466 -389 l 1,0,-1
592 104 m 0,16,17
 700.571428571 104 700.571428571 104 748 270 c 1,18,-1
 748 811 l 2,19,20
 748 863.875 748 863.875 701 881.5 c 0,21,22
 681 889 681 889 658.5 894.5 c 128,-1,23
 636 900 636 900 617 913 c 1,24,-1
 617 981 l 1,25,-1
 1045 981 l 1,26,-1
 1045 168 l 2,27,28
 1045 117.5 1045 117.5 1093 99.5 c 0,29,30
 1113 92 1113 92 1135.5 86.5 c 128,-1,31
 1158 81 1158 81 1175 68 c 1,32,-1
 1175 0 l 1,33,-1
 767 0 l 1,34,-1
 767 94 l 1,35,36
 668.6 -4.4 668.6 -4.4 555 -22 c 1,37,-1
 555 109 l 1,38,39
 570 104 570 104 592 104 c 0,16,17
EndSplineSet
EndChar

StartChar: paragraph
Encoding: 182 182 120
Width: 1406
GlyphClass: 2
Flags: MW
LayerCount: 2
Fore
SplineSet
733 -287 m 1,0,-1
 500 -287 l 1,1,-1
 500 580 l 1,2,3
 333.275229358 580 333.275229358 580 228 692.5 c 0,4,5
 120 807.911764706 120 807.911764706 120 1010.95588235 c 0,6,7
 120 1421 120 1421 594 1421 c 2,8,-1
 733 1421 l 1,9,-1
 733 -287 l 1,0,-1
1242 1364 m 1,10,11
 1054 1354.35897436 1054 1354.35897436 1054 1217 c 2,12,-1
 1054 -287 l 1,13,-1
 822 -287 l 1,14,-1
 822 1421 l 1,15,-1
 1242 1421 l 1,16,-1
 1242 1364 l 1,10,11
EndSplineSet
EndChar

StartChar: periodcentered
Encoding: 183 183 121
Width: 576
GlyphClass: 2
Flags: MW
LayerCount: 2
Fore
SplineSet
101 489 m 256,0,1
 101 558.411764706 101 558.411764706 155.5 606.5 c 0,2,3
 210.466666667 655 210.466666667 655 288 655 c 0,4,5
 364.533333333 655 364.533333333 655 419.5 606.5 c 0,6,7
 475 557.529411765 475 557.529411765 475 489 c 256,8,9
 475 421.470588235 475 421.470588235 419.5 372.5 c 0,10,11
 364.533333333 324 364.533333333 324 288 324 c 0,12,13
 210.466666667 324 210.466666667 324 155.5 372.5 c 0,14,15
 101 420.588235294 101 420.588235294 101 489 c 256,0,1
EndSplineSet
EndChar

StartChar: cedilla
Encoding: 184 184 122
Width: 641
GlyphClass: 2
Flags: MW
LayerCount: 2
Fore
SplineSet
319 -224 m 128,-1,1
 290 -203 290 -203 254.3 -203 c 128,-1,2
 218.6 -203 218.6 -203 171 -217 c 1,3,-1
 145 -201 l 1,4,-1
 244 -2 l 1,5,-1
 339 -2 l 1,6,-1
 270 -135 l 1,7,8
 303 -125 303 -125 344.5 -125 c 128,-1,9
 386 -125 386 -125 424 -133.5 c 128,-1,10
 462 -142 462 -142 490 -159.5 c 0,11,12
 550 -197 550 -197 550 -268 c 0,13,14
 550 -351.5625 550 -351.5625 465 -401.5 c 0,15,16
 384.14893617 -449 384.14893617 -449 251 -449 c 0,17,18
 144.666666667 -449 144.666666667 -449 35 -414 c 1,19,-1
 71 -340 l 1,20,21
 143.333333333 -371 143.333333333 -371 207 -371 c 0,22,23
 348 -371 348 -371 348 -283 c 0,24,0
 348 -245 348 -245 319 -224 c 128,-1,1
EndSplineSet
EndChar

StartChar: onesuperior
Encoding: 185 185 123
Width: 682
GlyphClass: 2
Flags: MW
LayerCount: 2
Fore
SplineSet
53 1366 m 1,0,1
 84.1111111111 1368.22222222 84.1111111111 1368.22222222 158 1383 c 1,2,-1
 158 1293 l 1,3,4
 138.8 1302.6 138.8 1302.6 53 1307 c 1,5,-1
 53 1366 l 1,0,1
247 1400 m 1,6,7
 305.074074074 1414.51851852 305.074074074 1414.51851852 362 1442 c 1,8,-1
 463 1442 l 1,9,-1
 463 721 l 2,10,11
 463 657.563636364 463 657.563636364 573.5 643.5 c 0,12,13
 601 640 601 640 623 633 c 1,14,-1
 623 582 l 1,15,-1
 75 582 l 1,16,-1
 75 633 l 1,17,18
 100 640 100 640 130 644 c 128,-1,19
 160 648 160 648 186 655.5 c 0,20,21
 247 673.096153846 247 673.096153846 247 721 c 2,22,-1
 247 1400 l 1,6,7
EndSplineSet
EndChar

StartChar: ordmasculine
Encoding: 186 186 124
Width: 964
GlyphClass: 2
Flags: MW
LayerCount: 2
Fore
SplineSet
443 1372 m 1,0,1
 348 1320.7 348 1320.7 348 1048 c 128,-1,2
 348 775.3 348 775.3 443 724 c 1,3,-1
 443 645 l 1,4,5
 275.689771767 658.942519019 275.689771767 658.942519019 168.5 772.5 c 0,6,7
 61 886.386138614 61 886.386138614 61 1047 c 256,8,9
 61 1206.15686275 61 1206.15686275 170 1320.5 c 0,10,11
 278.1138477 1433.91354612 278.1138477 1433.91354612 443 1450 c 1,12,-1
 443 1372 l 1,0,1
532 724 m 1,13,14
 626 775.795918367 626 775.795918367 626 1048 c 128,-1,15
 626 1320.20408163 626 1320.20408163 532 1372 c 1,16,-1
 532 1450 l 1,17,18
 697.484070906 1435.87331102 697.484070906 1435.87331102 804.5 1322.5 c 0,19,20
 912 1208.61386139 912 1208.61386139 912 1047 c 0,21,22
 912 886.386138614 912 886.386138614 804.5 772.5 c 0,23,24
 697.484070906 659.12668898 697.484070906 659.12668898 532 645 c 1,25,-1
 532 724 l 1,13,14
EndSplineSet
EndChar

StartChar: guillemotright
Encoding: 187 187 125
Width: 1152
GlyphClass: 2
Flags: MW
LayerCount: 2
Fore
SplineSet
174 1069 m 1,0,-1
 596 684 l 1,1,-1
 596 516 l 1,2,-1
 174 131 l 1,3,-1
 174 279 l 1,4,-1
 389 600 l 1,5,-1
 174 922 l 1,6,-1
 174 1069 l 1,0,-1
588 1069 m 1,7,-1
 1010 684 l 1,8,-1
 1010 516 l 1,9,-1
 588 131 l 1,10,-1
 588 279 l 1,11,-1
 804 600 l 1,12,-1
 588 922 l 1,13,-1
 588 1069 l 1,7,-1
EndSplineSet
EndChar

StartChar: onequarter
Encoding: 188 188 126
Width: 1729
GlyphClass: 2
Flags: MW
LayerCount: 2
Fore
SplineSet
1205 496 m 1,0,-1
 1065 305 l 1,1,-1
 1205 305 l 1,2,-1
 1205 225 l 1,3,-1
 959 225 l 1,4,-1
 959 305 l 1,5,-1
 1205 633 l 1,6,-1
 1205 496 l 1,0,-1
1598 305 m 1,7,-1
 1654 305 l 1,8,-1
 1654 225 l 1,9,-1
 1598 225 l 1,10,-1
 1598 305 l 1,7,-1
1509 127 m 2,11,12
 1509 83.3333333333 1509 83.3333333333 1544 70.5 c 0,13,14
 1559 65 1559 65 1576.5 62 c 128,-1,15
 1594 59 1594 59 1609 51 c 1,16,-1
 1609 0 l 1,17,-1
 1187 0 l 1,18,-1
 1187 51 l 1,19,20
 1205 59 1205 59 1224 63 c 128,-1,21
 1243 67 1243 67 1258 73.5 c 0,22,23
 1293 88.6666666667 1293 88.6666666667 1293 131 c 2,24,-1
 1293 753 l 1,25,-1
 1374 858 l 1,26,-1
 1509 858 l 1,27,-1
 1509 127 l 2,11,12
497 -31 m 1,28,-1
 297 -31 l 1,29,-1
 1256 1452 l 1,30,-1
 1454 1452 l 1,31,-1
 497 -31 l 1,28,-1
53 1366 m 1,32,33
 84.1111111111 1368.22222222 84.1111111111 1368.22222222 158 1383 c 1,34,-1
 158 1293 l 1,35,36
 138.8 1302.6 138.8 1302.6 53 1307 c 1,37,-1
 53 1366 l 1,32,33
247 1400 m 1,38,39
 305.074074074 1414.51851852 305.074074074 1414.51851852 362 1442 c 1,40,-1
 463 1442 l 1,41,-1
 463 721 l 2,42,43
 463 657.563636364 463 657.563636364 573.5 643.5 c 0,44,45
 601 640 601 640 623 633 c 1,46,-1
 623 582 l 1,47,-1
 75 582 l 1,48,-1
 75 633 l 1,49,50
 100 640 100 640 130 644 c 128,-1,51
 160 648 160 648 186 655.5 c 0,52,53
 247 673.096153846 247 673.096153846 247 721 c 2,54,-1
 247 1400 l 1,38,39
EndSplineSet
EndChar

StartChar: onehalf
Encoding: 189 189 127
Width: 1729
GlyphClass: 2
Flags: MW
LayerCount: 2
Fore
SplineSet
1185 739 m 1,0,1
 1282 725.42 1282 725.42 1282 631 c 0,2,3
 1282 593 1282 593 1254 566 c 128,-1,4
 1226 539 1226 539 1173.5 539 c 128,-1,5
 1121 539 1121 539 1090.5 573 c 128,-1,6
 1060 607 1060 607 1060 654 c 128,-1,7
 1060 701 1060 701 1081 739.5 c 128,-1,8
 1102 778 1102 778 1140 807 c 0,9,10
 1222.55172414 870 1222.55172414 870 1355 870 c 0,11,12
 1483.98360656 870 1483.98360656 870 1568 807.5 c 0,13,14
 1658 740.548780488 1658 740.548780488 1658 627 c 0,15,16
 1658 495.85 1658 495.85 1479 379.5 c 0,17,18
 1429 347 1429 347 1377 313.5 c 0,19,20
 1246.91599354 229.695880452 1246.91599354 229.695880452 1192 158 c 1,21,-1
 1229 158 l 1,22,-1
 1229 0 l 1,23,-1
 1055 0 l 1,24,25
 1055 72.8666666667 1055 72.8666666667 1068 104.933333333 c 128,-1,26
 1081 137 1081 137 1093 158 c 1,27,28
 1162 236 1162 236 1227.5 304.5 c 128,-1,29
 1293 373 1293 373 1347.5 436.5 c 0,30,31
 1434 537.28440367 1434 537.28440367 1434 641 c 0,32,33
 1434 752.094339623 1434 752.094339623 1356.5 794.5 c 0,34,35
 1330 809 1330 809 1302.5 809 c 128,-1,36
 1275 809 1275 809 1256.5 803 c 128,-1,37
 1238 797 1238 797 1222.5 787 c 0,38,39
 1186.92689295 764.049608355 1186.92689295 764.049608355 1185 739 c 1,0,1
1299 158 m 1,40,-1
 1401 158 l 2,41,42
 1520.11428571 158 1520.11428571 158 1553.5 219.5 c 0,43,44
 1563 237 1563 237 1571 254 c 0,45,46
 1591.91666667 298.447916667 1591.91666667 298.447916667 1612 311 c 1,47,-1
 1645 311 l 1,48,-1
 1645 0 l 1,49,-1
 1299 0 l 1,50,-1
 1299 158 l 1,40,-1
494 -31 m 1,51,-1
 292 -31 l 1,52,-1
 1299 1452 l 1,53,-1
 1450 1452 l 1,54,-1
 494 -31 l 1,51,-1
3 1366 m 1,55,56
 34.1111111111 1368.22222222 34.1111111111 1368.22222222 108 1383 c 1,57,-1
 108 1293 l 1,58,59
 88.8 1302.6 88.8 1302.6 3 1307 c 1,60,-1
 3 1366 l 1,55,56
197 1400 m 1,61,62
 255.074074074 1414.51851852 255.074074074 1414.51851852 312 1442 c 1,63,-1
 413 1442 l 1,64,-1
 413 721 l 2,65,66
 413 657.563636364 413 657.563636364 523.5 643.5 c 0,67,68
 551 640 551 640 573 633 c 1,69,-1
 573 582 l 1,70,-1
 25 582 l 1,71,-1
 25 633 l 1,72,73
 50 640 50 640 80 644 c 128,-1,74
 110 648 110 648 136 655.5 c 0,75,76
 197 673.096153846 197 673.096153846 197 721 c 2,77,-1
 197 1400 l 1,61,62
EndSplineSet
EndChar

StartChar: threequarters
Encoding: 190 190 128
Width: 1729
GlyphClass: 2
Flags: MW
LayerCount: 2
Fore
SplineSet
537 -31 m 1,0,-1
 337 -31 l 1,1,-1
 1295 1452 l 1,2,-1
 1493 1452 l 1,3,-1
 537 -31 l 1,0,-1
177 680 m 1,4,5
 194.678571429 625 194.678571429 625 287 625 c 1,6,-1
 287 564 l 1,7,8
 176.887640449 571.865168539 176.887640449 571.865168539 110.5 623.5 c 0,9,10
 46 673.666666667 46 673.666666667 46 740.333333333 c 128,-1,11
 46 807 46 807 81.5 837.5 c 128,-1,12
 117 868 117 868 168 868 c 0,13,14
 270 868 270 868 270 776 c 0,15,16
 270 704.533333333 270 704.533333333 197 687.5 c 0,17,18
 182 684 182 684 177 680 c 1,4,5
287 1391 m 1,19,20
 232.098039216 1387.56862745 232.098039216 1387.56862745 210 1356 c 0,21,22
 203 1346 203 1346 203 1333 c 1,23,24
 247 1327 247 1327 266.5 1298 c 128,-1,25
 286 1269 286 1269 286 1230 c 128,-1,26
 286 1191 286 1191 254.5 1167 c 128,-1,27
 223 1143 223 1143 176.5 1143 c 128,-1,28
 130 1143 130 1143 98.5 1171.5 c 128,-1,29
 67 1200 67 1200 67 1245 c 128,-1,30
 67 1290 67 1290 83 1321 c 128,-1,31
 99 1352 99 1352 127.5 1377 c 0,32,33
 188.125244618 1430.18003914 188.125244618 1430.18003914 287 1446 c 1,34,-1
 287 1391 l 1,19,20
435 1229 m 0,35,36
 435 1330 435 1330 375 1370 c 1,37,-1
 375 1452 l 1,38,39
 493.349112426 1447.98816568 493.349112426 1447.98816568 574 1387.5 c 0,40,41
 655 1326.75 655 1326.75 655 1237 c 0,42,43
 655 1083.94444444 655 1083.94444444 429 1040 c 1,44,-1
 429 1036 l 1,45,46
 682 1010.18367347 682 1010.18367347 682 821 c 0,47,48
 682 718.768292683 682 718.768292683 596 648.5 c 128,-1,49
 509.804603453 578.072054041 509.804603453 578.072054041 375 566 c 1,50,-1
 375 642 l 1,51,52
 449 679 449 679 449 811 c 0,53,54
 449 962.428571429 449 962.428571429 352.5 990 c 0,55,56
 321 999 321 999 280 999 c 2,57,-1
 231 999 l 2,58,59
 217 999 217 999 207 1011.5 c 128,-1,60
 197 1024 197 1024 197 1036.5 c 0,61,62
 197 1068 197 1068 240 1068 c 2,63,-1
 303 1068 l 2,64,65
 381.677419355 1068 381.677419355 1068 420.5 1151 c 0,66,67
 435 1182 435 1182 435 1229 c 0,35,36
1240 496 m 1,68,-1
 1100 305 l 1,69,-1
 1240 305 l 1,70,-1
 1240 225 l 1,71,-1
 994 225 l 1,72,-1
 994 305 l 1,73,-1
 1240 633 l 1,74,-1
 1240 496 l 1,68,-1
1633 305 m 1,75,-1
 1689 305 l 1,76,-1
 1689 225 l 1,77,-1
 1633 225 l 1,78,-1
 1633 305 l 1,75,-1
1544 127 m 2,79,80
 1544 83.3333333333 1544 83.3333333333 1579 70.5 c 0,81,82
 1594 65 1594 65 1611.5 62 c 128,-1,83
 1629 59 1629 59 1644 51 c 1,84,-1
 1644 0 l 1,85,-1
 1222 0 l 1,86,-1
 1222 51 l 1,87,88
 1240 59 1240 59 1259 63 c 128,-1,89
 1278 67 1278 67 1293 73.5 c 0,90,91
 1328 88.6666666667 1328 88.6666666667 1328 131 c 2,92,-1
 1328 753 l 1,93,-1
 1409 858 l 1,94,-1
 1544 858 l 1,95,-1
 1544 127 l 2,79,80
EndSplineSet
EndChar

StartChar: Eth
Encoding: 208 208 146
Width: 1515
GlyphClass: 2
Flags: MW
LayerCount: 2
Fore
SplineSet
64 0 m 1,0,-1
 64 74 l 1,1,2
 91 85 91 85 116.5 90.5 c 128,-1,3
 142 96 142 96 162.5 106 c 0,4,5
 207 127.707317073 207 127.707317073 207 190 c 2,6,-1
 207 675 l 1,7,-1
 0 675 l 1,8,-1
 0 776 l 1,9,-1
 207 776 l 1,10,-1
 207 1229 l 2,11,12
 207 1292.29268293 207 1292.29268293 162.5 1314 c 0,13,14
 142 1324 142 1324 116.5 1329.5 c 128,-1,15
 91 1335 91 1335 64 1346 c 1,16,-1
 64 1421 l 1,17,-1
 539 1421 l 1,18,-1
 539 776 l 1,19,-1
 736 776 l 1,20,-1
 736 675 l 1,21,-1
 539 675 l 1,22,-1
 539 0 l 1,23,-1
 64 0 l 1,0,-1
868 1288.5 m 128,-1,25
 799 1325 799 1325 727.5 1325 c 128,-1,26
 656 1325 656 1325 628 1321 c 1,27,-1
 628 1421 l 1,28,-1
 726 1421 l 2,29,30
 1080.69402985 1421 1080.69402985 1421 1269.5 1201 c 0,31,32
 1438 1004.66086957 1438 1004.66086957 1438 711 c 0,33,34
 1438 405.942857143 1438 405.942857143 1263.5 211.5 c 0,35,36
 1073.69230769 1.70530256582e-13 1073.69230769 1.70530256582e-13 737 0 c 2,37,-1
 628 0 l 1,38,-1
 628 100 l 1,39,40
 660 96 660 96 728 96 c 128,-1,41
 796 96 796 96 865.5 126.5 c 128,-1,42
 935 157 935 157 980 229 c 0,43,44
 1067 368.2 1067 368.2 1067 711 c 0,45,46
 1067 1030.40909091 1067 1030.40909091 981 1177 c 0,47,24
 937 1252 937 1252 868 1288.5 c 128,-1,25
EndSplineSet
EndChar

StartChar: multiply
Encoding: 215 215 153
Width: 1383
GlyphClass: 2
Flags: MW
LayerCount: 2
Fore
SplineSet
139 827 m 1,0,-1
 311 981 l 1,1,-1
 691 643 l 1,2,-1
 1072 981 l 1,3,-1
 1243 827 l 1,4,-1
 863 489 l 1,5,-1
 1243 152 l 1,6,-1
 1072 0 l 1,7,-1
 691 338 l 1,8,-1
 311 0 l 1,9,-1
 139 152 l 1,10,-1
 521 489 l 1,11,-1
 139 827 l 1,0,-1
EndSplineSet
EndChar

StartChar: Oslash
Encoding: 216 216 154
Width: 1473
GlyphClass: 2
Flags: MW
LayerCount: 2
Fore
SplineSet
508 252 m 1,0,1
 568.627896306 114.019270475 568.627896306 114.019270475 701 97 c 1,2,-1
 701 -31 l 1,3,4
 523 -21 523 -21 392 63 c 1,5,-1
 260 -154 l 1,6,-1
 129 -154 l 1,7,-1
 303 132 l 1,8,9
 136.457716702 286.64640592 136.457716702 286.64640592 89 544.5 c 0,10,11
 74 626 74 626 74 716 c 128,-1,12
 74 806 74 806 92.5 896.5 c 128,-1,13
 111 987 111 987 146.5 1068 c 128,-1,14
 182 1149 182 1149 235 1217 c 128,-1,15
 288 1285 288 1285 356.5 1335.5 c 0,16,17
 501.403560187 1442.32671225 501.403560187 1442.32671225 691 1452 c 1,18,-1
 691 1324 l 1,19,20
 445 1285.41176471 445 1285.41176471 445 711 c 0,21,22
 445 521.846153846 445 521.846153846 467 400 c 1,23,-1
 953 1195 l 1,24,25
 886.727336367 1311.54847742 886.727336367 1311.54847742 780 1324 c 1,26,-1
 780 1452 l 1,27,28
 934.196531792 1444.38535645 934.196531792 1444.38535645 1060 1371 c 1,29,-1
 1175 1559 l 1,30,-1
 1305 1559 l 1,31,-1
 1151 1307 l 1,32,33
 1330.69072165 1151.26804124 1330.69072165 1151.26804124 1381 884 c 0,34,35
 1397 799 1397 799 1397 707 c 128,-1,36
 1397 615 1397 615 1379 524.5 c 128,-1,37
 1361 434 1361 434 1326 353.5 c 128,-1,38
 1291 273 1291 273 1239 204.5 c 128,-1,39
 1187 136 1187 136 1119.5 85.5 c 0,40,41
 976.641525981 -21.3793027845 976.641525981 -21.3793027845 790 -31 c 1,42,-1
 790 97 l 1,43,44
 982.280452702 123.339788041 982.280452702 123.339788041 1015.5 494 c 0,45,46
 1025 600 1025 600 1025 701 c 0,47,48
 1025 911.625 1025 911.625 996 1053 c 1,49,-1
 508 252 l 1,0,1
EndSplineSet
EndChar

StartChar: Thorn
Encoding: 222 222 160
Width: 1238
GlyphClass: 2
Flags: MW
LayerCount: 2
Fore
SplineSet
845 741 m 0,0,1
 845 1023.6875 845 1023.6875 632 1037 c 1,2,-1
 632 1135 l 1,3,-1
 669 1135 l 2,4,5
 1081.78767123 1135 1081.78767123 1135 1171.5 913 c 0,6,7
 1201 840 1201 840 1201 739 c 128,-1,8
 1201 638 1201 638 1167 563 c 128,-1,9
 1133 488 1133 488 1066 441 c 0,10,11
 939.127659574 352 939.127659574 352 665 352 c 2,12,-1
 632 352 l 1,13,-1
 632 454 l 1,14,15
 746.826086957 468.101449275 746.826086957 468.101449275 795.5 533 c 0,16,17
 845 599 845 599 845 741 c 0,0,1
543 223 m 2,18,19
 543 151.727272727 543 151.727272727 560 130.863636364 c 128,-1,20
 577 110 577 110 592 104.5 c 128,-1,21
 607 99 607 99 624 95.5 c 0,22,23
 678.4 84.3 678.4 84.3 699 74 c 1,24,-1
 699 0 l 1,25,-1
 59 0 l 1,26,-1
 59 74 l 1,27,28
 89 85 89 85 116.5 90.5 c 128,-1,29
 144 96 144 96 165 106 c 0,30,31
 211 127.904761905 211 127.904761905 211 190 c 2,32,-1
 211 1184 l 2,33,34
 211 1294.75862069 211 1294.75862069 164.5 1314 c 0,35,36
 145.857142857 1321.71428571 145.857142857 1321.71428571 111.928571429 1328.85714286 c 128,-1,37
 78 1336 78 1336 59 1346 c 1,38,-1
 59 1421 l 1,39,-1
 704 1421 l 1,40,-1
 704 1346 l 1,41,42
 683.744493392 1335.33920705 683.744493392 1335.33920705 646.872246696 1328.16960352 c 128,-1,43
 610 1321 610 1321 594.5 1316 c 128,-1,44
 579 1311 579 1311 567.5 1299 c 0,45,46
 543 1273.43478261 543 1273.43478261 543 1206 c 2,47,-1
 543 223 l 2,18,19
EndSplineSet
EndChar

StartChar: germandbls
Encoding: 223 223 161
Width: 1343
GlyphClass: 2
Flags: MW
LayerCount: 2
Fore
SplineSet
744 202 m 1,0,1
 744 101.404761905 744 101.404761905 841 76 c 1,2,-1
 841 -36 l 1,3,4
 648.482280431 -12.3574730354 648.482280431 -12.3574730354 582.5 146 c 0,5,6
 560 200 560 200 560 247.5 c 128,-1,7
 560 295 560 295 570 313.5 c 128,-1,8
 580 332 580 332 596 344 c 0,9,10
 626.666666667 367 626.666666667 367 661.333333333 367 c 128,-1,11
 696 367 696 367 711 359 c 128,-1,12
 726 351 726 351 733.5 337.5 c 0,13,14
 746 315 746 315 746 272 c 1,15,16
 744 202 l 1,0,1
481 0 m 1,17,-1
 53 0 l 1,18,-1
 53 63 l 1,19,20
 72 76 72 76 94.5 81.5 c 128,-1,21
 117 87 117 87 137 95 c 0,22,23
 184 113.8 184 113.8 184 164 c 2,24,-1
 184 887 l 2,25,26
 184 1325.3 184 1325.3 481 1421 c 1,27,-1
 481 0 l 1,17,-1
570 1442 m 1,28,29
 612 1449 612 1449 691.5 1449 c 128,-1,30
 771 1449 771 1449 852.5 1426 c 128,-1,31
 934 1403 934 1403 993.5 1360 c 0,32,33
 1120 1268.57983193 1120 1268.57983193 1120 1122 c 0,34,35
 1120 927.5625 1120 927.5625 950 816 c 1,36,37
 875 768 875 768 780 746 c 1,38,39
 780 711.513888889 780 711.513888889 859 677.5 c 0,40,41
 895 662 895 662 940.5 645 c 128,-1,42
 986 628 986 628 1033 607.5 c 128,-1,43
 1080 587 1080 587 1125.5 561 c 128,-1,44
 1171 535 1171 535 1207 501 c 0,45,46
 1286 426.388888889 1286 426.388888889 1286 332.694444444 c 128,-1,47
 1286 239 1286 239 1255.5 174 c 128,-1,48
 1225 109 1225 109 1175 63.5 c 0,49,50
 1076.58120422 -26.0611041629 1076.58120422 -26.0611041629 930 -37 c 1,51,-1
 930 77 l 1,52,53
 1008.58736842 97.5010526316 1008.58736842 97.5010526316 1035 165 c 0,54,55
 1044 188 1044 188 1044 228.5 c 128,-1,56
 1044 269 1044 269 1008 307 c 128,-1,57
 972 345 972 345 917.5 376 c 128,-1,58
 863 407 863 407 800 436 c 128,-1,59
 737 465 737 465 682.5 499.5 c 0,60,61
 556 579.577981651 556 579.577981651 556 682 c 0,62,63
 556 756.711864407 556 756.711864407 625.5 821.5 c 0,64,65
 655 849 655 849 689.5 875 c 128,-1,66
 724 901 724 901 753.5 932 c 0,67,68
 823 1005.03389831 823 1005.03389831 823 1098 c 0,69,70
 823 1215.8 823 1215.8 795 1266.9 c 128,-1,71
 767 1318 767 1318 734 1340 c 128,-1,72
 701 1362 701 1362 652.5 1362 c 128,-1,73
 604 1362 604 1362 570 1348 c 1,74,-1
 570 1442 l 1,28,29
EndSplineSet
EndChar

StartChar: ae
Encoding: 230 230 168
Width: 1681
GlyphClass: 2
Flags: MW
LayerCount: 2
Fore
SplineSet
1103 -25 m 1,0,1
 783.5 -25 783.5 -25 659 58 c 1,2,-1
 659 633 l 2,3,4
 659 772.833333333 659 772.833333333 648.5 815.416666667 c 0,5,6
 627.727586207 899.660344828 627.727586207 899.660344828 566 916 c 1,7,-1
 566 1008 l 1,8,9
 754.372292191 999.719899244 754.372292191 999.719899244 855 914 c 1,10,11
 964.87755102 996.408163265 964.87755102 996.408163265 1103 1006 c 1,12,-1
 1103 902 l 1,13,14
 1037 882 1037 882 1013 794 c 128,-1,15
 989 706 989 706 989 584.5 c 128,-1,16
 989 463 989 463 993.5 393 c 128,-1,17
 998 323 998 323 1010.5 266.5 c 0,18,19
 1037.06020558 146.447870778 1037.06020558 146.447870778 1103 105 c 1,20,-1
 1103 -25 l 1,0,1
570 34 m 1,21,22
 494 -23 494 -23 411 -23 c 128,-1,23
 328 -23 328 -23 267 -5 c 128,-1,24
 206 13 206 13 161.5 47 c 0,25,26
 67 119.202247191 67 119.202247191 67 246 c 0,27,28
 67 391.272727273 67 391.272727273 205 477 c 0,29,30
 308.189309577 541.102449889 308.189309577 541.102449889 570 610 c 1,31,-1
 570 507 l 1,32,33
 392 436.736842105 392 436.736842105 392 262 c 0,34,35
 392 153.324324324 392 153.324324324 446.5 116.5 c 0,36,37
 465 104 465 104 501 104 c 128,-1,38
 537 104 537 104 570 127 c 1,39,-1
 570 34 l 1,21,22
1192 1006 m 1,40,41
 1398.13103448 990.731034483 1398.13103448 990.731034483 1501 845 c 0,42,43
 1593 714.666666667 1593 714.666666667 1593 496 c 1,44,-1
 1078 496 l 1,45,-1
 1078 596 l 1,46,-1
 1285 596 l 1,47,48
 1285 734 1285 734 1265.5 807.5 c 128,-1,49
 1246 881 1246 881 1192 900 c 1,50,-1
 1192 1006 l 1,40,41
359 821 m 1,51,52
 427 792.483870968 427 792.483870968 427 731 c 0,53,54
 427 656.64 427 656.64 338 633.5 c 0,55,56
 313 627 313 627 288 627 c 0,57,58
 215 627 215 627 177 667.5 c 128,-1,59
 139 708 139 708 139 762.5 c 128,-1,60
 139 817 139 817 161 857.5 c 128,-1,61
 183 898 183 898 226 930 c 0,62,63
 320.557911909 1000.36867863 320.557911909 1000.36867863 477 1008 c 1,64,-1
 477 922 l 1,65,66
 414.951219512 916.829268293 414.951219512 916.829268293 379 858 c 0,67,68
 368 840 368 840 359 821 c 1,51,52
1192 80 m 1,69,70
 1403.10047847 90.5550239234 1403.10047847 90.5550239234 1472 334 c 1,71,-1
 1564 293 l 1,72,73
 1485.92235294 2.37764705882 1485.92235294 2.37764705882 1192 -24 c 1,74,-1
 1192 80 l 1,69,70
EndSplineSet
EndChar

StartChar: eth
Encoding: 240 240 178
Width: 1130
GlyphClass: 2
Flags: MW
LayerCount: 2
Fore
SplineSet
399 463 m 0,0,1
 399 106.363636364 399 106.363636364 529 65 c 1,2,-1
 529 -26 l 1,3,4
 324.081256452 -12.467630143 324.081256452 -12.467630143 190 137 c 0,5,6
 62 279.68852459 62 279.68852459 62 463 c 0,7,8
 62 646.860655738 62 646.860655738 190 788.5 c 0,9,10
 324.656956005 937.505648038 324.656956005 937.505648038 529 951 c 1,11,-1
 529 862 l 1,12,13
 460 843 460 843 429.5 745 c 128,-1,14
 399 647 399 647 399 463 c 0,0,1
353 1473 m 1,15,16
 509.799242424 1430.5719697 509.799242424 1430.5719697 638 1339 c 1,17,-1
 862 1473 l 1,18,-1
 924 1395 l 1,19,-1
 724 1274 l 1,20,21
 884.426551821 1138.40136691 884.426551821 1138.40136691 977.5 920.5 c 0,22,23
 1062.77126482 720.864921193 1062.77126482 720.864921193 1067 520 c 1,24,25
 1063.15299335 271.868070953 1063.15299335 271.868070953 926 124 c 0,26,27
 798.622265435 -13.3291200778 798.622265435 -13.3291200778 598 -26 c 1,28,-1
 598 63 l 1,29,30
 731 98.7313432836 731 98.7313432836 731 462.5 c 128,-1,31
 731 826.268656716 731 826.268656716 598 862 c 1,32,-1
 598 951 l 1,33,34
 644 947 644 947 680 938 c 1,35,36
 650.588235294 1082.95798319 650.588235294 1082.95798319 572 1184 c 1,37,-1
 345 1051 l 1,38,-1
 283 1128 l 1,39,-1
 500 1257 l 1,40,41
 471.855828221 1284.01840491 471.855828221 1284.01840491 421.42791411 1319.00920245 c 0,42,43
 334.581081081 1379.27027027 334.581081081 1379.27027027 321 1401 c 1,44,-1
 353 1473 l 1,15,16
EndSplineSet
EndChar

StartChar: divide
Encoding: 247 247 185
Width: 1383
GlyphClass: 2
Flags: MW
LayerCount: 2
Fore
SplineSet
139 383 m 1,0,-1
 139 598 l 1,1,-1
 1243 598 l 1,2,-1
 1243 383 l 1,3,-1
 139 383 l 1,0,-1
512 65.5 m 0,4,5
 512 98 512 98 526.5 127 c 128,-1,6
 541 156 541 156 565.5 178 c 0,7,8
 617.840909091 225 617.840909091 225 691 225 c 256,9,10
 763.045454545 225 763.045454545 225 816.5 177 c 0,11,12
 869 129.857142857 869 129.857142857 869 65 c 0,13,14
 869 2.14285714286 869 2.14285714286 816.5 -45 c 0,15,16
 763.045454545 -93 763.045454545 -93 691 -93 c 256,17,18
 618.488372093 -93 618.488372093 -93 565.5 -46.5 c 0,19,20
 512 0.448979591837 512 0.448979591837 512 65.5 c 0,4,5
512 915.5 m 0,21,22
 512 948 512 948 526.5 977 c 128,-1,23
 541 1006 541 1006 565.5 1027.5 c 0,24,25
 618.488372093 1074 618.488372093 1074 691 1074 c 256,26,27
 763.511627907 1074 763.511627907 1074 816.5 1027.5 c 0,28,29
 869 981.428571429 869 981.428571429 869 916 c 256,30,31
 869 852.714285714 869 852.714285714 816.5 804.5 c 0,32,33
 763.688888889 756 763.688888889 756 691 756 c 256,34,35
 617.840909091 756 617.840909091 756 565.5 803 c 0,36,37
 512 851.040816327 512 851.040816327 512 915.5 c 0,21,22
EndSplineSet
EndChar

StartChar: oslash
Encoding: 248 248 186
Width: 1130
GlyphClass: 2
Flags: MW
LayerCount: 2
Fore
SplineSet
520 884 m 1,0,1
 399 839.323076923 399 839.323076923 399 492 c 0,2,3
 399 407 399 407 405 340 c 1,4,-1
 692 792 l 1,5,6
 661 865 661 865 609 884 c 1,7,-1
 609 1006 l 1,8,9
 709 997 709 997 795 954 c 1,10,-1
 890 1104 l 1,11,-1
 996 1104 l 1,12,-1
 871 906 l 1,13,14
 962 835 962 835 1014.5 727.5 c 128,-1,15
 1067 620 1067 620 1067 502.5 c 128,-1,16
 1067 385 1067 385 1032.5 295 c 128,-1,17
 998 205 998 205 937 136.5 c 0,18,19
 807.464050211 -8.96250099309 807.464050211 -8.96250099309 609 -25 c 1,20,-1
 609 97 l 1,21,22
 675 121 675 121 703 220.5 c 128,-1,23
 731 320 731 320 731 431.5 c 0,24,25
 731 593 731 593 721 669 c 1,26,-1
 430 209 l 1,27,28
 461 119 461 119 520 97 c 1,29,-1
 520 -25 l 1,30,31
 410 -16 410 -16 319 34 c 1,32,-1
 220 -123 l 1,33,-1
 111 -123 l 1,34,-1
 244 86 l 1,35,36
 159 156 159 156 110.5 260 c 128,-1,37
 62 364 62 364 62 478.5 c 128,-1,38
 62 593 62 593 96.5 683.5 c 128,-1,39
 131 774 131 774 192.5 842.5 c 0,40,41
 323.231936416 988.11199422 323.231936416 988.11199422 520 1006 c 1,42,-1
 520 884 l 1,0,1
EndSplineSet
EndChar

StartChar: thorn
Encoding: 254 254 192
Width: 1153
GlyphClass: 2
Flags: MW
LayerCount: 2
Fore
SplineSet
146 692 m 1,0,-1
 147 1079.5 l 1,1,-1
 147 1251 l 2,2,3
 147 1302.8 147 1302.8 99 1322 c 0,4,5
 79 1330 79 1330 56 1335.5 c 128,-1,6
 33 1341 33 1341 14 1354 c 1,7,-1
 14 1421 l 1,8,-1
 445 1421 l 1,9,-1
 443 -213 l 2,10,11
 443 -265.113636364 443 -265.113636364 492 -288.5 c 0,12,13
 514 -299 514 -299 541.5 -306.5 c 128,-1,14
 569 -314 569 -314 597 -326 c 1,15,-1
 597 -389 l 1,16,-1
 5 -389 l 1,17,-1
 5 -326 l 1,18,19
 27 -313 27 -313 51.5 -307 c 128,-1,20
 76 -301 76 -301 97 -292 c 0,21,22
 145 -271.428571429 145 -271.428571429 145 -213 c 2,23,-1
 145 217.5 l 1,24,-1
 146 692 l 1,0,-1
513 955 m 1,25,26
 587.2 1008 587.2 1008 666.6 1008 c 128,-1,27
 746 1008 746 1008 824 967 c 128,-1,28
 902 926 902 926 958 854.5 c 0,29,30
 1078 701.285714286 1078 701.285714286 1078 483 c 256,31,32
 1078 265.948275862 1078 265.948275862 954 119.5 c 128,-1,33
 829.95620438 -27 829.95620438 -27 647 -27 c 0,34,35
 602 -27 602 -27 571.5 -13.5 c 128,-1,36
 541 0 541 0 513 15 c 1,37,-1
 513 106 l 1,38,39
 545 86 545 86 579 86 c 0,40,41
 747 86 747 86 747 483.5 c 128,-1,42
 747 881 747 881 588 881 c 0,43,44
 557 881 557 881 513 859 c 1,45,-1
 513 955 l 1,25,26
EndSplineSet
EndChar

StartChar: hbar
Encoding: 295 295 194
Width: 1194
GlyphClass: 2
Flags: MW
LayerCount: 2
Fore
SplineSet
555 1111 m 1,0,-1
 555 1218 l 1,1,-1
 865 1218 l 1,2,-1
 865 1111 l 1,3,-1
 555 1111 l 1,0,-1
0 1111 m 1,4,-1
 0 1218 l 1,5,-1
 82 1218 l 1,6,-1
 82 1111 l 1,7,-1
 0 1111 l 1,4,-1
686 892.5 m 128,-1,9
 668 905 668 905 628.5 905 c 128,-1,10
 589 905 589 905 555 888 c 1,11,-1
 555 977 l 1,12,13
 637 1025 637 1025 719.5 1025 c 128,-1,14
 802 1025 802 1025 855.5 1006 c 128,-1,15
 909 987 909 987 946.5 949.5 c 0,16,17
 1025 871 1025 871 1025 729 c 2,18,-1
 1025 168 l 2,19,20
 1025 116.2 1025 116.2 1073 97 c 0,21,22
 1093 89 1093 89 1115.5 83 c 128,-1,23
 1138 77 1138 77 1155 64 c 1,24,-1
 1155 0 l 1,25,-1
 680 0 l 1,26,-1
 680 63 l 1,27,28
 687 75 687 75 695.5 82 c 128,-1,29
 704 89 704 89 711 97 c 0,30,31
 728 116.428571429 728 116.428571429 728 154 c 2,32,-1
 728 715 l 2,33,34
 728 819.368421053 728 819.368421053 716 849.684210526 c 128,-1,8
 704 880 704 880 686 892.5 c 128,-1,9
466 168 m 2,35,36
 466 115.378378378 466 115.378378378 508.5 97 c 0,37,38
 527 89 527 89 549 83 c 128,-1,39
 571 77 571 77 590 64 c 1,40,-1
 590 0 l 1,41,-1
 39 0 l 1,42,-1
 39 64 l 1,43,44
 56 77 56 77 78.5 83 c 128,-1,45
 101 89 101 89 121 97 c 0,46,47
 169 116.2 169 116.2 169 168 c 2,48,-1
 169 1281 l 2,49,50
 169 1333.1 169 1333.1 121 1353.5 c 0,51,52
 101 1362 101 1362 78.5 1367.5 c 128,-1,53
 56 1373 56 1373 39 1386 c 1,54,-1
 39 1455 l 1,55,-1
 466 1455 l 1,56,-1
 466 168 l 2,35,36
EndSplineSet
EndChar

StartChar: dotlessi
Encoding: 305 305 197
Width: 641
GlyphClass: 2
Flags: MW
LayerCount: 2
Fore
SplineSet
468 164 m 2,0,1
 468 113.536585366 468 113.536585366 515.5 95 c 0,2,3
 536 87 536 87 559 81.5 c 128,-1,4
 582 76 582 76 602 63 c 1,5,-1
 602 0 l 1,6,-1
 39 0 l 1,7,-1
 39 63 l 1,8,9
 58 76 58 76 81 81.5 c 128,-1,10
 104 87 104 87 124 95 c 0,11,12
 171 113.8 171 113.8 171 164 c 2,13,-1
 171 811 l 2,14,15
 171 862.2 171 862.2 124 881 c 0,16,17
 104 889 104 889 81 894.5 c 128,-1,18
 58 900 58 900 39 913 c 1,19,-1
 39 981 l 1,20,-1
 468 981 l 1,21,-1
 468 164 l 2,0,1
EndSplineSet
EndChar

StartChar: kgreenlandic
Encoding: 312 312 203
Width: 1152
GlyphClass: 2
Flags: MW
LayerCount: 2
Fore
SplineSet
552 589 m 1,0,-1
 717 774 l 2,1,2
 733 792 733 792 746.5 805 c 128,-1,3
 760 818 760 818 770 828.5 c 0,4,5
 791 850.55 791 850.55 791 867.275 c 128,-1,6
 791 884 791 884 779.5 892.5 c 128,-1,7
 768 901 768 901 751 906 c 128,-1,8
 734 911 734 911 714 916.5 c 128,-1,9
 694 922 694 922 678 935 c 1,10,-1
 678 1005 l 1,11,-1
 1137 1005 l 1,12,-1
 1137 954 l 2,13,14
 1137 932.551724138 1137 932.551724138 1087 909.275862069 c 0,15,16
 981.52173913 860.173913043 981.52173913 860.173913043 955 831 c 2,17,-1
 773 631 l 1,18,-1
 1049 212 l 1,19,20
 1099.24663677 123.565919283 1099.24663677 123.565919283 1173.5 87.5 c 0,21,22
 1191 79 1191 79 1208 64 c 1,23,-1
 1208 0 l 1,24,-1
 682 0 l 1,25,-1
 681 68 l 2,26,27
 681 81.9677419355 681 81.9677419355 709.5 87.4838709677 c 128,-1,28
 738 93 738 93 751.5 97 c 128,-1,29
 765 101 765 101 765.5 105.5 c 0,30,31
 766.326203209 112.935828877 766.326203209 112.935828877 704 218 c 1,32,-1
 552 449 l 1,33,-1
 552 589 l 1,0,-1
165 786 m 2,34,35
 165 877.258064516 165 877.258064516 138.5 893.5 c 0,36,37
 120.340857788 904.62979684 120.340857788 904.62979684 83.6704288939 913.31489842 c 128,-1,38
 47 922 47 922 35 935 c 1,39,-1
 35 1004 l 1,40,-1
 462 1004 l 1,41,-1
 462 180 l 2,42,43
 462 126 462 126 505 104.5 c 0,44,45
 524 95 524 95 548 87.5 c 128,-1,46
 572 80 572 80 596 68 c 1,47,-1
 596 0 l 1,48,-1
 24 0 l 1,49,-1
 24 64 l 1,50,51
 46 77 46 77 71 83.5 c 128,-1,52
 96 90 96 90 117 99 c 0,53,54
 165 119.571428571 165 119.571428571 165 180 c 2,55,-1
 165 786 l 2,34,35
EndSplineSet
EndChar

StartChar: Lslash
Encoding: 321 321 206
Width: 1173
GlyphClass: 2
Flags: MW
LayerCount: 2
Fore
SplineSet
648 963 m 1,0,-1
 863 1064 l 1,1,-1
 863 905 l 1,2,-1
 648 804 l 1,3,-1
 648 963 l 1,0,-1
151 571 m 1,4,-1
 10 505 l 1,5,-1
 10 664 l 1,6,-1
 151 730 l 1,7,-1
 151 571 l 1,4,-1
558 0 m 1,8,-1
 83 0 l 1,9,-1
 83 74 l 1,10,11
 110 85 110 85 135.5 90.5 c 128,-1,12
 161 96 161 96 181 106 c 0,13,14
 226 128.5 226 128.5 226 190 c 2,15,-1
 226 1229 l 2,16,17
 226 1291.5 226 1291.5 181 1314 c 0,18,19
 161 1324 161 1324 135.5 1329.5 c 128,-1,20
 110 1335 110 1335 83 1346 c 1,21,-1
 83 1421 l 1,22,-1
 708 1421 l 1,23,-1
 708 1346 l 1,24,25
 678 1335 678 1335 651 1329.5 c 128,-1,26
 624 1324 624 1324 603.5 1314 c 0,27,28
 558 1291.80487805 558 1291.80487805 558 1229 c 2,29,-1
 558 0 l 1,8,-1
648 97 m 1,30,31
 654 96 654 96 661 96 c 128,-1,32
 668 96 668 96 675 96 c 0,33,34
 901.129032258 96 901.129032258 96 979.5 265.5 c 0,35,36
 1001 312 1001 312 1016.5 356.5 c 128,-1,37
 1032 401 1032 401 1047.5 439 c 128,-1,38
 1063 477 1063 477 1089 498 c 1,39,-1
 1157 498 l 1,40,-1
 1157 0 l 1,41,-1
 648 0 l 1,42,-1
 648 97 l 1,30,31
EndSplineSet
EndChar

StartChar: lslash
Encoding: 322 322 207
Width: 640
GlyphClass: 2
Flags: MW
LayerCount: 2
Fore
SplineSet
540 931 m 1,0,-1
 680 993 l 1,1,-1
 680 887 l 1,2,-1
 540 825 l 1,3,-1
 540 931 l 1,0,-1
101 625 m 1,4,-1
 -39 561 l 1,5,-1
 -39 668 l 1,6,-1
 101 732 l 1,7,-1
 101 625 l 1,4,-1
171 1210 m 2,8,9
 171 1281.85714286 171 1281.85714286 154.5 1299.92857143 c 128,-1,10
 138 1318 138 1318 124.5 1321.5 c 128,-1,11
 111 1325 111 1325 96 1327.5 c 0,12,13
 57.676056338 1333.88732394 57.676056338 1333.88732394 39 1354 c 1,14,-1
 39 1421 l 1,15,-1
 468 1421 l 1,16,-1
 468 205 l 2,17,18
 468 111.1 468 111.1 514 95 c 0,19,20
 534 88 534 88 557.5 85 c 128,-1,21
 581 82 581 82 602 63 c 1,22,-1
 602 0 l 1,23,-1
 39 0 l 1,24,-1
 39 63 l 1,25,26
 55.5217391304 79.5217391304 55.5217391304 79.5217391304 83.2608695652 85.2608695652 c 128,-1,27
 111 91 111 91 124.5 95 c 128,-1,28
 138 99 138 99 148.5 111 c 0,29,30
 171 136.714285714 171 136.714285714 171 207 c 2,31,-1
 171 1210 l 2,8,9
EndSplineSet
EndChar

StartChar: OE
Encoding: 338 338 210
Width: 2195
GlyphClass: 2
Flags: MW
LayerCount: 2
Fore
SplineSet
780 1452 m 1,0,1
 920.699441341 1448.43798883 920.699441341 1448.43798883 1060 1421 c 1,2,-1
 1397 1421 l 1,3,-1
 1397 0 l 1,4,-1
 1067 0 l 1,5,6
 934.756756757 -27.2882882883 934.756756757 -27.2882882883 790 -31 c 1,7,-1
 790 74 l 1,8,9
 1025 106.638888889 1025 106.638888889 1025 709.109984985 c 128,-1,10
 1025 1311.58108108 1025 1311.58108108 780 1348 c 1,11,-1
 780 1452 l 1,0,1
691 1348 m 1,12,13
 445 1309.15789474 445 1309.15789474 445 711.271255061 c 128,-1,14
 445 113.384615385 445 113.384615385 701 74 c 1,15,-1
 701 -31 l 1,16,17
 413.640248269 -17.5898782526 413.640248269 -17.5898782526 237.5 204.5 c 0,18,19
 74 410.652173913 74 410.652173913 74 711 c 0,20,21
 74 1010.43396226 74 1010.43396226 235 1217 c 0,22,23
 406.862791061 1437.50320363 406.862791061 1437.50320363 691 1452 c 1,24,-1
 691 1348 l 1,12,13
1490 100 m 1,25,26
 1540 96 1540 96 1617 96 c 128,-1,27
 1694 96 1694 96 1755.5 120 c 128,-1,28
 1817 144 1817 144 1855.5 181.5 c 128,-1,29
 1894 219 1894 219 1916 265 c 128,-1,30
 1938 311 1938 311 1954 355.5 c 128,-1,31
 1970 400 1970 400 1986.5 437.5 c 128,-1,32
 2003 475 2003 475 2032 496 c 1,33,-1
 2100 496 l 1,34,-1
 2100 0 l 1,35,-1
 1490 0 l 1,36,-1
 1490 100 l 1,25,26
1712.5 1304 m 128,-1,38
 1660 1325 1660 1325 1590 1325 c 128,-1,39
 1520 1325 1520 1325 1490 1322 c 1,40,-1
 1490 1421 l 1,41,-1
 1716 1421 l 2,42,43
 1940.72727273 1421 1940.72727273 1421 2043 1436 c 1,44,-1
 2043 952 l 1,45,-1
 1973 952 l 1,46,47
 1948 976 1948 976 1931 1013 c 128,-1,48
 1914 1050 1914 1050 1896.5 1091.5 c 128,-1,49
 1879 1133 1879 1133 1857 1174.5 c 128,-1,50
 1835 1216 1835 1216 1800 1249.5 c 128,-1,37
 1765 1283 1765 1283 1712.5 1304 c 128,-1,38
1490 794 m 1,51,52
 1637.58807588 801.379403794 1637.58807588 801.379403794 1675 866 c 0,53,54
 1686 885 1686 885 1695 906 c 0,55,56
 1719.48979592 963.142857143 1719.48979592 963.142857143 1750 991 c 1,57,-1
 1823 991 l 1,58,-1
 1823 496 l 1,59,-1
 1750 496 l 1,60,61
 1720.83333333 521 1720.83333333 521 1703.41666667 559.5 c 128,-1,62
 1686 598 1686 598 1674.5 617.5 c 128,-1,63
 1663 637 1663 637 1641 652 c 0,64,65
 1592.6 685 1592.6 685 1490 685 c 1,66,-1
 1490 794 l 1,51,52
EndSplineSet
EndChar

StartChar: oe
Encoding: 339 339 211
Width: 1761
GlyphClass: 2
Flags: MW
LayerCount: 2
Fore
SplineSet
1183 -25 m 1,0,1
 1010.7665996 -3.4708249497 1010.7665996 -3.4708249497 898 138 c 1,2,3
 785.047063116 -2.21743889092 785.047063116 -2.21743889092 609 -25 c 1,4,-1
 609 67 l 1,5,6
 675 93 675 93 703 200 c 128,-1,7
 731 307 731 307 731 492 c 0,8,9
 731 865.2 731 865.2 609 914 c 1,10,-1
 609 1006 l 1,11,12
 781 983 781 983 897 843 c 1,13,14
 1012 988 1012 988 1183 1006 c 1,15,-1
 1183 902 l 1,16,17
 1117 882 1117 882 1093 794 c 128,-1,18
 1069 706 1069 706 1069 584.5 c 128,-1,19
 1069 463 1069 463 1073.5 393 c 128,-1,20
 1078 323 1078 323 1090.5 266.5 c 0,21,22
 1117.06020558 146.447870778 1117.06020558 146.447870778 1183 105 c 1,23,-1
 1183 -25 l 1,0,1
520 914 m 1,24,25
 399 865.6 399 865.6 399 492 c 0,26,27
 399 308 399 308 426.5 201 c 128,-1,28
 454 94 454 94 520 67 c 1,29,-1
 520 -25 l 1,30,31
 321.535949789 -8.96250099309 321.535949789 -8.96250099309 192 136.5 c 0,32,33
 62 282.483606557 62 282.483606557 62 489 c 256,34,35
 62 697.146341463 62 697.146341463 192.5 842.5 c 0,36,37
 323.231936416 988.11199422 323.231936416 988.11199422 520 1006 c 1,38,-1
 520 914 l 1,24,25
1272 1006 m 1,39,40
 1478.13103448 990.731034483 1478.13103448 990.731034483 1581 845 c 0,41,42
 1673 714.666666667 1673 714.666666667 1673 496 c 1,43,-1
 1158 496 l 1,44,-1
 1158 596 l 1,45,-1
 1365 596 l 1,46,47
 1365 734 1365 734 1345.5 807.5 c 128,-1,48
 1326 881 1326 881 1272 900 c 1,49,-1
 1272 1006 l 1,39,40
1272 80 m 1,50,51
 1483.10047847 90.5550239234 1483.10047847 90.5550239234 1552 334 c 1,52,-1
 1644 293 l 1,53,54
 1565.92235294 2.37764705882 1565.92235294 2.37764705882 1272 -24 c 1,55,-1
 1272 80 l 1,50,51
EndSplineSet
EndChar

